<svg width="144" height="170" viewBox="0 0 144 170" fill="none" xmlns="http://www.w3.org/2000/svg">
<path d="M123.535 47.3623L128.768 50.3793V59.4492L123.535 56.4259V47.3623Z" fill="#263238"/>
<path d="M119.521 25.4987L102.593 35.2692V15.7029C102.608 15.2284 102.494 14.7586 102.262 14.3439C102.031 13.9291 101.692 13.5851 101.28 13.3484C100.868 13.1118 100.4 12.9915 99.9253 13.0005C99.4505 13.0094 98.9871 13.1472 98.5847 13.3992L14.86 61.7531C11.6221 63.6466 10 66.064 10 68.5129V150.111C10 152.559 11.6221 155.008 14.86 156.877L14.9736 156.946C21.4494 160.683 31.9395 160.683 38.4153 156.946L122.121 108.611C122.525 108.344 122.862 107.987 123.104 107.567C123.346 107.148 123.487 106.677 123.516 106.194V26.2056L122.203 25.4482C121.783 25.2477 121.321 25.1479 120.856 25.1566C120.39 25.1654 119.933 25.2825 119.521 25.4987Z" fill="#D4B139"/>
<path d="M14.8614 75.2541C8.4108 71.5365 8.4108 65.4457 14.8614 61.7281L98.586 13.3994C99.0005 13.1787 99.4612 13.0591 99.9307 13.0503C100.4 13.0415 100.865 13.1439 101.287 13.3489C102.007 13.7655 101.969 14.4661 101.199 14.9079L19.816 61.9111C19.046 62.3593 17.7837 63.0662 17.0704 63.6027C13.2834 66.4366 12.9552 70.2173 16.2057 72.8935C17.0594 73.5457 17.99 74.0905 18.9766 74.5156C23.6472 76.4659 30.3376 76.2702 35.3049 74.0296C36.1192 73.6635 37.3626 72.9314 38.1326 72.4895L119.553 25.499C119.968 25.2797 120.429 25.1609 120.898 25.1521C121.367 25.1434 121.832 25.2449 122.255 25.4485C122.981 25.865 122.943 26.5656 122.173 27.0138L38.4166 75.3487C31.9661 79.0726 21.4255 79.0726 14.975 75.3487L14.8614 75.2541Z" fill="#D4B139"/>
<path opacity="0.3" d="M14.8614 75.2541C8.4108 71.5365 8.4108 65.4457 14.8614 61.7281L98.586 13.3994C99.0005 13.1787 99.4612 13.0591 99.9307 13.0503C100.4 13.0415 100.865 13.1439 101.287 13.3489C102.007 13.7655 101.969 14.4661 101.199 14.9079L19.816 61.9111C19.046 62.3593 17.7837 63.0662 17.0704 63.6027C13.2834 66.4366 12.9552 70.2173 16.2057 72.8935C17.0594 73.5457 17.99 74.0905 18.9766 74.5156C23.6472 76.4659 30.3376 76.2702 35.3049 74.0296C36.1192 73.6635 37.3626 72.9314 38.1326 72.4895L119.553 25.499C119.968 25.2797 120.429 25.1609 120.898 25.1521C121.367 25.1434 121.832 25.2449 122.255 25.4485C122.981 25.865 122.943 26.5656 122.173 27.0138L38.4166 75.3487C31.9661 79.0726 21.4255 79.0726 14.975 75.3487L14.8614 75.2541Z" fill="black"/>
<path d="M12.7557 80.1515C12.6796 80.1512 12.606 80.1244 12.5474 80.0758C12.1368 79.7191 11.7549 79.3308 11.405 78.9144C11.3514 78.85 11.3257 78.7669 11.3334 78.6835C11.3411 78.6 11.3816 78.523 11.446 78.4695C11.5105 78.4159 11.5936 78.3901 11.677 78.3978C11.7605 78.4055 11.8374 78.446 11.891 78.5105C12.2194 78.9001 12.5782 79.2631 12.964 79.5961C13.0266 79.6519 13.065 79.73 13.0709 79.8138C13.0768 79.8975 13.0498 79.9802 12.9956 80.0442C12.9651 80.0777 12.9281 80.1045 12.8868 80.1229C12.8456 80.1414 12.8009 80.1511 12.7557 80.1515Z" fill="#F5F5F5"/>
<path d="M27.7135 84.4817C27.632 84.4818 27.5536 84.4503 27.4947 84.3938C27.4359 84.3373 27.4012 84.2602 27.3979 84.1787C27.3963 84.1368 27.403 84.0949 27.4177 84.0556C27.4324 84.0162 27.4548 83.9802 27.4836 83.9496C27.5124 83.9191 27.547 83.8946 27.5854 83.8775C27.6238 83.8605 27.6652 83.8513 27.7072 83.8505C28.7636 83.8147 29.8172 83.7198 30.8631 83.5665C30.9041 83.5602 30.946 83.5621 30.9863 83.5721C31.0266 83.582 31.0645 83.5998 31.098 83.6244C31.1314 83.649 31.1596 83.68 31.181 83.7156C31.2025 83.7511 31.2167 83.7906 31.2228 83.8316C31.2338 83.9142 31.2123 83.9979 31.1629 84.065C31.1134 84.1321 31.0399 84.1774 30.9577 84.1914C29.895 84.3459 28.8246 84.4428 27.7514 84.4817H27.7135ZM24.5577 84.4186C23.4983 84.3371 22.4445 84.1938 21.4018 83.9894C21.3609 83.9826 21.3218 83.9676 21.2867 83.9454C21.2517 83.9231 21.2215 83.8941 21.198 83.8599C21.1744 83.8257 21.158 83.7872 21.1496 83.7466C21.1413 83.7059 21.1412 83.664 21.1494 83.6233C21.1662 83.5409 21.2145 83.4684 21.2841 83.4212C21.3537 83.3741 21.439 83.356 21.5218 83.3709C22.5496 83.5722 23.5888 83.7113 24.6334 83.7874C24.7171 83.7874 24.7974 83.8207 24.8566 83.8799C24.9158 83.939 24.949 84.0193 24.949 84.103C24.949 84.1867 24.9158 84.267 24.8566 84.3262C24.7974 84.3853 24.7171 84.4186 24.6334 84.4186H24.5577ZM34.0252 83.5286C33.9561 83.5283 33.8891 83.5052 33.8343 83.463C33.7796 83.4208 33.7402 83.3618 33.7223 83.2951C33.7107 83.2557 33.7072 83.2145 33.7118 83.1737C33.7163 83.1329 33.729 83.0935 33.7489 83.0577C33.7689 83.0218 33.7958 82.9903 33.8281 82.965C33.8603 82.9397 33.8973 82.921 33.9369 82.9101C34.943 82.6272 35.9262 82.2685 36.8781 81.8371C36.9153 81.8191 36.9557 81.8088 36.997 81.8067C37.0383 81.8046 37.0795 81.8108 37.1184 81.8249C37.1572 81.839 37.1928 81.8608 37.2231 81.8889C37.2534 81.917 37.2777 81.9509 37.2947 81.9886C37.3128 82.0263 37.3232 82.0671 37.3254 82.1089C37.3276 82.1506 37.3214 82.1924 37.3073 82.2317C37.2932 82.271 37.2715 82.3072 37.2433 82.338C37.2151 82.3689 37.1811 82.3939 37.1432 82.4115C36.1607 82.8562 35.1458 83.2254 34.1073 83.516L34.0252 83.5286ZM18.3407 83.1878C18.3073 83.1939 18.2731 83.1939 18.2397 83.1878C17.2172 82.8511 16.2248 82.4288 15.2732 81.9255C15.2054 81.8831 15.1562 81.8165 15.1357 81.7392C15.1151 81.662 15.1245 81.5798 15.1622 81.5093C15.1999 81.4388 15.2629 81.3852 15.3386 81.3593C15.4142 81.3335 15.4969 81.3373 15.5698 81.37C16.4911 81.8685 17.4515 82.2906 18.4416 82.6324C18.5253 82.6458 18.6003 82.6919 18.65 82.7605C18.6997 82.8292 18.7201 82.9148 18.7067 82.9985C18.6933 83.0822 18.6473 83.1571 18.5786 83.2068C18.51 83.2565 18.4244 83.2769 18.3407 83.2636V83.1878ZM39.8004 80.9156C39.7316 80.9149 39.6648 80.8917 39.6104 80.8495C39.5559 80.8073 39.5168 80.7485 39.4989 80.682C39.481 80.6154 39.4854 80.5449 39.5113 80.4811C39.5373 80.4173 39.5834 80.3638 39.6426 80.3286L42.4009 78.7381C42.4366 78.7121 42.4773 78.6939 42.5205 78.6847C42.5637 78.6754 42.6083 78.6754 42.6515 78.6845C42.6948 78.6936 42.7356 78.7117 42.7714 78.7375C42.8071 78.7634 42.8371 78.7965 42.8593 78.8347C42.8815 78.8729 42.8954 78.9153 42.9002 78.9592C42.905 79.0031 42.9005 79.0475 42.887 79.0895C42.8736 79.1316 42.8514 79.1703 42.822 79.2033C42.7926 79.2363 42.7567 79.2627 42.7164 79.2809L39.9582 80.8714C39.9048 80.9147 39.8376 80.9371 39.7689 80.9345L39.8004 80.9156ZM45.3169 77.7598C45.2608 77.7599 45.2058 77.7454 45.157 77.7177C45.1083 77.6901 45.0677 77.6502 45.0391 77.602C45.0132 77.5673 44.9947 77.5276 44.9847 77.4854C44.9748 77.4433 44.9736 77.3995 44.9813 77.3569C44.989 77.3143 45.0054 77.2737 45.0295 77.2377C45.0535 77.2016 45.0848 77.1709 45.1212 77.1475L47.8731 75.5507C47.9459 75.5098 48.032 75.4994 48.1125 75.5219C48.1929 75.5444 48.2612 75.5979 48.3023 75.6706C48.3236 75.7061 48.3377 75.7455 48.3435 75.7865C48.3493 75.8274 48.3469 75.8692 48.3363 75.9092C48.3257 75.9492 48.3072 75.9867 48.2818 76.0195C48.2565 76.0522 48.2248 76.0795 48.1887 76.0998L45.4368 77.6903C45.3912 77.7185 45.3389 77.7337 45.2853 77.7345L45.3169 77.7598ZM50.827 74.6039C50.7719 74.6036 50.7179 74.5888 50.6702 74.5612C50.6226 74.5335 50.5831 74.4938 50.5556 74.4461C50.5138 74.3731 50.5024 74.2866 50.5236 74.2052C50.5448 74.1238 50.5971 74.054 50.6692 74.0106L53.4211 72.4201C53.4952 72.3805 53.5817 72.3709 53.6627 72.3932C53.7438 72.4155 53.8131 72.468 53.8566 72.54C53.8975 72.6128 53.9078 72.6989 53.8853 72.7794C53.8628 72.8598 53.8094 72.9281 53.7367 72.9692L50.9848 74.5597C50.9246 74.577 50.8605 74.5748 50.8017 74.5534L50.827 74.6039ZM56.3371 71.4481C56.282 71.4477 56.228 71.433 56.1804 71.4053C56.1327 71.3776 56.0932 71.338 56.0657 71.2903C56.024 71.2172 56.0125 71.1308 56.0337 71.0494C56.055 70.968 56.1072 70.8981 56.1793 70.8548L58.9375 69.2642C58.9734 69.2431 59.0131 69.2294 59.0544 69.2241C59.0956 69.2187 59.1375 69.2217 59.1776 69.2329C59.2177 69.2441 59.2551 69.2632 59.2876 69.2892C59.3201 69.3152 59.347 69.3475 59.3667 69.3841C59.4081 69.4562 59.4194 69.5417 59.3981 69.6221C59.3769 69.7025 59.3247 69.7712 59.2531 69.8133L56.4823 71.3281C56.4283 71.3583 56.3673 71.3736 56.3055 71.3723L56.3371 71.4481ZM61.8472 68.2922C61.7919 68.2932 61.7373 68.279 61.6895 68.2512C61.6416 68.2234 61.6023 68.183 61.5758 68.1344C61.5344 68.0623 61.5231 67.9768 61.5444 67.8965C61.5656 67.8161 61.6178 67.7474 61.6894 67.7052L64.4476 66.1147C64.4831 66.0933 64.5225 66.0793 64.5635 66.0735C64.6045 66.0676 64.6462 66.0701 64.6862 66.0807C64.7263 66.0913 64.7638 66.1098 64.7965 66.1352C64.8292 66.1605 64.8565 66.1922 64.8768 66.2283C64.9185 66.3013 64.93 66.3878 64.9088 66.4692C64.8875 66.5506 64.8353 66.6204 64.7632 66.6638L62.005 68.2543C61.9363 68.2508 61.8703 68.2266 61.8156 68.1849L61.8472 68.2922ZM67.3573 65.1364C67.2884 65.1357 67.2217 65.1124 67.1672 65.0703C67.1128 65.0281 67.0736 64.9692 67.0558 64.9027C67.0379 64.8362 67.0423 64.7657 67.0682 64.7019C67.0942 64.6381 67.1403 64.5845 67.1995 64.5494L69.9577 62.9588C69.9932 62.9375 70.0326 62.9235 70.0736 62.9176C70.1146 62.9118 70.1563 62.9142 70.1964 62.9248C70.2364 62.9354 70.2739 62.9539 70.3066 62.9793C70.3393 63.0047 70.3667 63.0363 70.3869 63.0724C70.4286 63.1455 70.4401 63.2319 70.4189 63.3133C70.3976 63.3947 70.3454 63.4646 70.2733 63.5079L67.5151 65.0985C67.4435 65.0878 67.3772 65.0547 67.3257 65.0038L67.3573 65.1364ZM72.8737 61.9805C72.8049 61.9798 72.7381 61.9566 72.6837 61.9144C72.6292 61.8722 72.5901 61.8134 72.5722 61.7469C72.5543 61.6804 72.5587 61.6098 72.5846 61.546C72.6106 61.4822 72.6567 61.4287 72.7159 61.3935L75.4678 59.803C75.539 59.7708 75.6196 59.7662 75.694 59.79C75.7684 59.8138 75.8314 59.8644 75.8706 59.9319C75.9099 59.9995 75.9227 60.0792 75.9066 60.1556C75.8905 60.2321 75.8466 60.2998 75.7834 60.3458L73.0315 61.9426C72.9572 61.9239 72.8909 61.8818 72.8422 61.8227L72.8737 61.9805ZM78.3838 58.8247C78.3279 58.8242 78.2731 58.8094 78.2245 58.7818C78.1759 58.7542 78.1352 58.7146 78.1061 58.6669C78.0669 58.5937 78.0574 58.5082 78.0798 58.4282C78.1021 58.3482 78.1546 58.2799 78.2261 58.2377L80.9779 56.6471C81.0137 56.6212 81.0544 56.603 81.0976 56.5937C81.1408 56.5845 81.1854 56.5844 81.2286 56.5936C81.2718 56.6027 81.3127 56.6207 81.3484 56.6466C81.3842 56.6725 81.4142 56.7056 81.4364 56.7437C81.4586 56.7819 81.4725 56.8243 81.4773 56.8682C81.4821 56.9121 81.4776 56.9565 81.4641 56.9986C81.4506 57.0406 81.4285 57.0794 81.3991 57.1124C81.3697 57.1453 81.3338 57.1718 81.2935 57.1899L78.5416 58.7805C78.5023 58.7714 78.4652 58.7545 78.4326 58.7306C78.4001 58.7067 78.3727 58.6764 78.3523 58.6416L78.3838 58.8247ZM83.8939 55.6688C83.8251 55.6681 83.7583 55.6449 83.7039 55.6027C83.6494 55.5605 83.6103 55.5017 83.5924 55.4352C83.5745 55.3687 83.5789 55.2981 83.6048 55.2343C83.6308 55.1705 83.6769 55.117 83.7362 55.0818L86.4881 53.4913C86.5611 53.4496 86.6476 53.4381 86.729 53.4593C86.8104 53.4805 86.8802 53.5328 86.9236 53.6049C86.9645 53.6777 86.9748 53.7638 86.9523 53.8443C86.9298 53.9247 86.8764 53.993 86.8036 54.0341L84.0517 55.6246C84.0101 55.6127 83.9716 55.5919 83.9389 55.5635C83.9062 55.5352 83.8801 55.5 83.8624 55.4605L83.8939 55.6688ZM89.4041 52.513C89.3352 52.5123 89.2684 52.489 89.214 52.4469C89.1595 52.4047 89.1204 52.3458 89.1025 52.2793C89.0846 52.2128 89.089 52.1423 89.115 52.0785C89.1409 52.0147 89.187 51.9611 89.2463 51.926L92.0045 50.3291C92.0777 50.2899 92.1632 50.2805 92.2432 50.3028C92.3232 50.3252 92.3914 50.3775 92.4337 50.449C92.455 50.4845 92.469 50.5239 92.4749 50.5649C92.4807 50.6059 92.4783 50.6476 92.4677 50.6877C92.4571 50.7277 92.4386 50.7652 92.4132 50.7979C92.3878 50.8307 92.3562 50.858 92.3201 50.8782L89.5619 52.4688C89.5172 52.4552 89.4765 52.4309 89.4435 52.3978C89.4104 52.3648 89.3861 52.3241 89.3725 52.2794L89.4041 52.513ZM94.9142 49.3571C94.8591 49.3568 94.8051 49.342 94.7575 49.3144C94.7098 49.2867 94.6703 49.247 94.6428 49.1993C94.601 49.1263 94.5896 49.0398 94.6108 48.9584C94.632 48.877 94.6843 48.8072 94.7564 48.7638L97.5083 46.9145C97.5815 46.8753 97.667 46.8658 97.747 46.8882C97.827 46.9105 97.8952 46.9629 97.9375 47.0344C97.9588 47.0699 97.9729 47.1093 97.9787 47.1503C97.9845 47.1913 97.9821 47.233 97.9715 47.273C97.9609 47.3131 97.9424 47.3506 97.917 47.3833C97.8916 47.416 97.86 47.4433 97.8239 47.4636L95.0657 49.0542C95.0114 49.0893 94.9469 49.1048 94.8826 49.0983L94.9142 49.3571ZM100.424 46.2013C100.369 46.2009 100.315 46.1862 100.268 46.1585C100.22 46.1308 100.18 46.0912 100.153 46.0435C100.111 45.9704 100.1 45.884 100.121 45.8026C100.142 45.7212 100.194 45.6513 100.266 45.608L103.025 44.0174C103.06 43.9961 103.1 43.9821 103.141 43.9762C103.182 43.9704 103.223 43.9728 103.263 43.9834C103.303 43.994 103.341 44.0125 103.374 44.0379C103.406 44.0633 103.434 44.0949 103.454 44.131C103.496 44.2041 103.507 44.2905 103.486 44.3719C103.465 44.4533 103.412 44.5232 103.34 44.5665L100.582 46.1571C100.534 46.1342 100.492 46.1007 100.46 46.0591C100.427 46.0175 100.404 45.969 100.393 45.9172L100.424 46.2013ZM105.941 43.0454C105.885 43.0456 105.83 43.0311 105.781 43.0034C105.732 42.9757 105.692 42.9358 105.663 42.8876C105.622 42.8148 105.612 42.7287 105.634 42.6482C105.657 42.5678 105.71 42.4995 105.783 42.4584L108.535 40.8679C108.57 40.8465 108.61 40.8325 108.651 40.8267C108.692 40.8208 108.733 40.8233 108.773 40.8339C108.813 40.8445 108.851 40.863 108.884 40.8884C108.916 40.9137 108.944 40.9454 108.964 40.9815C109.006 41.0545 109.017 41.141 108.996 41.2224C108.975 41.3038 108.922 41.3736 108.85 41.417L106.098 43.0076C106.047 42.9802 106.002 42.9406 105.969 42.8922C105.936 42.8438 105.916 42.788 105.909 42.7298L105.941 43.0454ZM111.451 39.8896C111.395 39.8891 111.34 39.8744 111.291 39.8467C111.243 39.8191 111.202 39.7796 111.173 39.7318C111.134 39.6586 111.124 39.5731 111.147 39.4931C111.169 39.4131 111.222 39.3448 111.293 39.3026L114.045 37.712C114.118 37.6702 114.204 37.659 114.285 37.6809C114.366 37.7028 114.435 37.756 114.477 37.8288C114.519 37.9016 114.53 37.9881 114.508 38.0692C114.487 38.1502 114.433 38.2193 114.361 38.2612L111.609 39.8517C111.549 39.8255 111.497 39.7834 111.459 39.73C111.421 39.6767 111.399 39.614 111.394 39.5487L111.451 39.8896Z" fill="#F5F5F5"/>
<path d="M118.294 37.1564C118.211 37.1548 118.132 37.121 118.073 37.0622C118.014 37.0033 117.98 36.924 117.979 36.8408V35.8057L117.089 36.3232C117.053 36.3446 117.014 36.3586 116.973 36.3645C116.932 36.3703 116.89 36.3678 116.85 36.3573C116.81 36.3467 116.773 36.3281 116.74 36.3028C116.707 36.2774 116.68 36.2457 116.66 36.2096C116.618 36.1366 116.606 36.0501 116.628 35.9687C116.649 35.8873 116.701 35.8175 116.773 35.7741L118.137 34.9852C118.185 34.9573 118.24 34.9427 118.295 34.9429C118.351 34.9431 118.406 34.958 118.454 34.9863C118.502 35.0145 118.542 35.0549 118.569 35.1035C118.597 35.1521 118.611 35.2071 118.61 35.2629V36.8408C118.61 36.9245 118.577 37.0048 118.517 37.064C118.458 37.1231 118.378 37.1564 118.294 37.1564Z" fill="#F5F5F5"/>
<path d="M118.296 100.362C118.213 100.36 118.134 100.326 118.075 100.268C118.016 100.209 117.982 100.129 117.98 100.046V96.8904C117.98 96.8067 118.014 96.7264 118.073 96.6672C118.132 96.6081 118.212 96.5748 118.296 96.5748C118.38 96.5748 118.46 96.6081 118.519 96.6672C118.578 96.7264 118.612 96.8067 118.612 96.8904V100.046C118.612 100.13 118.578 100.21 118.519 100.269C118.46 100.329 118.38 100.362 118.296 100.362ZM118.296 94.0501C118.212 94.0501 118.132 94.0169 118.073 93.9577C118.014 93.8985 117.98 93.8182 117.98 93.7345V90.5787C117.982 90.4955 118.016 90.4162 118.075 90.3573C118.134 90.2985 118.213 90.2647 118.296 90.2631C118.38 90.2631 118.46 90.2964 118.519 90.3555C118.578 90.4147 118.612 90.495 118.612 90.5787V93.7345C118.608 93.816 118.574 93.8931 118.515 93.9496C118.456 94.0061 118.378 94.0376 118.296 94.0375V94.0501ZM118.296 87.7384C118.213 87.7368 118.134 87.703 118.075 87.6442C118.016 87.5854 117.982 87.506 117.98 87.4228V84.267C117.98 84.1833 118.014 84.103 118.073 84.0438C118.132 83.9847 118.212 83.9514 118.296 83.9514C118.38 83.9514 118.46 83.9847 118.519 84.0438C118.578 84.103 118.612 84.1833 118.612 84.267V87.4228C118.607 87.5032 118.571 87.5787 118.513 87.6339C118.454 87.689 118.377 87.7196 118.296 87.7195V87.7384ZM118.296 81.4267C118.212 81.4267 118.132 81.3935 118.073 81.3343C118.014 81.2751 117.98 81.1948 117.98 81.1111V77.9553C117.98 77.8716 118.014 77.7913 118.073 77.7322C118.132 77.673 118.212 77.6397 118.296 77.6397C118.38 77.6397 118.46 77.673 118.519 77.7322C118.578 77.7913 118.612 77.8716 118.612 77.9553V81.1111C118.604 81.1893 118.567 81.2617 118.509 81.3142C118.45 81.3667 118.375 81.3956 118.296 81.3952V81.4267ZM118.296 75.115C118.212 75.115 118.132 75.0818 118.073 75.0226C118.014 74.9634 117.98 74.8831 117.98 74.7994V71.6436C117.982 71.5604 118.016 71.4811 118.075 71.4222C118.134 71.3634 118.213 71.3296 118.296 71.328C118.38 71.328 118.46 71.3613 118.519 71.4205C118.578 71.4796 118.612 71.5599 118.612 71.6436V74.7994C118.602 74.8764 118.565 74.9473 118.507 74.9985C118.449 75.0497 118.374 75.0777 118.296 75.0772V75.115ZM118.296 68.8033C118.213 68.8017 118.134 68.768 118.075 68.7091C118.016 68.6503 117.982 68.5709 117.98 68.4878V65.3319C117.98 65.2482 118.014 65.1679 118.073 65.1088C118.132 65.0496 118.212 65.0163 118.296 65.0163C118.38 65.0163 118.46 65.0496 118.519 65.1088C118.578 65.1679 118.612 65.2482 118.612 65.3319V68.4878C118.601 68.5636 118.563 68.6329 118.505 68.6829C118.447 68.7328 118.373 68.7599 118.296 68.7592V68.8033ZM118.296 62.4916C118.212 62.4916 118.132 62.4584 118.073 62.3992C118.014 62.34 117.98 62.2598 117.98 62.1761V59.0202C117.98 58.9365 118.014 58.8562 118.073 58.7971C118.132 58.7379 118.212 58.7046 118.296 58.7046C118.38 58.7046 118.46 58.7379 118.519 58.7971C118.578 58.8562 118.612 58.9365 118.612 59.0202V62.1761C118.598 62.2496 118.559 62.3159 118.501 62.3633C118.444 62.4107 118.371 62.4361 118.296 62.4348V62.4916ZM118.296 56.1799C118.213 56.1783 118.134 56.1446 118.075 56.0857C118.016 56.0269 117.982 55.9476 117.98 55.8644V52.7085C117.98 52.6248 118.014 52.5445 118.073 52.4854C118.132 52.4262 118.212 52.3929 118.296 52.3929C118.38 52.3929 118.46 52.4262 118.519 52.4854C118.578 52.5445 118.612 52.6248 118.612 52.7085V55.8644C118.597 55.9367 118.557 56.0016 118.5 56.0477C118.442 56.0939 118.37 56.1183 118.296 56.1168V56.1799ZM118.296 49.8682C118.212 49.8682 118.132 49.835 118.073 49.7758C118.014 49.7166 117.98 49.6364 117.98 49.5527V46.3968C117.98 46.3131 118.014 46.2328 118.073 46.1737C118.132 46.1145 118.212 46.0812 118.296 46.0812C118.38 46.0812 118.46 46.1145 118.519 46.1737C118.578 46.2328 118.612 46.3131 118.612 46.3968V49.5527C118.594 49.6227 118.554 49.6847 118.496 49.7283C118.439 49.772 118.368 49.7946 118.296 49.7925V49.8682ZM118.296 43.5565C118.212 43.5565 118.132 43.5233 118.073 43.4641C118.014 43.4049 117.98 43.3247 117.98 43.241V40.0851C117.982 40.0019 118.016 39.9226 118.075 39.8638C118.134 39.8049 118.213 39.7711 118.296 39.7695C118.38 39.7695 118.46 39.8028 118.519 39.862C118.578 39.9211 118.612 40.0014 118.612 40.0851V43.241C118.593 43.3098 118.552 43.3704 118.495 43.4128C118.437 43.4552 118.367 43.4769 118.296 43.4745V43.5565Z" fill="#F5F5F5"/>
<path d="M116.933 105.885C116.865 105.884 116.798 105.861 116.743 105.819C116.689 105.776 116.65 105.718 116.632 105.651C116.614 105.585 116.618 105.514 116.644 105.45C116.67 105.386 116.716 105.333 116.776 105.298L117.981 104.597V103.202C117.983 103.119 118.017 103.04 118.075 102.981C118.134 102.922 118.214 102.888 118.297 102.887C118.38 102.887 118.461 102.92 118.52 102.979C118.579 103.038 118.612 103.119 118.612 103.202V104.78C118.613 104.836 118.599 104.892 118.571 104.941C118.543 104.989 118.503 105.03 118.455 105.058L117.072 105.847C117.029 105.869 116.982 105.882 116.933 105.885Z" fill="#F5F5F5"/>
<path d="M27.7252 154.005C27.6416 154.005 27.5613 153.972 27.5021 153.913C27.4429 153.853 27.4097 153.773 27.4097 153.689C27.4097 153.606 27.4429 153.525 27.5021 153.466C27.5613 153.407 27.6416 153.374 27.7252 153.374C28.782 153.339 29.8358 153.242 30.8811 153.084C30.9637 153.073 31.0474 153.094 31.1145 153.143C31.1816 153.193 31.2269 153.266 31.2409 153.349C31.2471 153.39 31.2452 153.432 31.2353 153.472C31.2254 153.512 31.2076 153.55 31.183 153.583C31.1583 153.617 31.1274 153.645 31.0918 153.667C31.0563 153.688 31.0168 153.702 30.9758 153.708C29.9135 153.868 28.843 153.967 27.7694 154.005H27.7252ZM24.5694 153.942C23.4995 153.861 22.4352 153.717 21.382 153.513C21.3001 153.497 21.2276 153.45 21.1803 153.382C21.133 153.313 21.1148 153.229 21.1295 153.147C21.1463 153.064 21.1947 152.992 21.2643 152.945C21.3339 152.897 21.4192 152.879 21.5019 152.894C22.5299 153.095 23.569 153.234 24.6136 153.311C24.6973 153.311 24.7776 153.344 24.8367 153.403C24.8959 153.462 24.9292 153.543 24.9292 153.626C24.9292 153.71 24.8959 153.79 24.8367 153.849C24.7776 153.909 24.6973 153.942 24.6136 153.942H24.5694ZM34.0369 153.046C33.9684 153.047 33.9015 153.025 33.8466 152.984C33.7918 152.943 33.7522 152.885 33.734 152.818C33.7224 152.779 33.7187 152.737 33.7232 152.696C33.7277 152.655 33.7403 152.615 33.7602 152.578C33.7802 152.542 33.8071 152.51 33.8394 152.484C33.8717 152.458 33.9088 152.439 33.9486 152.427C34.955 152.145 35.9383 151.787 36.8898 151.354C36.9274 151.336 36.9682 151.326 37.0098 151.325C37.0513 151.323 37.0928 151.33 37.1317 151.344C37.1705 151.359 37.2061 151.382 37.2361 151.41C37.2661 151.439 37.29 151.474 37.3064 151.512C37.3244 151.549 37.3347 151.59 37.3368 151.631C37.3389 151.672 37.3327 151.713 37.3186 151.752C37.3045 151.791 37.2827 151.827 37.2546 151.857C37.2265 151.887 37.1926 151.912 37.1549 151.928C36.1746 152.373 35.1618 152.742 34.1253 153.033C34.0853 153.049 34.0415 153.054 33.9991 153.046H34.0369ZM18.3524 152.711C18.319 152.717 18.2848 152.717 18.2514 152.711C17.2294 152.373 16.2372 151.951 15.2849 151.449C15.2171 151.406 15.168 151.34 15.1474 151.263C15.1268 151.185 15.1363 151.103 15.1739 151.033C15.2116 150.962 15.2746 150.908 15.3503 150.883C15.426 150.857 15.5086 150.861 15.5815 150.893C16.504 151.389 17.4643 151.811 18.4534 152.156C18.4948 152.162 18.5345 152.177 18.5703 152.199C18.606 152.221 18.6371 152.25 18.6617 152.284C18.6863 152.318 18.704 152.356 18.7138 152.397C18.7235 152.438 18.7251 152.48 18.7185 152.522C18.7118 152.563 18.6971 152.603 18.6751 152.639C18.6531 152.674 18.6243 152.706 18.5903 152.73C18.5563 152.755 18.5178 152.772 18.477 152.782C18.4362 152.792 18.3938 152.793 18.3524 152.787V152.711ZM39.8121 150.433C39.7433 150.432 39.6765 150.409 39.6221 150.367C39.5676 150.324 39.5285 150.265 39.5106 150.199C39.4927 150.132 39.4971 150.062 39.523 149.998C39.549 149.934 39.5951 149.881 39.6544 149.846L42.4126 148.255C42.4838 148.223 42.5644 148.218 42.6388 148.242C42.7132 148.266 42.7761 148.316 42.8154 148.384C42.8546 148.452 42.8674 148.531 42.8513 148.608C42.8352 148.684 42.7913 148.752 42.7282 148.798L39.9321 150.363C39.8879 150.402 39.8328 150.426 39.7743 150.433H39.8121ZM45.3286 147.277C45.2724 147.278 45.2171 147.263 45.1683 147.236C45.1195 147.208 45.0789 147.168 45.0509 147.119C45.0298 147.083 45.0161 147.043 45.0107 147.002C45.0053 146.961 45.0083 146.919 45.0195 146.879C45.0307 146.839 45.0499 146.801 45.0759 146.769C45.1019 146.736 45.1341 146.709 45.1708 146.69L47.9227 145.099C47.9584 145.073 47.9992 145.055 48.0423 145.046C48.0855 145.037 48.1302 145.037 48.1734 145.046C48.2166 145.055 48.2574 145.073 48.2932 145.099C48.329 145.125 48.3589 145.158 48.3811 145.196C48.4033 145.234 48.4172 145.276 48.422 145.32C48.4268 145.364 48.4223 145.409 48.4088 145.451C48.3954 145.493 48.3732 145.531 48.3439 145.564C48.3145 145.597 48.2785 145.624 48.2383 145.642L45.4485 147.207C45.4011 147.237 45.3464 147.252 45.2907 147.252L45.3286 147.277ZM50.8387 144.121C50.7827 144.121 50.7276 144.107 50.6789 144.079C50.6302 144.051 50.5895 144.011 50.561 143.963C50.5201 143.89 50.5097 143.804 50.5322 143.724C50.5547 143.643 50.6082 143.575 50.6809 143.534L53.4328 141.937C53.5069 141.897 53.5934 141.888 53.6745 141.91C53.7555 141.932 53.8249 141.985 53.8683 142.057C53.9075 142.13 53.917 142.216 53.8946 142.296C53.8723 142.376 53.8199 142.444 53.7484 142.486L50.9586 144.051C50.907 144.066 50.8524 144.066 50.8008 144.051L50.8387 144.121ZM56.3488 140.965C56.2937 140.965 56.2397 140.95 56.1921 140.922C56.1445 140.895 56.1049 140.855 56.0774 140.807C56.0357 140.734 56.0242 140.648 56.0454 140.566C56.0667 140.485 56.1189 140.415 56.191 140.372L58.9429 138.781C59.0167 138.74 59.1037 138.73 59.1852 138.752C59.2667 138.774 59.3361 138.828 59.3784 138.901C59.4193 138.974 59.4296 139.06 59.4071 139.141C59.3847 139.221 59.3312 139.289 59.2585 139.33L56.4813 140.845C56.431 140.879 56.3716 140.897 56.3109 140.896L56.3488 140.965ZM61.8589 137.809C61.8038 137.809 61.7498 137.794 61.7022 137.766C61.6546 137.739 61.615 137.699 61.5875 137.651C61.5458 137.578 61.5343 137.492 61.5555 137.41C61.5768 137.329 61.629 137.259 61.7011 137.216L64.4593 135.625C64.5322 135.584 64.6186 135.572 64.6997 135.594C64.7808 135.616 64.8498 135.669 64.8917 135.742C64.9335 135.815 64.9447 135.901 64.9228 135.982C64.9009 136.064 64.8477 136.133 64.7749 136.174L62.0167 137.765C61.9504 137.776 61.8824 137.767 61.821 137.74L61.8589 137.809ZM67.369 134.622C67.3137 134.623 67.2591 134.609 67.2113 134.581C67.1634 134.553 67.1241 134.513 67.0976 134.464C67.0562 134.392 67.0449 134.306 67.0662 134.226C67.0875 134.146 67.1396 134.077 67.2112 134.035L69.9694 132.444C70.0423 132.402 70.1287 132.391 70.2098 132.413C70.2909 132.435 70.3599 132.488 70.4018 132.561C70.4436 132.634 70.4548 132.72 70.4329 132.801C70.4111 132.882 70.3578 132.952 70.285 132.993L67.5268 134.584C67.4566 134.584 67.3883 134.561 67.3312 134.521L67.369 134.622ZM72.8791 131.466C72.8241 131.466 72.77 131.451 72.7224 131.423C72.6748 131.396 72.6353 131.356 72.6077 131.308C72.5663 131.236 72.555 131.151 72.5763 131.07C72.5976 130.99 72.6497 130.921 72.7213 130.879L75.4796 129.288C75.5153 129.262 75.556 129.244 75.5992 129.235C75.6424 129.226 75.687 129.226 75.7302 129.235C75.7735 129.244 75.8143 129.262 75.8501 129.288C75.8858 129.314 75.9158 129.347 75.938 129.385C75.9602 129.423 75.9741 129.466 75.9789 129.51C75.9837 129.553 75.9792 129.598 75.9657 129.64C75.9523 129.682 75.9301 129.721 75.9007 129.754C75.8713 129.787 75.8354 129.813 75.7951 129.831L73.0369 131.428C72.9635 131.422 72.8945 131.391 72.8413 131.34L72.8791 131.466ZM78.3956 128.31C78.3267 128.309 78.2599 128.286 78.2055 128.244C78.151 128.202 78.1119 128.143 78.094 128.076C78.0761 128.01 78.0805 127.939 78.1065 127.876C78.1324 127.812 78.1785 127.758 78.2378 127.723L80.9897 126.133C81.0254 126.107 81.0661 126.088 81.1093 126.079C81.1525 126.07 81.1971 126.07 81.2403 126.079C81.2836 126.088 81.3244 126.106 81.3602 126.132C81.3959 126.158 81.4259 126.191 81.4481 126.229C81.4703 126.267 81.4842 126.31 81.489 126.354C81.4938 126.398 81.4893 126.442 81.4758 126.484C81.4624 126.526 81.4402 126.565 81.4109 126.598C81.3815 126.631 81.3455 126.657 81.3052 126.675L78.5533 128.266C78.4766 128.257 78.4065 128.218 78.3577 128.159L78.3956 128.31ZM83.9057 125.154C83.8368 125.154 83.77 125.13 83.7156 125.088C83.6612 125.046 83.622 124.987 83.6041 124.921C83.5863 124.854 83.5906 124.784 83.6166 124.72C83.6425 124.656 83.6886 124.602 83.7479 124.567L86.4998 122.977C86.5355 122.951 86.5762 122.933 86.6194 122.923C86.6626 122.914 86.7073 122.914 86.7505 122.923C86.7937 122.932 86.8345 122.95 86.8703 122.976C86.9061 123.002 86.936 123.035 86.9582 123.073C86.9804 123.112 86.9943 123.154 86.9991 123.198C87.0039 123.242 86.9994 123.286 86.9859 123.328C86.9725 123.37 86.9503 123.409 86.921 123.442C86.8916 123.475 86.8556 123.501 86.8154 123.52L84.0635 125.11C84.0235 125.103 83.9855 125.087 83.9519 125.064C83.9182 125.041 83.8896 125.012 83.8678 124.978L83.9057 125.154ZM89.4158 121.998C89.3469 121.998 89.2802 121.974 89.2257 121.932C89.1713 121.89 89.1321 121.831 89.1142 121.765C89.0964 121.698 89.1007 121.628 89.1267 121.564C89.1526 121.5 89.1987 121.447 89.258 121.411L92.0162 119.821C92.0519 119.795 92.0927 119.777 92.1359 119.767C92.179 119.758 92.2237 119.758 92.2669 119.767C92.3101 119.776 92.3509 119.794 92.3867 119.82C92.4225 119.846 92.4524 119.879 92.4746 119.917C92.4968 119.956 92.5108 119.998 92.5155 120.042C92.5203 120.086 92.5158 120.13 92.5024 120.172C92.4889 120.214 92.4668 120.253 92.4374 120.286C92.408 120.319 92.372 120.345 92.3318 120.364L89.5736 121.954C89.5314 121.944 89.492 121.924 89.4582 121.897C89.4244 121.87 89.397 121.835 89.3779 121.796L89.4158 121.998ZM94.9259 118.843C94.8708 118.842 94.8168 118.827 94.7692 118.8C94.7216 118.772 94.682 118.732 94.6545 118.685C94.6128 118.612 94.6013 118.525 94.6225 118.444C94.6438 118.362 94.696 118.293 94.7681 118.249L97.5263 116.659C97.5995 116.619 97.685 116.61 97.765 116.632C97.845 116.655 97.9132 116.707 97.9555 116.779C97.9769 116.814 97.9909 116.854 97.9967 116.894C98.0026 116.935 98.0001 116.977 97.9895 117.017C97.9789 117.057 97.9604 117.095 97.935 117.128C97.9097 117.16 97.878 117.188 97.8419 117.208L95.0837 118.798C95.0385 118.786 94.997 118.763 94.9629 118.731C94.9288 118.699 94.9031 118.66 94.888 118.615L94.9259 118.843ZM100.436 115.687C100.381 115.686 100.327 115.672 100.279 115.644C100.232 115.616 100.192 115.577 100.165 115.529C100.123 115.456 100.111 115.369 100.133 115.288C100.154 115.207 100.206 115.137 100.278 115.093L103.036 113.503C103.109 113.461 103.196 113.45 103.277 113.472C103.358 113.494 103.427 113.547 103.469 113.62C103.511 113.692 103.522 113.779 103.5 113.86C103.478 113.941 103.425 114.01 103.352 114.052L100.594 115.643C100.546 115.628 100.502 115.601 100.468 115.565C100.433 115.528 100.409 115.483 100.398 115.434L100.436 115.687ZM105.946 112.531C105.891 112.531 105.837 112.516 105.789 112.488C105.742 112.46 105.702 112.421 105.675 112.373C105.633 112.3 105.622 112.214 105.643 112.132C105.664 112.051 105.716 111.981 105.788 111.938L108.547 110.347C108.582 110.326 108.621 110.312 108.662 110.306C108.703 110.3 108.745 110.302 108.785 110.313C108.825 110.324 108.863 110.342 108.895 110.367C108.928 110.393 108.955 110.425 108.976 110.461C109.017 110.534 109.029 110.62 109.008 110.702C108.986 110.783 108.934 110.853 108.862 110.896L106.104 112.487C106.055 112.466 106.011 112.435 105.977 112.394C105.943 112.353 105.92 112.305 105.908 112.253L105.946 112.531ZM111.463 109.343C111.407 109.344 111.351 109.329 111.303 109.301C111.254 109.274 111.213 109.234 111.185 109.186C111.146 109.112 111.136 109.027 111.159 108.947C111.181 108.867 111.233 108.799 111.305 108.756L114.057 107.166C114.13 107.124 114.216 107.113 114.298 107.134C114.379 107.155 114.449 107.207 114.492 107.28C114.532 107.354 114.541 107.44 114.519 107.521C114.497 107.602 114.444 107.672 114.372 107.715L111.62 109.306C111.572 109.283 111.529 109.249 111.495 109.208C111.462 109.166 111.437 109.118 111.425 109.066L111.463 109.343Z" fill="#F5F5F5"/>
<path d="M12.7577 149.669C12.6816 149.668 12.6079 149.642 12.5494 149.593C12.1389 149.238 11.757 148.852 11.407 148.438C11.3551 148.372 11.3301 148.29 11.3371 148.206C11.3441 148.123 11.3827 148.046 11.4449 147.99C11.5105 147.937 11.5942 147.912 11.6779 147.92C11.7617 147.929 11.8389 147.969 11.893 148.034C12.2214 148.424 12.5802 148.787 12.966 149.12C12.9975 149.146 13.0234 149.179 13.0421 149.216C13.0608 149.253 13.072 149.293 13.0749 149.334C13.0779 149.375 13.0725 149.416 13.0592 149.455C13.046 149.495 13.025 149.531 12.9975 149.561C12.9682 149.596 12.9314 149.624 12.8899 149.642C12.8483 149.661 12.8032 149.67 12.7577 149.669Z" fill="#F5F5F5"/>
<path d="M102.592 30.9646V21.4528C102.571 21.0648 102.459 20.6872 102.265 20.3505C102.071 20.0139 101.8 19.7277 101.475 19.5151C101.601 19.5663 101.708 19.6537 101.783 19.7661C101.859 19.8785 101.899 20.0109 101.899 20.1463C101.899 20.2818 101.859 20.4141 101.783 20.5265C101.708 20.639 101.601 20.7263 101.475 20.7775L14.582 70.9744C14.9992 71.7036 15.5519 72.3463 16.2105 72.8679C17.0629 73.5185 17.9912 74.0631 18.975 74.49C21.5576 75.4964 24.3232 75.948 27.0918 75.8155L101.481 32.8959C101.805 32.6833 102.074 32.3978 102.267 32.0624C102.46 31.7269 102.571 31.3509 102.592 30.9646Z" fill="#E0E0E0"/>
<path d="M101.475 19.5152L101.09 19.2943C100.744 19.1201 100.363 19.0293 99.9759 19.0293C99.5889 19.0293 99.2073 19.1201 98.8618 19.2943L14.0074 68.3109C13.9223 69.2447 14.1226 70.1822 14.5817 70.9997L101.475 20.8091C101.611 20.764 101.729 20.6772 101.813 20.5611C101.897 20.4449 101.942 20.3054 101.942 20.1621C101.942 20.0189 101.897 19.8794 101.813 19.7632C101.729 19.6471 101.611 19.5603 101.475 19.5152Z" fill="#EBEBEB"/>
<path d="M107.828 24.4696C107.806 24.0829 107.693 23.7069 107.499 23.3716C107.305 23.0363 107.035 22.7509 106.711 22.5382L106.326 22.3173C105.98 22.143 105.597 22.0522 105.209 22.0522C104.821 22.0522 104.439 22.143 104.092 22.3173L16.3594 72.9876C17.181 73.594 18.0681 74.1064 19.004 74.515C23.6809 76.4654 30.365 76.2697 35.3323 74.0227C36.1465 73.6567 37.3899 72.9371 38.16 72.4953L107.828 32.2519V24.4696Z" fill="#E0E0E0"/>
<path d="M18.9409 74.5026L106.711 23.8259C106.837 23.7748 106.944 23.6874 107.02 23.575C107.095 23.4626 107.136 23.3302 107.136 23.1948C107.136 23.0593 107.095 22.927 107.02 22.8145C106.944 22.7021 106.837 22.6148 106.711 22.5636L106.326 22.3427C105.98 22.1684 105.597 22.0776 105.209 22.0776C104.821 22.0776 104.439 22.1684 104.092 22.3427L16.3594 73.013C17.1637 73.6011 18.0292 74.1005 18.9409 74.5026Z" fill="#EBEBEB"/>
<path d="M113.063 27.4932C113.043 27.106 112.931 26.729 112.737 26.3933C112.543 26.0576 112.272 25.7727 111.946 25.5619L111.561 25.3346C111.214 25.1604 110.832 25.0696 110.444 25.0696C110.056 25.0696 109.673 25.1604 109.327 25.3346L22.4336 75.5063C26.7765 76.2712 31.2481 75.7558 35.3031 74.0231C36.1174 73.657 37.3608 72.9375 38.1308 72.4957L113.063 29.229V27.4932Z" fill="#E0E0E0"/>
<path d="M111.946 25.5619L111.561 25.3346C111.214 25.1604 110.832 25.0696 110.444 25.0696C110.056 25.0696 109.673 25.1604 109.327 25.3346L22.4336 75.5063C23.9702 75.7812 25.5315 75.8934 27.0916 75.8408L111.946 26.8494C112.08 26.8029 112.196 26.716 112.278 26.6006C112.36 26.4852 112.404 26.3472 112.404 26.2057C112.404 26.0641 112.36 25.9261 112.278 25.8107C112.196 25.6954 112.08 25.6084 111.946 25.5619Z" fill="#EBEBEB"/>
<path d="M134.001 54.6967V73.2721C133.98 73.6584 133.868 74.0344 133.675 74.3699C133.482 74.7053 133.214 74.9908 132.89 75.2034L98.9965 94.7697H98.9334C96.3708 96.2277 94.0481 96.4171 92.3502 95.5397C91.8327 95.2746 89.8256 94.1196 89.3585 93.804C87.8248 92.8131 86.8906 90.8564 86.8906 88.1235C86.8906 82.443 90.8733 75.5443 95.8785 72.3442L127.645 54.0088L127.809 53.8952C128.257 53.5354 128.201 53.0431 127.645 52.7212L123.53 50.3417V47.3184L132.884 52.7212C133.177 52.9129 133.425 53.1645 133.613 53.4593C133.802 53.7542 133.925 54.0855 133.976 54.4316C133.993 54.5189 134.002 54.6077 134.001 54.6967Z" fill="#D4B139"/>
<path opacity="0.3" d="M134.001 54.6967V73.2721C133.98 73.6584 133.868 74.0344 133.675 74.3699C133.482 74.7053 133.214 74.9908 132.89 75.2034L98.9965 94.7697H98.9334C96.3708 96.2277 94.0481 96.4171 92.3502 95.5397C91.8327 95.2746 89.8256 94.1196 89.3585 93.804C87.8248 92.8131 86.8906 90.8564 86.8906 88.1235C86.8906 82.443 90.8733 75.5443 95.8785 72.3442L127.645 54.0088L127.809 53.8952C128.257 53.5354 128.201 53.0431 127.645 52.7212L123.53 50.3417V47.3184L132.884 52.7212C133.177 52.9129 133.425 53.1645 133.613 53.4593C133.802 53.7542 133.925 54.0855 133.976 54.4316C133.993 54.5189 134.002 54.6077 134.001 54.6967Z" fill="black"/>
<path d="M133.998 54.6964V73.2718C133.977 73.6581 133.866 74.0341 133.673 74.3696C133.48 74.705 133.211 74.9905 132.888 75.2031L98.9937 94.7694H98.9306C95.5917 96.6629 92.6568 96.4168 90.9779 94.4538C89.9328 93.071 89.4117 91.3624 89.5072 89.6317C89.5072 83.7871 93.755 76.6043 98.9748 73.5747L131.366 54.8795L132.869 54.0148C133.418 53.6929 133.872 53.8822 133.961 54.4377C133.982 54.5224 133.994 54.6091 133.998 54.6964Z" fill="#D4B139"/>
<path d="M97.3594 85.138C97.3594 87.6627 99.114 88.6536 101.285 87.4039C102.428 86.6598 103.38 85.6563 104.062 84.4751C104.744 83.2939 105.138 81.9683 105.211 80.6062C105.211 78.0815 103.45 77.0843 101.285 78.3403C100.142 79.0841 99.19 80.0875 98.5078 81.2688C97.8256 82.4501 97.4321 83.7758 97.3594 85.138Z" fill="#E6E6E6"/>
<path d="M105.35 78.8072L104.182 78.1382L98.5078 87.6751L99.8396 88.4452L105.35 78.8072Z" fill="#E6E6E6"/>
<path d="M98.668 85.895C98.668 88.4197 100.429 89.4106 102.594 88.1609C103.737 87.4154 104.689 86.4107 105.371 85.2285C106.053 84.0463 106.446 82.7198 106.52 81.3569C106.52 78.8322 104.765 77.8413 102.594 79.091C101.452 79.8376 100.501 80.8425 99.819 82.0245C99.137 83.2065 98.7427 84.5324 98.668 85.895Z" fill="white"/>
<path d="M119.985 5.04047L5.92527 158.286C4.15107 160.67 4.64519 164.04 7.02894 165.814L7.02895 165.814C9.41269 167.589 12.7834 167.095 14.5576 164.711L128.617 11.4654C130.391 9.08168 129.897 5.71099 127.513 3.93678C125.129 2.16258 121.759 2.65672 119.985 5.04047Z" fill="#D4B139"/>
<path d="M5.92527 158.286L119.985 5.04047C121.759 2.65673 125.129 2.16258 127.513 3.93678L127.513 3.93679C129.897 5.71099 130.391 9.08168 128.617 11.4654L14.5576 164.711C12.7834 167.095 9.41269 167.589 7.02895 165.814L7.02894 165.814C4.64519 164.04 4.15107 160.67 5.92527 158.286Z" stroke="white" stroke-width="5"/>
</svg>
