<svg width="148" height="106" viewBox="0 0 148 106" fill="none" xmlns="http://www.w3.org/2000/svg">
<g clip-path="url(#clip0_1_38)">
<path d="M23.2639 25.6943C22.9435 25.6728 22.6431 25.5277 22.4237 25.2883C22.2042 25.049 22.082 24.7333 22.082 24.4053C22.082 24.0773 22.2042 23.7616 22.4237 23.5223C22.6431 23.2829 22.9435 23.1378 23.2639 23.1164C26.355 23.1164 28.9596 18.5954 28.9596 13.2408C28.9806 12.9135 29.1227 12.6067 29.357 12.3824C29.5913 12.1582 29.9004 12.0335 30.2215 12.0335C30.5425 12.0335 30.8516 12.1582 31.0859 12.3824C31.3202 12.6067 31.4623 12.9135 31.4833 13.2408C31.4833 20.2238 27.8843 25.6943 23.2639 25.6943Z" fill="#D4B139"/>
<path d="M42.3342 25.6943C42.0139 25.6728 41.7135 25.5277 41.494 25.2883C41.2745 25.049 41.1523 24.7333 41.1523 24.4053C41.1523 24.0773 41.2745 23.7616 41.494 23.5223C41.7135 23.2829 42.0139 23.1378 42.3342 23.1164C45.4253 23.1164 48.03 18.5954 48.03 13.2408C48.0509 12.9135 48.193 12.6067 48.4273 12.3824C48.6617 12.1582 48.9707 12.0335 49.2918 12.0335C49.6128 12.0335 49.9219 12.1582 50.1562 12.3824C50.3905 12.6067 50.5326 12.9135 50.5536 13.2408C50.5806 20.2238 46.9438 25.6943 42.3342 25.6943Z" fill="#D4B139"/>
<path d="M61.3928 25.6943C61.0725 25.6728 60.772 25.5277 60.5526 25.2883C60.3331 25.049 60.2109 24.7333 60.2109 24.4053C60.2109 24.0773 60.3331 23.7616 60.5526 23.5223C60.772 23.2829 61.0725 23.1378 61.3928 23.1163C64.4785 23.1163 67.0886 18.5953 67.0886 13.2408C67.0886 12.8997 67.2212 12.5725 67.4573 12.3313C67.6935 12.0901 68.0137 11.9546 68.3477 11.9546C68.6816 11.9546 69.0019 12.0901 69.238 12.3313C69.4741 12.5725 69.6068 12.8997 69.6068 13.2408C69.623 20.2238 66.0186 25.6943 61.3928 25.6943Z" fill="#D4B139"/>
<path d="M80.476 25.6943C80.3034 25.7058 80.1303 25.681 79.9674 25.6215C79.8045 25.5619 79.6552 25.4689 79.529 25.3481C79.4027 25.2272 79.302 25.0812 79.2332 24.9191C79.1644 24.7569 79.1289 24.582 79.1289 24.4053C79.1289 24.2286 79.1644 24.0537 79.2332 23.8915C79.302 23.7294 79.4027 23.5834 79.529 23.4625C79.6552 23.3417 79.8045 23.2487 79.9674 23.1891C80.1303 23.1296 80.3034 23.1048 80.476 23.1163C83.5617 23.1163 86.1717 18.5953 86.1717 13.2408C86.1717 12.8997 86.3044 12.5725 86.5405 12.3313C86.7767 12.0901 87.0969 11.9546 87.4309 11.9546C87.7648 11.9546 88.0851 12.0901 88.3212 12.3313C88.5573 12.5725 88.69 12.8997 88.69 13.2408C88.69 20.2238 85.0802 25.6943 80.476 25.6943Z" fill="#D4B139"/>
<path d="M99.5413 25.6943C99.2209 25.6728 98.9205 25.5277 98.701 25.2883C98.4815 25.049 98.3594 24.7333 98.3594 24.4053C98.3594 24.0773 98.4815 23.7616 98.701 23.5223C98.9205 23.2829 99.2209 23.1378 99.5413 23.1164C102.632 23.1164 105.237 18.5954 105.237 13.2408C105.258 12.9135 105.4 12.6067 105.634 12.3824C105.869 12.1582 106.178 12.0335 106.499 12.0335C106.82 12.0335 107.129 12.1582 107.363 12.3824C107.598 12.6067 107.74 12.9135 107.761 13.2408C107.761 20.2238 104.151 25.6943 99.5413 25.6943Z" fill="#D4B139"/>
<path d="M118.612 25.6943C118.291 25.6728 117.991 25.5277 117.771 25.2883C117.552 25.049 117.43 24.7333 117.43 24.4053C117.43 24.0773 117.552 23.7616 117.771 23.5223C117.991 23.2829 118.291 23.1378 118.612 23.1164C121.697 23.1164 124.307 18.5954 124.307 13.2408C124.328 12.9135 124.47 12.6067 124.705 12.3824C124.939 12.1582 125.248 12.0335 125.569 12.0335C125.89 12.0335 126.199 12.1582 126.434 12.3824C126.668 12.6067 126.81 12.9135 126.831 13.2408C126.831 20.2238 123.221 25.6943 118.612 25.6943Z" fill="#D4B139"/>
<g opacity="0.3">
<path d="M23.262 25.6943C22.9416 25.6728 22.6412 25.5277 22.4217 25.2883C22.2022 25.049 22.0801 24.7333 22.0801 24.4053C22.0801 24.0773 22.2022 23.7616 22.4217 23.5223C22.6412 23.2829 22.9416 23.1378 23.262 23.1164C26.353 23.1164 28.9577 18.5954 28.9577 13.2408C28.9787 12.9135 29.1207 12.6067 29.3551 12.3824C29.5894 12.1582 29.8984 12.0335 30.2195 12.0335C30.5406 12.0335 30.8496 12.1582 31.0839 12.3824C31.3183 12.6067 31.4603 12.9135 31.4813 13.2408C31.4813 20.2238 27.8823 25.6943 23.262 25.6943Z" fill="black"/>
<path d="M42.3323 25.6943C42.0119 25.6728 41.7115 25.5277 41.492 25.2883C41.2725 25.049 41.1504 24.7333 41.1504 24.4053C41.1504 24.0773 41.2725 23.7616 41.492 23.5223C41.7115 23.2829 42.0119 23.1378 42.3323 23.1164C45.4233 23.1164 48.028 18.5954 48.028 13.2408C48.049 12.9135 48.191 12.6067 48.4254 12.3824C48.6597 12.1582 48.9688 12.0335 49.2898 12.0335C49.6109 12.0335 49.9199 12.1582 50.1543 12.3824C50.3886 12.6067 50.5307 12.9135 50.5516 13.2408C50.5786 20.2238 46.9418 25.6943 42.3323 25.6943Z" fill="black"/>
<path d="M61.3831 25.6943C61.0627 25.6728 60.7623 25.5277 60.5428 25.2883C60.3233 25.049 60.2012 24.7333 60.2012 24.4053C60.2012 24.0773 60.3233 23.7616 60.5428 23.5223C60.7623 23.2829 61.0627 23.1378 61.3831 23.1163C64.4687 23.1163 67.0788 18.5953 67.0788 13.2408C67.0788 12.8997 67.2114 12.5725 67.4476 12.3313C67.6837 12.0901 68.004 11.9546 68.3379 11.9546C68.6718 11.9546 68.9921 12.0901 69.2282 12.3313C69.4643 12.5725 69.597 12.8997 69.597 13.2408C69.6132 20.2238 66.0088 25.6943 61.3831 25.6943Z" fill="black"/>
<path d="M80.4702 25.6943C80.2975 25.7058 80.1244 25.681 79.9615 25.6215C79.7986 25.5619 79.6494 25.4689 79.5231 25.3481C79.3968 25.2272 79.2962 25.0812 79.2274 24.9191C79.1586 24.7569 79.123 24.582 79.123 24.4053C79.123 24.2286 79.1586 24.0537 79.2274 23.8915C79.2962 23.7294 79.3968 23.5834 79.5231 23.4625C79.6494 23.3417 79.7986 23.2487 79.9615 23.1891C80.1244 23.1296 80.2975 23.1048 80.4702 23.1163C83.5558 23.1163 86.1659 18.5953 86.1659 13.2408C86.1659 12.8997 86.2986 12.5725 86.5347 12.3313C86.7708 12.0901 87.0911 11.9546 87.425 11.9546C87.7589 11.9546 88.0792 12.0901 88.3153 12.3313C88.5515 12.5725 88.6841 12.8997 88.6841 13.2408C88.6841 20.2238 85.0743 25.6943 80.4702 25.6943Z" fill="black"/>
<path d="M99.5354 25.6943C99.215 25.6728 98.9146 25.5277 98.6951 25.2883C98.4756 25.049 98.3535 24.7333 98.3535 24.4053C98.3535 24.0773 98.4756 23.7616 98.6951 23.5223C98.9146 23.2829 99.215 23.1378 99.5354 23.1164C102.626 23.1164 105.231 18.5954 105.231 13.2408C105.252 12.9135 105.394 12.6067 105.628 12.3824C105.863 12.1582 106.172 12.0335 106.493 12.0335C106.814 12.0335 107.123 12.1582 107.357 12.3824C107.592 12.6067 107.734 12.9135 107.755 13.2408C107.755 20.2238 104.145 25.6943 99.5354 25.6943Z" fill="black"/>
<path d="M118.606 25.6943C118.285 25.6728 117.985 25.5277 117.765 25.2883C117.546 25.049 117.424 24.7333 117.424 24.4053C117.424 24.0773 117.546 23.7616 117.765 23.5223C117.985 23.2829 118.285 23.1378 118.606 23.1164C121.691 23.1164 124.301 18.5954 124.301 13.2408C124.322 12.9135 124.464 12.6067 124.699 12.3824C124.933 12.1582 125.242 12.0335 125.563 12.0335C125.884 12.0335 126.193 12.1582 126.428 12.3824C126.662 12.6067 126.804 12.9135 126.825 13.2408C126.825 20.2238 123.215 25.6943 118.606 25.6943Z" fill="black"/>
</g>
<path d="M11.3174 14.5601H134.083C135.729 14.5937 137.307 15.2398 138.52 16.3771C139.732 17.5144 140.497 19.0647 140.671 20.7371L147.469 99.0295C147.552 99.8151 147.47 100.61 147.23 101.361C146.989 102.112 146.596 102.802 146.074 103.386C145.553 103.97 144.917 104.434 144.207 104.748C143.497 105.062 142.73 105.218 141.957 105.207H19.1855C17.5401 105.171 15.964 104.524 14.7516 103.387C13.5393 102.25 12.7737 100.701 12.5981 99.0295L5.80539 20.7371C5.72179 19.9514 5.8027 19.1564 6.04274 18.405C6.28279 17.6537 6.67649 16.963 7.19773 16.3789C7.71897 15.7947 8.35583 15.3305 9.06608 15.0169C9.77633 14.7033 10.5437 14.5476 11.3174 14.5601Z" fill="#D4B139"/>
<path opacity="0.4" d="M11.3174 14.5601H134.083C135.729 14.5937 137.307 15.2398 138.52 16.3771C139.732 17.5144 140.497 19.0647 140.671 20.7371L147.469 99.0295C147.552 99.8151 147.47 100.61 147.23 101.361C146.989 102.112 146.596 102.802 146.074 103.386C145.553 103.97 144.917 104.434 144.207 104.748C143.497 105.062 142.73 105.218 141.957 105.207H19.1855C17.5401 105.171 15.964 104.524 14.7516 103.387C13.5393 102.25 12.7737 100.701 12.5981 99.0295L5.80539 20.7371C5.72179 19.9514 5.8027 19.1564 6.04274 18.405C6.28279 17.6537 6.67649 16.963 7.19773 16.3789C7.71897 15.7947 8.35583 15.3305 9.06608 15.0169C9.77633 14.7033 10.5437 14.5476 11.3174 14.5601Z" fill="#FAFAFA"/>
<path d="M133.06 14.5601H10.2891C8.66516 14.5798 7.10916 15.2286 5.93551 16.3752C4.76187 17.5218 4.05812 19.0808 3.96649 20.7372L0.50798 99.0295C0.466782 99.8271 0.585416 100.625 0.856617 101.374C1.12782 102.123 1.54588 102.808 2.08519 103.386C2.62449 103.964 3.27369 104.424 3.99302 104.737C4.71235 105.05 5.48667 105.21 6.26855 105.207H129.051C130.675 105.187 132.231 104.538 133.404 103.391C134.578 102.245 135.282 100.686 135.373 99.0295L138.837 20.7372C138.878 19.9383 138.758 19.1395 138.486 18.3896C138.213 17.6398 137.794 16.9546 137.253 16.3763C136.712 15.7979 136.061 15.3385 135.34 15.0262C134.619 14.7139 133.843 14.5553 133.06 14.5601Z" fill="#D4B139"/>
<path opacity="0.2" d="M133.06 14.5601H10.2891C8.66516 14.5798 7.10916 15.2286 5.93551 16.3752C4.76187 17.5218 4.05812 19.0808 3.96649 20.7372L0.50798 99.0295C0.466782 99.8271 0.585416 100.625 0.856617 101.374C1.12782 102.123 1.54588 102.808 2.08519 103.386C2.62449 103.964 3.27369 104.424 3.99302 104.737C4.71235 105.05 5.48667 105.21 6.26855 105.207H129.051C130.675 105.187 132.231 104.538 133.404 103.391C134.578 102.245 135.282 100.686 135.373 99.0295L138.837 20.7372C138.878 19.9383 138.758 19.1395 138.486 18.3896C138.213 17.6398 137.794 16.9546 137.253 16.3763C136.712 15.7979 136.061 15.3385 135.34 15.0262C134.619 14.7139 133.843 14.5553 133.06 14.5601Z" fill="#FAFAFA"/>
<path d="M12.5439 84.5171L15.4026 19.8595C15.4369 19.2252 15.7062 18.6281 16.1558 18.1893C16.6055 17.7504 17.2017 17.5029 17.8236 17.4968H125.269C125.569 17.4949 125.866 17.5555 126.142 17.675C126.417 17.7944 126.666 17.9701 126.873 18.1913C127.08 18.4125 127.241 18.6746 127.345 18.9614C127.449 19.2483 127.495 19.5539 127.48 19.8595L124.616 84.5171C124.581 85.1513 124.312 85.7485 123.862 86.1873C123.413 86.6261 122.816 86.8736 122.195 86.8797H14.7541C14.4546 86.8816 14.1578 86.821 13.8821 86.7016C13.6063 86.5821 13.3573 86.4064 13.1503 86.1852C12.9434 85.964 12.7828 85.7019 12.6786 85.4151C12.5743 85.1282 12.5285 84.8226 12.5439 84.5171Z" fill="#D4B139"/>
<path opacity="0.1" d="M12.5439 84.5171L15.4026 19.8595C15.4369 19.2252 15.7062 18.6281 16.1558 18.1893C16.6055 17.7504 17.2017 17.5029 17.8236 17.4968H125.269C125.569 17.4949 125.866 17.5555 126.142 17.675C126.417 17.7944 126.666 17.9701 126.873 18.1913C127.08 18.4125 127.241 18.6746 127.345 18.9614C127.449 19.2483 127.495 19.5539 127.48 19.8595L124.616 84.5171C124.581 85.1513 124.312 85.7485 123.862 86.1873C123.413 86.6261 122.816 86.8736 122.195 86.8797H14.7541C14.4546 86.8816 14.1578 86.821 13.8821 86.7016C13.6063 86.5821 13.3573 86.4064 13.1503 86.1852C12.9434 85.964 12.7828 85.7019 12.6786 85.4151C12.5743 85.1282 12.5285 84.8226 12.5439 84.5171Z" fill="#FAFAFA"/>
<path opacity="0.1" d="M9.50984 89.7943L12.509 21.8964C12.5434 21.2304 12.8255 20.603 13.2975 20.1424C13.7696 19.6817 14.396 19.4225 15.0488 19.4178H127.882C128.197 19.4151 128.509 19.4782 128.798 19.6032C129.088 19.7283 129.349 19.9126 129.566 20.1448C129.784 20.3771 129.952 20.6523 130.061 20.9535C130.17 21.2548 130.218 21.5757 130.201 21.8964L127.196 89.7943C127.162 90.4598 126.881 91.0871 126.41 91.5485C125.939 92.0099 125.314 92.2709 124.662 92.2784H11.8173C11.5031 92.2804 11.1918 92.2166 10.9027 92.0909C10.6136 91.9651 10.3528 91.7801 10.1365 91.5472C9.92023 91.3144 9.75301 91.0387 9.64522 90.7372C9.53742 90.4356 9.49135 90.1147 9.50984 89.7943Z" fill="black"/>
<path d="M6.72452 95.2703L9.85338 24.4467C9.89539 23.7541 10.1912 23.1032 10.6819 22.6234C11.1726 22.1437 11.8222 21.8703 12.5013 21.8577H130.204C130.532 21.855 130.858 21.921 131.16 22.0516C131.463 22.1822 131.736 22.3748 131.962 22.6173C132.189 22.8599 132.365 23.1474 132.479 23.462C132.593 23.7766 132.642 24.1117 132.625 24.4467L129.48 95.2703C129.438 95.9628 129.142 96.6138 128.651 97.0935C128.16 97.5733 127.511 97.8467 126.832 97.8592H9.14547C8.81688 97.8628 8.49106 97.7974 8.18824 97.667C7.88542 97.5366 7.61204 97.3441 7.38506 97.1014C7.15807 96.8586 6.98232 96.5709 6.86869 96.2559C6.75507 95.9409 6.706 95.6054 6.72452 95.2703Z" fill="#FAFAFA"/>
<path d="M118.591 26.1027C118.37 26.1031 118.15 26.0573 117.947 25.9679C117.744 25.8785 117.561 25.7476 117.409 25.5831C117.257 25.4187 117.14 25.2242 117.064 25.0116C116.989 24.7991 116.956 24.573 116.97 24.3473C116.99 23.9045 117.176 23.4864 117.488 23.1785C117.801 22.8707 118.216 22.6964 118.65 22.6913C118.872 22.6909 119.091 22.7368 119.294 22.8261C119.497 22.9155 119.681 23.0465 119.832 23.2109C119.984 23.3754 120.102 23.5699 120.177 23.7824C120.253 23.9949 120.285 24.221 120.272 24.4467C120.251 24.8896 120.065 25.3077 119.753 25.6155C119.441 25.9233 119.025 26.0976 118.591 26.1027Z" fill="#D4B139"/>
<path d="M99.5206 26.1027C99.2992 26.1031 99.0802 26.0573 98.8769 25.9679C98.6735 25.8785 98.4903 25.7476 98.3384 25.5831C98.1865 25.4187 98.0692 25.2242 97.9937 25.0116C97.9182 24.7991 97.8861 24.573 97.8994 24.3473C97.92 23.9045 98.1055 23.4864 98.4179 23.1785C98.7303 22.8707 99.146 22.6964 99.58 22.6913C99.8013 22.6909 100.02 22.7368 100.224 22.8261C100.427 22.9155 100.61 23.0465 100.762 23.2109C100.914 23.3754 101.031 23.5699 101.107 23.7824C101.182 23.9949 101.214 24.221 101.201 24.4467C101.182 24.89 100.997 25.3089 100.684 25.617C100.371 25.9251 99.955 26.0989 99.5206 26.1027Z" fill="#D4B139"/>
<path d="M80.4542 26.1027C80.2328 26.1031 80.0138 26.0573 79.8105 25.9679C79.6072 25.8785 79.4239 25.7476 79.272 25.5831C79.1201 25.4187 79.0028 25.2242 78.9273 25.0116C78.8518 24.7991 78.8197 24.573 78.833 24.3473C78.8549 23.9049 79.0408 23.4876 79.3529 23.18C79.665 22.8725 80.08 22.6977 80.5136 22.6913C80.735 22.6909 80.954 22.7368 81.1573 22.8261C81.3606 22.9155 81.5439 23.0465 81.6958 23.2109C81.8476 23.3754 81.965 23.5699 82.0405 23.7824C82.116 23.9949 82.1481 24.221 82.1348 24.4467C82.1154 24.89 81.9304 25.3089 81.6177 25.617C81.305 25.9251 80.8886 26.0989 80.4542 26.1027Z" fill="#D4B139"/>
<path d="M61.3839 26.1027C61.1625 26.1031 60.9435 26.0573 60.7401 25.9679C60.5368 25.8785 60.3536 25.7476 60.2017 25.5831C60.0498 25.4187 59.9325 25.2242 59.857 25.0116C59.7815 24.7991 59.7494 24.573 59.7627 24.3473C59.7859 23.9044 59.973 23.4871 60.286 23.1796C60.5989 22.8722 61.0145 22.6976 61.4487 22.6913C61.67 22.6909 61.8891 22.7368 62.0924 22.8261C62.2957 22.9155 62.479 23.0465 62.6309 23.2109C62.7827 23.3754 62.9 23.5699 62.9756 23.7824C63.0511 23.9949 63.0832 24.221 63.0699 24.4467C63.0505 24.891 62.8646 25.3106 62.5508 25.6189C62.237 25.9271 61.8192 26.1003 61.3839 26.1027Z" fill="#D4B139"/>
<path d="M42.3214 26.1027C42.1 26.1031 41.881 26.0573 41.6776 25.9679C41.4743 25.8785 41.2911 25.7476 41.1392 25.5831C40.9873 25.4187 40.87 25.2242 40.7945 25.0116C40.719 24.7991 40.6869 24.573 40.7002 24.3473C40.7208 23.9045 40.9063 23.4864 41.2187 23.1785C41.5311 22.8707 41.9468 22.6964 42.3808 22.6913C42.6021 22.6909 42.8212 22.7368 43.0245 22.8261C43.2278 22.9155 43.4111 23.0465 43.5629 23.2109C43.7148 23.3754 43.8321 23.5699 43.9076 23.7824C43.9831 23.9949 44.0153 24.221 44.002 24.4467C43.9813 24.8896 43.7958 25.3077 43.4835 25.6155C43.1711 25.9233 42.7554 26.0976 42.3214 26.1027Z" fill="#D4B139"/>
<path d="M23.2471 26.1027C23.0258 26.1031 22.8067 26.0573 22.6034 25.9679C22.4001 25.8785 22.2169 25.7476 22.065 25.5831C21.9131 25.4187 21.7958 25.2242 21.7203 25.0116C21.6448 24.7991 21.6127 24.573 21.626 24.3473C21.6466 23.9045 21.8321 23.4864 22.1445 23.1785C22.4569 22.8707 22.8726 22.6964 23.3066 22.6913C23.5279 22.6909 23.747 22.7368 23.9503 22.8261C24.1536 22.9155 24.3369 23.0465 24.4887 23.2109C24.6406 23.3754 24.7579 23.5699 24.8334 23.7824C24.9089 23.9949 24.941 24.221 24.9278 24.4467C24.9084 24.89 24.7233 25.3089 24.4107 25.617C24.098 25.9251 23.6816 26.0989 23.2471 26.1027Z" fill="#D4B139"/>
<g opacity="0.1">
<path d="M118.583 26.1027C118.362 26.1031 118.143 26.0573 117.939 25.9679C117.736 25.8785 117.553 25.7476 117.401 25.5831C117.249 25.4187 117.132 25.2242 117.056 25.0116C116.981 24.7991 116.949 24.573 116.962 24.3473C116.983 23.9045 117.168 23.4864 117.48 23.1785C117.793 22.8707 118.209 22.6964 118.643 22.6913C118.864 22.6909 119.083 22.7368 119.286 22.8261C119.49 22.9155 119.673 23.0465 119.825 23.2109C119.977 23.3754 120.094 23.5699 120.169 23.7824C120.245 23.9949 120.277 24.221 120.264 24.4467C120.243 24.8896 120.058 25.3077 119.745 25.6155C119.433 25.9233 119.017 26.0976 118.583 26.1027Z" fill="#FAFAFA"/>
<path d="M99.5128 26.1027C99.2914 26.1031 99.0723 26.0573 98.869 25.9679C98.6657 25.8785 98.4825 25.7476 98.3306 25.5831C98.1787 25.4187 98.0614 25.2242 97.9859 25.0116C97.9104 24.7991 97.8783 24.573 97.8916 24.3473C97.9122 23.9045 98.0977 23.4864 98.4101 23.1785C98.7225 22.8707 99.1382 22.6964 99.5722 22.6913C99.7935 22.6909 100.013 22.7368 100.216 22.8261C100.419 22.9155 100.602 23.0465 100.754 23.2109C100.906 23.3754 101.024 23.5699 101.099 23.7824C101.175 23.9949 101.207 24.221 101.193 24.4467C101.174 24.89 100.989 25.3089 100.676 25.617C100.364 25.9251 99.9472 26.0989 99.5128 26.1027Z" fill="#FAFAFA"/>
<path d="M80.4464 26.1027C80.225 26.1031 80.006 26.0573 79.8026 25.9679C79.5993 25.8785 79.4161 25.7476 79.2642 25.5831C79.1123 25.4187 78.995 25.2242 78.9195 25.0116C78.844 24.7991 78.8119 24.573 78.8252 24.3473C78.8471 23.9049 79.033 23.4876 79.3451 23.18C79.6572 22.8725 80.0722 22.6977 80.5058 22.6913C80.7271 22.6909 80.9462 22.7368 81.1495 22.8261C81.3528 22.9155 81.5361 23.0465 81.6879 23.2109C81.8398 23.3754 81.9571 23.5699 82.0327 23.7824C82.1082 23.9949 82.1403 24.221 82.127 24.4467C82.1076 24.89 81.9225 25.3089 81.6099 25.617C81.2972 25.9251 80.8808 26.0989 80.4464 26.1027Z" fill="#FAFAFA"/>
<path d="M61.3839 26.1027C61.1625 26.1031 60.9435 26.0573 60.7401 25.9679C60.5368 25.8785 60.3536 25.7476 60.2017 25.5831C60.0498 25.4187 59.9325 25.2242 59.857 25.0116C59.7815 24.7991 59.7494 24.573 59.7627 24.3473C59.7859 23.9044 59.973 23.4871 60.286 23.1796C60.5989 22.8722 61.0145 22.6976 61.4487 22.6913C61.67 22.6909 61.8891 22.7368 62.0924 22.8261C62.2957 22.9155 62.479 23.0465 62.6309 23.2109C62.7827 23.3754 62.9 23.5699 62.9756 23.7824C63.0511 23.9949 63.0832 24.221 63.0699 24.4467C63.0505 24.891 62.8646 25.3106 62.5508 25.6189C62.237 25.9271 61.8192 26.1003 61.3839 26.1027Z" fill="#FAFAFA"/>
<path d="M42.3096 26.1027C42.0883 26.1031 41.8692 26.0573 41.6659 25.9679C41.4626 25.8785 41.2794 25.7476 41.1275 25.5831C40.9756 25.4187 40.8583 25.2242 40.7828 25.0116C40.7073 24.7991 40.6752 24.573 40.6885 24.3473C40.7091 23.9045 40.8946 23.4864 41.207 23.1785C41.5194 22.8707 41.9351 22.6964 42.3691 22.6913C42.5904 22.6909 42.8095 22.7368 43.0128 22.8261C43.2161 22.9155 43.3993 23.0465 43.5512 23.2109C43.7031 23.3754 43.8204 23.5699 43.8959 23.7824C43.9714 23.9949 44.0035 24.221 43.9903 24.4467C43.9696 24.8896 43.7841 25.3077 43.4717 25.6155C43.1594 25.9233 42.7437 26.0976 42.3096 26.1027Z" fill="#FAFAFA"/>
<path d="M23.2393 26.1027C23.018 26.1031 22.7989 26.0573 22.5956 25.9679C22.3923 25.8785 22.2091 25.7476 22.0572 25.5831C21.9053 25.4187 21.788 25.2242 21.7125 25.0116C21.637 24.7991 21.6049 24.573 21.6182 24.3473C21.6388 23.9045 21.8243 23.4864 22.1367 23.1785C22.4491 22.8707 22.8648 22.6964 23.2988 22.6913C23.5201 22.6909 23.7392 22.7368 23.9425 22.8261C24.1458 22.9155 24.329 23.0465 24.4809 23.2109C24.6328 23.3754 24.7501 23.5699 24.8256 23.7824C24.9011 23.9949 24.9332 24.221 24.9199 24.4467C24.9006 24.89 24.7155 25.3089 24.4028 25.617C24.0902 25.9251 23.6737 26.0989 23.2393 26.1027Z" fill="#FAFAFA"/>
</g>
<path d="M28.0155 32.2742H18.4235C18.2845 32.2754 18.1467 32.2471 18.0189 32.1911C17.8911 32.135 17.7761 32.0525 17.6811 31.9488C17.5861 31.845 17.5132 31.7222 17.4671 31.5882C17.421 31.4542 17.4025 31.3119 17.413 31.1702C17.4237 30.8809 17.541 30.6064 17.7414 30.4017C17.9418 30.1969 18.2106 30.0771 18.4938 30.0662H28.0857C28.2248 30.065 28.3626 30.0933 28.4904 30.1494C28.6182 30.2054 28.7332 30.2879 28.8282 30.3917C28.9232 30.4954 28.996 30.6182 29.0422 30.7522C29.0883 30.8862 29.1067 31.0285 29.0963 31.1702C29.0856 31.4595 28.9683 31.734 28.7678 31.9388C28.5674 32.1435 28.2987 32.2633 28.0155 32.2742Z" fill="#D4B139"/>
<path d="M47.0858 32.2742H37.4939C37.3548 32.2754 37.217 32.2471 37.0892 32.1911C36.9614 32.135 36.8464 32.0525 36.7514 31.9488C36.6564 31.845 36.5836 31.7222 36.5374 31.5882C36.4913 31.4542 36.4729 31.3119 36.4833 31.1702C36.4944 30.8762 36.6154 30.5978 36.8216 30.3924C37.0277 30.187 37.3032 30.0702 37.5911 30.0662H47.1777C47.3169 30.0651 47.4549 30.0934 47.583 30.1493C47.7111 30.2053 47.8264 30.2877 47.9218 30.3914C48.0172 30.4951 48.0906 30.6178 48.1374 30.7518C48.1841 30.8858 48.2033 31.0283 48.1936 31.1702C48.1825 31.4642 48.0615 31.7426 47.8553 31.948C47.6492 32.1534 47.3737 32.2702 47.0858 32.2742Z" fill="#D4B139"/>
<path d="M66.1533 32.2742H56.5614C56.4221 32.2753 56.2841 32.247 56.156 32.1911C56.0279 32.1351 55.9126 32.0527 55.8172 31.949C55.7218 31.8453 55.6484 31.7226 55.6016 31.5886C55.5549 31.4546 55.5357 31.3121 55.5454 31.1702C55.5565 30.8762 55.6775 30.5978 55.8837 30.3924C56.0898 30.187 56.3653 30.0702 56.6532 30.0662H66.2506C66.3896 30.065 66.5274 30.0933 66.6552 30.1494C66.783 30.2054 66.898 30.2879 66.993 30.3917C67.088 30.4954 67.1608 30.6182 67.207 30.7522C67.2531 30.8862 67.2716 31.0285 67.2611 31.1702C67.2513 31.4646 67.1307 31.7438 66.9243 31.9495C66.7179 32.1552 66.4417 32.2716 66.1533 32.2742Z" fill="#D4B139"/>
<path d="M85.2225 32.2742H75.6306C75.4915 32.2754 75.3537 32.2471 75.2259 32.1911C75.0981 32.135 74.9831 32.0525 74.8881 31.9488C74.7931 31.845 74.7203 31.7222 74.6741 31.5882C74.628 31.4542 74.6096 31.3119 74.62 31.1702C74.6307 30.8809 74.748 30.6064 74.9485 30.4017C75.1489 30.1969 75.4176 30.0771 75.7008 30.0662H85.2928C85.4318 30.065 85.5696 30.0933 85.6974 30.1494C85.8252 30.2054 85.9402 30.2879 86.0352 30.3917C86.1302 30.4954 86.2031 30.6182 86.2492 30.7522C86.2953 30.8862 86.3138 31.0285 86.3033 31.1702C86.2926 31.4595 86.1753 31.734 85.9749 31.9388C85.7745 32.1435 85.5057 32.2633 85.2225 32.2742Z" fill="#D4B139"/>
<path d="M104.293 32.2742H94.7009C94.5618 32.2754 94.424 32.2471 94.2962 32.1911C94.1685 32.135 94.0534 32.0525 93.9584 31.9488C93.8635 31.845 93.7906 31.7222 93.7444 31.5882C93.6983 31.4542 93.6799 31.3119 93.6904 31.1702C93.7014 30.8762 93.8225 30.5978 94.0286 30.3924C94.2348 30.187 94.5102 30.0702 94.7982 30.0662H104.39C104.529 30.065 104.667 30.0933 104.795 30.1494C104.923 30.2054 105.038 30.2879 105.133 30.3917C105.228 30.4954 105.3 30.6182 105.347 30.7522C105.393 30.8862 105.411 31.0285 105.401 31.1702C105.39 31.4642 105.269 31.7426 105.062 31.948C104.856 32.1534 104.581 32.2702 104.293 32.2742Z" fill="#D4B139"/>
<path d="M123.363 32.2742H113.771C113.632 32.2754 113.494 32.2471 113.367 32.1911C113.239 32.135 113.124 32.0525 113.029 31.9488C112.934 31.845 112.861 31.7222 112.815 31.5882C112.769 31.4542 112.75 31.3119 112.761 31.1702C112.772 30.8762 112.893 30.5978 113.099 30.3924C113.305 30.187 113.581 30.0702 113.868 30.0662H123.455C123.594 30.0651 123.732 30.0934 123.86 30.1493C123.988 30.2053 124.104 30.2877 124.199 30.3914C124.295 30.4951 124.368 30.6178 124.415 30.7518C124.461 30.8858 124.481 31.0283 124.471 31.1702C124.46 31.4642 124.339 31.7426 124.133 31.948C123.927 32.1534 123.651 32.2702 123.363 32.2742Z" fill="#D4B139"/>
<g opacity="0.3">
<path d="M28.0116 32.2742H18.4196C18.2806 32.2754 18.1428 32.2471 18.015 32.1911C17.8872 32.135 17.7722 32.0525 17.6772 31.9488C17.5822 31.845 17.5093 31.7222 17.4632 31.5882C17.4171 31.4542 17.3986 31.3119 17.4091 31.1702C17.4198 30.8809 17.5371 30.6064 17.7375 30.4017C17.9379 30.1969 18.2067 30.0771 18.4899 30.0662H28.0818C28.2209 30.065 28.3587 30.0933 28.4865 30.1494C28.6143 30.2054 28.7293 30.2879 28.8243 30.3917C28.9193 30.4954 28.9921 30.6182 29.0383 30.7522C29.0844 30.8862 29.1028 31.0285 29.0924 31.1702C29.0817 31.4595 28.9644 31.734 28.7639 31.9388C28.5635 32.1435 28.2948 32.2633 28.0116 32.2742Z" fill="black"/>
<path d="M47.0819 32.2742H37.4899C37.3509 32.2754 37.2131 32.2471 37.0853 32.1911C36.9575 32.135 36.8425 32.0525 36.7475 31.9488C36.6525 31.845 36.5797 31.7222 36.5335 31.5882C36.4874 31.4542 36.4689 31.3119 36.4794 31.1702C36.4905 30.8762 36.6115 30.5978 36.8177 30.3924C37.0238 30.187 37.2993 30.0702 37.5872 30.0662H47.1737C47.313 30.0651 47.451 30.0934 47.5791 30.1493C47.7071 30.2053 47.8225 30.2877 47.9179 30.3914C48.0133 30.4951 48.0867 30.6178 48.1335 30.7518C48.1802 30.8858 48.1994 31.0283 48.1897 31.1702C48.1786 31.4642 48.0576 31.7426 47.8514 31.948C47.6453 32.1534 47.3698 32.2702 47.0819 32.2742Z" fill="black"/>
<path d="M66.1533 32.2742H56.5614C56.4221 32.2753 56.2841 32.247 56.156 32.1911C56.0279 32.1351 55.9126 32.0527 55.8172 31.949C55.7218 31.8453 55.6484 31.7226 55.6016 31.5886C55.5549 31.4546 55.5357 31.3121 55.5454 31.1702C55.5565 30.8762 55.6775 30.5978 55.8837 30.3924C56.0898 30.187 56.3653 30.0702 56.6532 30.0662H66.2506C66.3896 30.065 66.5274 30.0933 66.6552 30.1494C66.783 30.2054 66.898 30.2879 66.993 30.3917C67.088 30.4954 67.1608 30.6182 67.207 30.7522C67.2531 30.8862 67.2716 31.0285 67.2611 31.1702C67.2513 31.4646 67.1307 31.7438 66.9243 31.9495C66.7179 32.1552 66.4417 32.2716 66.1533 32.2742Z" fill="black"/>
<path d="M85.2186 32.2742H75.6267C75.4876 32.2754 75.3498 32.2471 75.222 32.1911C75.0942 32.135 74.9792 32.0525 74.8842 31.9488C74.7892 31.845 74.7164 31.7222 74.6702 31.5882C74.6241 31.4542 74.6057 31.3119 74.6161 31.1702C74.6268 30.8809 74.7441 30.6064 74.9445 30.4017C75.145 30.1969 75.4137 30.0771 75.6969 30.0662H85.2889C85.4279 30.065 85.5657 30.0933 85.6935 30.1494C85.8213 30.2054 85.9363 30.2879 86.0313 30.3917C86.1263 30.4954 86.1991 30.6182 86.2453 30.7522C86.2914 30.8862 86.3099 31.0285 86.2994 31.1702C86.2887 31.4595 86.1714 31.734 85.971 31.9388C85.7706 32.1435 85.5018 32.2633 85.2186 32.2742Z" fill="black"/>
<path d="M104.285 32.2742H94.6931C94.554 32.2754 94.4162 32.2471 94.2884 32.1911C94.1606 32.135 94.0456 32.0525 93.9506 31.9488C93.8556 31.845 93.7828 31.7222 93.7366 31.5882C93.6905 31.4542 93.6721 31.3119 93.6825 31.1702C93.6936 30.8762 93.8147 30.5978 94.0208 30.3924C94.2269 30.187 94.5024 30.0702 94.7904 30.0662H104.382C104.521 30.065 104.659 30.0933 104.787 30.1494C104.915 30.2054 105.03 30.2879 105.125 30.3917C105.22 30.4954 105.293 30.6182 105.339 30.7522C105.385 30.8862 105.403 31.0285 105.393 31.1702C105.382 31.4642 105.261 31.7426 105.055 31.948C104.848 32.1534 104.573 32.2702 104.285 32.2742Z" fill="black"/>
<path d="M123.355 32.2742H113.763C113.624 32.2754 113.487 32.2471 113.359 32.1911C113.231 32.135 113.116 32.0525 113.021 31.9488C112.926 31.845 112.853 31.7222 112.807 31.5882C112.761 31.4542 112.742 31.3119 112.753 31.1702C112.764 30.8762 112.885 30.5978 113.091 30.3924C113.297 30.187 113.573 30.0702 113.861 30.0662H123.447C123.586 30.0651 123.724 30.0934 123.853 30.1493C123.981 30.2053 124.096 30.2877 124.191 30.3914C124.287 30.4951 124.36 30.6178 124.407 30.7518C124.454 30.8858 124.473 31.0283 124.463 31.1702C124.452 31.4642 124.331 31.7426 124.125 31.948C123.919 32.1534 123.643 32.2702 123.355 32.2742Z" fill="black"/>
</g>
<path d="M28.5468 53.1239H16.053C15.779 53.125 15.5076 53.0691 15.2555 52.9594C15.0033 52.8498 14.7757 52.6888 14.5866 52.4863C14.3974 52.2837 14.2507 52.0439 14.1553 51.7815C14.0599 51.5191 14.018 51.2396 14.0319 50.96L14.5723 38.1974C14.6051 37.6173 14.8519 37.0715 15.2631 36.6699C15.6742 36.2683 16.2191 36.0409 16.7879 36.0335H29.2817C29.5558 36.0324 29.8271 36.0884 30.0793 36.198C30.3314 36.3076 30.559 36.4687 30.7481 36.6712C30.9373 36.8737 31.084 37.1135 31.1794 37.3759C31.2748 37.6383 31.3168 37.9179 31.3028 38.1974L30.7624 50.96C30.7284 51.5397 30.4812 52.0848 30.0703 52.4861C29.6594 52.8874 29.1152 53.1152 28.5468 53.1239Z" fill="#D4B139"/>
<path d="M47.6174 53.1239H35.1236C34.8493 53.1258 34.5776 53.0704 34.3251 52.961C34.0726 52.8517 33.8447 52.6907 33.6554 52.488C33.4661 52.2853 33.3194 52.0452 33.2243 51.7824C33.1292 51.5196 33.0878 51.2398 33.1025 50.96L33.6429 38.1974C33.6757 37.6173 33.9225 37.0715 34.3337 36.6699C34.7448 36.2683 35.2897 36.0409 35.8585 36.0335H48.3686C48.6428 36.0324 48.9144 36.0884 49.1668 36.198C49.4192 36.3076 49.6472 36.4685 49.8367 36.6709C50.0263 36.8733 50.1736 37.1131 50.2696 37.3755C50.3655 37.6379 50.4082 37.9176 50.395 38.1974L49.8276 50.96C49.7962 51.5396 49.5505 52.0855 49.1402 52.4871C48.7299 52.8888 48.1857 53.1164 47.6174 53.1239Z" fill="#D4B139"/>
<path d="M66.6794 53.1239H54.1909C53.9167 53.125 53.6451 53.069 53.3927 52.9594C53.1403 52.8498 52.9123 52.6889 52.7228 52.4865C52.5332 52.2841 52.3859 52.0443 52.2899 51.7819C52.1939 51.5195 52.1513 51.2398 52.1645 50.96L52.7048 38.1974C52.7376 37.6173 52.9845 37.0714 53.3956 36.6699C53.8068 36.2683 54.3517 36.0409 54.9204 36.0335H67.4089C67.6831 36.0316 67.9548 36.087 68.2073 36.1964C68.4598 36.3057 68.6878 36.4667 68.8771 36.6694C69.0664 36.8721 69.2131 37.1122 69.3082 37.375C69.4033 37.6378 69.4447 37.9176 69.4299 38.1974L68.8896 50.96C68.8569 51.5392 68.6108 52.0842 68.2008 52.4856C67.7907 52.8871 67.2472 53.1151 66.6794 53.1239Z" fill="#D4B139"/>
<path d="M85.7493 53.1239H73.2771C73.0027 53.1258 72.7307 53.0704 72.4779 52.9611C72.2252 52.8518 71.9969 52.6909 71.8072 52.4883C71.6174 52.2857 71.4702 52.0456 71.3745 51.7828C71.2788 51.52 71.2367 51.24 71.2507 50.96L71.7911 38.1974C71.8225 37.6178 72.0682 37.072 72.4785 36.6703C72.8887 36.2686 73.433 36.041 74.0013 36.0335H86.4951C86.7691 36.0324 87.0405 36.0884 87.2926 36.198C87.5447 36.3076 87.7723 36.4687 87.9615 36.6712C88.1506 36.8737 88.2974 37.1135 88.3928 37.3759C88.4881 37.6383 88.5301 37.9179 88.5162 38.1974L87.9758 50.96C87.9429 51.542 87.6945 52.0894 87.281 52.4913C86.8676 52.8931 86.32 53.1193 85.7493 53.1239Z" fill="#D4B139"/>
<path d="M104.816 53.1239H92.3225C92.0485 53.125 91.7771 53.069 91.525 52.9594C91.2729 52.8498 91.0453 52.6888 90.8561 52.4862C90.6669 52.2837 90.5202 52.0439 90.4248 51.7815C90.3295 51.5191 90.2875 51.2395 90.3014 50.96L90.8418 38.1974C90.8746 37.6173 91.1214 37.0714 91.5326 36.6699C91.9437 36.2683 92.4886 36.0409 93.0574 36.0335H105.546C105.82 36.0316 106.092 36.087 106.345 36.1963C106.598 36.3056 106.826 36.4665 107.016 36.6691C107.206 36.8717 107.353 37.1118 107.448 37.3746C107.544 37.6374 107.586 37.9174 107.572 38.1974L107.032 50.96C106.998 51.5396 106.751 52.0847 106.34 52.486C105.929 52.8873 105.385 53.1152 104.816 53.1239Z" fill="#D4B139"/>
<path d="M123.885 53.1239H111.397C111.123 53.1258 110.851 53.0704 110.599 52.961C110.346 52.8517 110.118 52.6907 109.929 52.488C109.74 52.2853 109.593 52.0452 109.498 51.7824C109.403 51.5196 109.361 51.2398 109.376 50.96L109.916 38.1974C109.949 37.6173 110.196 37.0715 110.607 36.6699C111.018 36.2683 111.563 36.0409 112.132 36.0335H124.62C124.895 36.0324 125.166 36.0884 125.419 36.198C125.671 36.3076 125.899 36.4685 126.089 36.6709C126.278 36.8733 126.425 37.1131 126.521 37.3755C126.617 37.6379 126.66 37.9176 126.647 38.1974L126.079 50.96C126.048 51.5368 125.805 52.0803 125.398 52.4816C124.991 52.8828 124.451 53.1123 123.885 53.1239Z" fill="#D4B139"/>
<g opacity="0.8">
<path d="M28.541 53.1239H16.0471C15.7731 53.125 15.5017 53.0691 15.2496 52.9594C14.9975 52.8498 14.7699 52.6888 14.5807 52.4863C14.3916 52.2837 14.2448 52.0439 14.1495 51.7815C14.0541 51.5191 14.0121 51.2396 14.0261 50.96L14.5664 38.1974C14.5992 37.6173 14.8461 37.0715 15.2572 36.6699C15.6684 36.2683 16.2133 36.0409 16.7821 36.0335H29.2759C29.5499 36.0324 29.8213 36.0884 30.0734 36.198C30.3255 36.3076 30.5531 36.4687 30.7423 36.6712C30.9314 36.8737 31.0782 37.1135 31.1736 37.3759C31.2689 37.6383 31.3109 37.9179 31.2969 38.1974L30.7566 50.96C30.7225 51.5397 30.4753 52.0848 30.0644 52.4861C29.6535 52.8874 29.1094 53.1152 28.541 53.1239Z" fill="#FAFAFA"/>
<path d="M47.6116 53.1239H35.1177C34.8435 53.1258 34.5718 53.0704 34.3193 52.961C34.0668 52.8517 33.8389 52.6907 33.6495 52.488C33.4602 52.2853 33.3135 52.0452 33.2184 51.7824C33.1234 51.5196 33.0819 51.2398 33.0967 50.96L33.6371 38.1974C33.6698 37.6173 33.9167 37.0715 34.3278 36.6699C34.739 36.2683 35.2839 36.0409 35.8527 36.0335H48.3627C48.637 36.0324 48.9086 36.0884 49.161 36.198C49.4134 36.3076 49.6413 36.4685 49.8309 36.6709C50.0205 36.8733 50.1677 37.1131 50.2637 37.3755C50.3597 37.6379 50.4024 37.9176 50.3892 38.1974L49.8218 50.96C49.7903 51.5396 49.5446 52.0855 49.1343 52.4871C48.7241 52.8888 48.1798 53.1164 47.6116 53.1239Z" fill="#FAFAFA"/>
<path d="M66.6774 53.1239H54.189C53.9147 53.125 53.6431 53.069 53.3907 52.9594C53.1383 52.8498 52.9104 52.6889 52.7208 52.4865C52.5312 52.2841 52.384 52.0443 52.288 51.7819C52.192 51.5195 52.1493 51.2398 52.1625 50.96L52.7029 38.1974C52.7357 37.6173 52.9825 37.0714 53.3937 36.6699C53.8048 36.2683 54.3497 36.0409 54.9185 36.0335H67.4069C67.6812 36.0316 67.9529 36.087 68.2054 36.1964C68.4579 36.3057 68.6858 36.4667 68.8751 36.6694C69.0644 36.8721 69.2111 37.1122 69.3062 37.375C69.4013 37.6378 69.4427 37.9176 69.428 38.1974L68.8876 50.96C68.8549 51.5392 68.6088 52.0842 68.1988 52.4856C67.7888 52.8871 67.2453 53.1151 66.6774 53.1239Z" fill="#FAFAFA"/>
<path d="M85.7474 53.1239H73.2752C73.0007 53.1258 72.7288 53.0704 72.476 52.9611C72.2232 52.8518 71.995 52.6909 71.8052 52.4883C71.6155 52.2857 71.4683 52.0456 71.3726 51.7828C71.2769 51.52 71.2347 51.24 71.2487 50.96L71.7891 38.1974C71.8206 37.6178 72.0662 37.072 72.4765 36.6703C72.8868 36.2686 73.4311 36.041 73.9993 36.0335H86.4931C86.7672 36.0324 87.0385 36.0884 87.2907 36.198C87.5428 36.3076 87.7704 36.4687 87.9595 36.6712C88.1487 36.8737 88.2954 37.1135 88.3908 37.3759C88.4862 37.6383 88.5282 37.9179 88.5142 38.1974L87.9738 50.96C87.9409 51.542 87.6925 52.0894 87.2791 52.4913C86.8657 52.8931 86.3181 53.1193 85.7474 53.1239Z" fill="#FAFAFA"/>
<path d="M104.814 53.1239H92.3205C92.0465 53.125 91.7752 53.069 91.523 52.9594C91.2709 52.8498 91.0433 52.6888 90.8541 52.4862C90.665 52.2837 90.5182 52.0439 90.4229 51.7815C90.3275 51.5191 90.2855 51.2395 90.2995 50.96L90.8399 38.1974C90.8727 37.6173 91.1195 37.0714 91.5306 36.6699C91.9418 36.2683 92.4867 36.0409 93.0555 36.0335H105.544C105.818 36.0316 106.09 36.087 106.343 36.1963C106.596 36.3056 106.824 36.4665 107.014 36.6691C107.204 36.8717 107.351 37.1118 107.447 37.3746C107.542 37.6374 107.584 37.9174 107.57 38.1974L107.03 50.96C106.996 51.5396 106.749 52.0847 106.338 52.486C105.927 52.8873 105.383 53.1152 104.814 53.1239Z" fill="#FAFAFA"/>
<path d="M123.88 53.1239H111.391C111.117 53.1258 110.845 53.0704 110.593 52.961C110.34 52.8517 110.112 52.6907 109.923 52.488C109.734 52.2853 109.587 52.0452 109.492 51.7824C109.397 51.5196 109.355 51.2398 109.37 50.96L109.91 38.1974C109.943 37.6173 110.19 37.0715 110.601 36.6699C111.012 36.2683 111.557 36.0409 112.126 36.0335H124.615C124.889 36.0324 125.16 36.0884 125.413 36.198C125.665 36.3076 125.893 36.4685 126.083 36.6709C126.272 36.8733 126.42 37.1131 126.516 37.3755C126.612 37.6379 126.654 37.9176 126.641 38.1974L126.074 50.96C126.042 51.5368 125.799 52.0803 125.392 52.4816C124.985 52.8828 124.445 53.1123 123.88 53.1239Z" fill="#FAFAFA"/>
</g>
<path d="M27.6679 72.9247H15.1741C14.9 72.9258 14.6287 72.8698 14.3766 72.7602C14.1244 72.6506 13.8968 72.4896 13.7077 72.287C13.5185 72.0845 13.3718 71.8447 13.2764 71.5823C13.181 71.3199 13.139 71.0403 13.153 70.7608L13.6934 57.9982C13.7274 57.4185 13.9746 56.8734 14.3855 56.4721C14.7964 56.0708 15.3406 55.843 15.909 55.8343H28.4244C28.6985 55.8332 28.9698 55.8892 29.222 55.9988C29.4741 56.1084 29.7017 56.2694 29.8909 56.472C30.08 56.6745 30.2267 56.9143 30.3221 57.1767C30.4175 57.4391 30.4595 57.7186 30.4455 57.9982L29.9051 70.7608C29.8708 71.3442 29.6206 71.8925 29.2051 72.2943C28.7896 72.6962 28.2401 72.9216 27.6679 72.9247Z" fill="#D4B139"/>
<path d="M46.7382 72.9247H34.2444C33.9704 72.9258 33.699 72.8698 33.4469 72.7602C33.1947 72.6506 32.9671 72.4896 32.778 72.287C32.5888 72.0845 32.4421 71.8447 32.3467 71.5823C32.2513 71.3199 32.2094 71.0404 32.2233 70.7608L32.7637 57.9982C32.7965 57.4181 33.0433 56.8723 33.4545 56.4707C33.8656 56.0691 34.4105 55.8417 34.9793 55.8343H47.4677C47.7444 55.8323 48.0184 55.8883 48.273 55.9989C48.5276 56.1095 48.7572 56.2723 48.9477 56.4772C49.1382 56.6822 49.2854 56.9249 49.3804 57.1903C49.4753 57.4557 49.5159 57.7382 49.4996 58.0203L48.9592 70.7608C48.9276 71.3423 48.6804 71.8897 48.2679 72.2917C47.8553 72.6936 47.3083 72.92 46.7382 72.9247Z" fill="#D4B139"/>
<path d="M65.8073 72.9247H53.3189C53.0446 72.9266 52.7729 72.8712 52.5204 72.7618C52.2679 72.6525 52.04 72.4915 51.8507 72.2888C51.6614 72.0861 51.5147 71.846 51.4196 71.5832C51.3245 71.3204 51.2831 71.0405 51.2978 70.7608L51.8382 57.9982C51.871 57.4181 52.1178 56.8722 52.529 56.4707C52.9401 56.0691 53.485 55.8417 54.0538 55.8343H66.5423C66.8165 55.8324 67.0882 55.8878 67.3407 55.9972C67.5932 56.1065 67.8211 56.2675 68.0104 56.4702C68.1997 56.6729 68.3465 56.913 68.4415 57.1758C68.5366 57.4386 68.5781 57.7185 68.5633 57.9982L68.0229 70.7608C67.9901 71.3409 67.7433 71.8868 67.3322 72.2883C66.921 72.6899 66.3761 72.9173 65.8073 72.9247Z" fill="#D4B139"/>
<path d="M84.8747 72.9247H72.3862C72.112 72.9258 71.8404 72.8698 71.588 72.7603C71.3356 72.6507 71.1076 72.4898 70.9181 72.2873C70.7285 72.0849 70.5812 71.8452 70.4852 71.5827C70.3893 71.3203 70.3466 71.0406 70.3598 70.7608L70.9002 57.9982C70.9316 57.4186 71.1773 56.8728 71.5876 56.4711C71.9978 56.0694 72.5421 55.8418 73.1104 55.8343H85.6042C85.8824 55.8292 86.1586 55.883 86.4155 55.9923C86.6723 56.1016 86.9043 56.264 87.0967 56.4693C87.289 56.6747 87.4377 56.9185 87.5334 57.1854C87.629 57.4523 87.6695 57.7366 87.6523 58.0203L87.1119 70.7829C87.0736 71.3629 86.8214 71.9064 86.4062 72.3039C85.991 72.7014 85.4437 72.9232 84.8747 72.9247Z" fill="#D4B139"/>
<path d="M103.949 72.9247H91.4553C91.1813 72.9258 90.9099 72.8698 90.6578 72.7602C90.4057 72.6505 90.1781 72.4895 89.9889 72.287C89.7998 72.0845 89.653 71.8447 89.5576 71.5823C89.4623 71.3198 89.4203 71.0403 89.4343 70.7608L89.9746 57.9982C90.0035 57.4136 90.2491 56.8623 90.6617 56.4562C91.0743 56.0502 91.6228 55.8199 92.1956 55.8122H104.689C104.964 55.8111 105.235 55.867 105.487 55.9767C105.739 56.0863 105.967 56.2473 106.156 56.4498C106.345 56.6524 106.492 56.8922 106.587 57.1546C106.683 57.417 106.724 57.6965 106.711 57.9761L106.17 70.7387C106.141 71.3232 105.896 71.8745 105.483 72.2806C105.071 72.6867 104.522 72.917 103.949 72.9247Z" fill="#D4B139"/>
<path d="M122.99 72.9247H110.518C110.244 72.9266 109.972 72.8712 109.72 72.7618C109.467 72.6525 109.239 72.4915 109.05 72.2888C108.861 72.0861 108.714 71.846 108.619 71.5832C108.524 71.3204 108.482 71.0405 108.497 70.7608L109.037 57.9982C109.07 57.4181 109.317 56.8722 109.728 56.4707C110.139 56.0691 110.684 55.8417 111.253 55.8343H123.741C124.016 55.8332 124.287 55.8892 124.54 55.9988C124.792 56.1083 125.02 56.2692 125.21 56.4717C125.399 56.6741 125.546 56.9139 125.642 57.1763C125.738 57.4387 125.781 57.7184 125.768 57.9982L125.201 70.7608C125.169 71.3404 124.923 71.8862 124.513 72.2879C124.103 72.6896 123.559 72.9172 122.99 72.9247Z" fill="#D4B139"/>
<g opacity="0.8">
<path d="M27.6679 72.9247H15.1741C14.9 72.9258 14.6287 72.8698 14.3766 72.7602C14.1244 72.6505 13.8968 72.4895 13.7077 72.287C13.5185 72.0845 13.3718 71.8447 13.2764 71.5823C13.181 71.3199 13.139 71.0403 13.153 70.7608L13.6934 57.9982C13.7274 57.4185 13.9746 56.8734 14.3855 56.4721C14.7964 56.0708 15.3406 55.843 15.909 55.8343H28.4244C28.6985 55.8332 28.9698 55.8891 29.222 55.9988C29.4741 56.1084 29.7017 56.2694 29.8909 56.4719C30.08 56.6745 30.2267 56.9143 30.3221 57.1767C30.4175 57.4391 30.4595 57.7186 30.4455 57.9982L29.9051 70.7608C29.8708 71.3442 29.6206 71.8925 29.2051 72.2943C28.7896 72.6962 28.2401 72.9215 27.6679 72.9247Z" fill="#FAFAFA"/>
<path d="M46.7382 72.9247H34.2444C33.9704 72.9258 33.699 72.8698 33.4469 72.7602C33.1947 72.6506 32.9671 72.4896 32.778 72.287C32.5888 72.0845 32.4421 71.8447 32.3467 71.5823C32.2513 71.3199 32.2094 71.0404 32.2233 70.7608L32.7637 57.9982C32.7965 57.4181 33.0433 56.8723 33.4545 56.4707C33.8656 56.0691 34.4105 55.8417 34.9793 55.8343H47.4677C47.7444 55.8323 48.0184 55.8883 48.273 55.9989C48.5276 56.1095 48.7572 56.2723 48.9477 56.4772C49.1382 56.6822 49.2854 56.9249 49.3804 57.1903C49.4753 57.4557 49.5159 57.7382 49.4996 58.0203L48.9592 70.7608C48.9276 71.3423 48.6804 71.8897 48.2679 72.2917C47.8553 72.6936 47.3083 72.92 46.7382 72.9247Z" fill="#FAFAFA"/>
<path d="M65.8073 72.9247H53.3189C53.0446 72.9266 52.7729 72.8712 52.5204 72.7618C52.2679 72.6525 52.04 72.4915 51.8507 72.2888C51.6614 72.0861 51.5147 71.846 51.4196 71.5832C51.3245 71.3204 51.2831 71.0405 51.2978 70.7608L51.8382 57.9982C51.871 57.4181 52.1178 56.8722 52.529 56.4707C52.9401 56.0691 53.485 55.8417 54.0538 55.8343H66.5423C66.8165 55.8324 67.0882 55.8878 67.3407 55.9972C67.5932 56.1065 67.8211 56.2675 68.0104 56.4702C68.1997 56.6729 68.3465 56.913 68.4415 57.1758C68.5366 57.4386 68.5781 57.7185 68.5633 57.9982L68.0229 70.7608C67.9901 71.3409 67.7433 71.8868 67.3322 72.2883C66.921 72.6899 66.3761 72.9173 65.8073 72.9247Z" fill="#FAFAFA"/>
<path d="M84.8747 72.9247H72.3862C72.112 72.9258 71.8404 72.8698 71.588 72.7603C71.3356 72.6507 71.1076 72.4898 70.9181 72.2873C70.7285 72.0849 70.5812 71.8452 70.4852 71.5827C70.3893 71.3203 70.3466 71.0406 70.3598 70.7608L70.9002 57.9982C70.9316 57.4186 71.1773 56.8728 71.5876 56.4711C71.9978 56.0694 72.5421 55.8418 73.1104 55.8343H85.6042C85.8824 55.8292 86.1586 55.883 86.4155 55.9923C86.6723 56.1016 86.9043 56.264 87.0967 56.4693C87.289 56.6747 87.4377 56.9185 87.5334 57.1854C87.629 57.4523 87.6695 57.7366 87.6523 58.0203L87.1119 70.7829C87.0736 71.3629 86.8214 71.9064 86.4062 72.3039C85.991 72.7014 85.4437 72.9232 84.8747 72.9247Z" fill="#FAFAFA"/>
<path d="M103.941 72.9247H91.4475C91.1735 72.9258 90.9021 72.8698 90.65 72.7602C90.3979 72.6506 90.1703 72.4896 89.9811 72.287C89.7919 72.0845 89.6452 71.8447 89.5498 71.5823C89.4545 71.3199 89.4125 71.0403 89.4264 70.7608L89.9668 57.9982C89.9956 57.4137 90.2413 56.8623 90.6539 56.4563C91.0665 56.0502 91.615 55.8199 92.1878 55.8122H104.682C104.956 55.8111 105.227 55.8671 105.479 55.9767C105.731 56.0864 105.959 56.2473 106.148 56.4499C106.337 56.6524 106.484 56.8922 106.579 57.1546C106.675 57.417 106.717 57.6966 106.703 57.9761L106.162 70.7387C106.134 71.3232 105.888 71.8746 105.475 72.2806C105.063 72.6867 104.514 72.917 103.941 72.9247Z" fill="#FAFAFA"/>
<path d="M122.99 72.9247H110.518C110.244 72.9266 109.972 72.8711 109.72 72.7618C109.467 72.6524 109.239 72.4914 109.05 72.2887C108.861 72.0861 108.714 71.8459 108.619 71.5832C108.524 71.3204 108.482 71.0405 108.497 70.7608L109.037 57.9982C109.07 57.4181 109.317 56.8722 109.728 56.4707C110.139 56.0691 110.684 55.8417 111.253 55.8343H123.741C124.016 55.8332 124.287 55.8891 124.54 55.9987C124.792 56.1083 125.02 56.2692 125.21 56.4716C125.399 56.6741 125.546 56.9138 125.642 57.1763C125.738 57.4387 125.781 57.7183 125.768 57.9982L125.201 70.7608C125.169 71.3404 124.923 71.8862 124.513 72.2879C124.103 72.6896 123.559 72.9172 122.99 72.9247Z" fill="#FAFAFA"/>
</g>
<path d="M26.7981 92.7199H14.2935C14.0193 92.7218 13.7475 92.6664 13.495 92.5571C13.2425 92.4477 13.0146 92.2867 12.8253 92.084C12.636 91.8813 12.4893 91.6412 12.3942 91.3784C12.2991 91.1156 12.2577 90.8358 12.2724 90.556L12.8128 77.7989C12.8456 77.2188 13.0924 76.673 13.5036 76.2714C13.9148 75.8699 14.4596 75.6425 15.0284 75.6351H27.5223C27.7965 75.6331 28.0682 75.6886 28.3207 75.7979C28.5732 75.9073 28.8011 76.0683 28.9905 76.271C29.1798 76.4737 29.3265 76.7138 29.4216 76.9766C29.5166 77.2393 29.5581 77.5192 29.5433 77.7989L29.0029 90.556C28.9716 91.1347 28.7266 91.6797 28.3175 92.0813C27.9084 92.4828 27.3654 92.711 26.7981 92.7199Z" fill="#D4B139"/>
<path d="M45.8616 92.72H33.3677C33.0935 92.7219 32.8218 92.6665 32.5693 92.5571C32.3168 92.4477 32.0889 92.2868 31.8995 92.0841C31.7102 91.8814 31.5635 91.6412 31.4684 91.3785C31.3733 91.1157 31.3319 90.8358 31.3467 90.5561L31.8871 77.799C31.9186 77.2184 32.165 76.6718 32.5764 76.27C32.9879 75.8682 33.5335 75.6412 34.1026 75.6351H46.5911C46.8658 75.6324 47.1381 75.6873 47.3912 75.7963C47.6444 75.9053 47.8729 76.0662 48.0628 76.269C48.2527 76.4718 48.3999 76.7121 48.4953 76.9753C48.5907 77.2385 48.6323 77.5188 48.6175 77.799L48.0772 90.5561C48.0469 91.1371 47.8009 91.6845 47.3892 92.0866C46.9775 92.4886 46.4311 92.7152 45.8616 92.72Z" fill="#D4B139"/>
<path d="M64.9265 92.7199H52.438C52.1638 92.7218 51.8921 92.6664 51.6396 92.5571C51.3871 92.4477 51.1592 92.2867 50.9699 92.084C50.7805 91.8813 50.6338 91.6412 50.5387 91.3784C50.4437 91.1156 50.4022 90.8358 50.417 90.556L50.9574 77.7989C50.9889 77.2184 51.2353 76.6718 51.6468 76.27C52.0582 75.8681 52.6038 75.6412 53.173 75.6351H65.71C65.9845 75.6332 66.2565 75.6886 66.5092 75.7979C66.762 75.9072 66.9902 76.0681 67.18 76.2707C67.3697 76.4733 67.517 76.7134 67.6126 76.9762C67.7083 77.239 67.7505 77.5189 67.7365 77.7989L67.1691 90.556C67.1373 91.1413 66.887 91.6919 66.4699 92.0944C66.0527 92.497 65.5003 92.7208 64.9265 92.7199Z" fill="#D4B139"/>
<path d="M83.998 92.7199H71.5096C71.2351 92.7218 70.9631 92.6664 70.7103 92.5571C70.4576 92.4478 70.2293 92.2869 70.0396 92.0843C69.8499 91.8817 69.7026 91.6416 69.6069 91.3788C69.5112 91.116 69.4691 90.8361 69.4831 90.556L70.0235 77.7989C70.0537 77.2189 70.299 76.6723 70.7095 76.2704C71.1201 75.8684 71.665 75.6413 72.2337 75.6351H84.7275C85.0018 75.6331 85.2735 75.6886 85.526 75.7979C85.7785 75.9073 86.0064 76.0683 86.1957 76.271C86.385 76.4737 86.5317 76.7138 86.6268 76.9766C86.7219 77.2393 86.7633 77.5192 86.7486 77.7989L86.2082 90.556C86.1767 91.1357 85.931 91.6815 85.5208 92.0832C85.1105 92.4848 84.5662 92.7124 83.998 92.7199Z" fill="#D4B139"/>
<path d="M103.066 92.7199H90.5669C90.2927 92.7218 90.021 92.6664 89.7685 92.5571C89.516 92.4477 89.2881 92.2867 89.0988 92.084C88.9094 91.8813 88.7627 91.6412 88.6677 91.3784C88.5726 91.1156 88.5311 90.8358 88.5459 90.556L89.0863 77.7989C89.119 77.2188 89.3659 76.673 89.777 76.2714C90.1882 75.8699 90.7331 75.6425 91.3019 75.6351H103.796C104.07 75.6331 104.342 75.6886 104.594 75.7979C104.847 75.9073 105.075 76.0683 105.264 76.271C105.453 76.4737 105.6 76.7138 105.695 76.9766C105.79 77.2393 105.832 77.5192 105.817 77.7989L105.276 90.556C105.244 91.1352 104.998 91.6803 104.588 92.0817C104.178 92.4831 103.634 92.7111 103.066 92.7199Z" fill="#D4B139"/>
<path d="M122.139 92.7199H109.645C109.371 92.7218 109.099 92.6664 108.847 92.5571C108.594 92.4477 108.366 92.2867 108.177 92.084C107.988 91.8813 107.841 91.6412 107.746 91.3784C107.651 91.1156 107.609 90.8358 107.624 90.556L108.164 77.7989C108.196 77.2184 108.442 76.6718 108.854 76.27C109.265 75.8681 109.811 75.6412 110.38 75.6351H122.868C123.143 75.6332 123.415 75.6886 123.668 75.7979C123.92 75.9072 124.149 76.0681 124.338 76.2707C124.528 76.4733 124.675 76.7134 124.771 76.9762C124.867 77.239 124.909 77.5189 124.895 77.7989L124.327 90.556C124.298 91.1324 124.055 91.6758 123.649 92.0772C123.243 92.4786 122.704 92.7082 122.139 92.7199Z" fill="#D4B139"/>
<g opacity="0.8">
<path d="M26.8001 92.72H14.2955C14.0212 92.7219 13.7495 92.6665 13.497 92.5571C13.2445 92.4478 13.0166 92.2868 12.8273 92.0841C12.638 91.8814 12.4912 91.6413 12.3962 91.3785C12.3011 91.1157 12.2596 90.8358 12.2744 90.5561L12.8148 77.799C12.8476 77.2189 13.0944 76.6731 13.5056 76.2715C13.9167 75.8699 14.4616 75.6425 15.0304 75.6351H27.5242C27.7985 75.6332 28.0702 75.6886 28.3227 75.798C28.5752 75.9074 28.8031 76.0683 28.9924 76.271C29.1817 76.4737 29.3284 76.7139 29.4235 76.9766C29.5186 77.2394 29.56 77.5193 29.5453 77.799L29.0049 90.5561C28.9735 91.1348 28.7286 91.6798 28.3195 92.0814C27.9103 92.4829 27.3674 92.7111 26.8001 92.72Z" fill="#FAFAFA"/>
<path d="M45.8596 92.72H33.3658C33.0915 92.7219 32.8198 92.6665 32.5673 92.5571C32.3148 92.4477 32.0869 92.2868 31.8976 92.0841C31.7083 91.8814 31.5616 91.6412 31.4665 91.3785C31.3714 91.1157 31.33 90.8358 31.3447 90.5561L31.8851 77.799C31.9166 77.2184 32.1631 76.6718 32.5745 76.27C32.9859 75.8682 33.5315 75.6412 34.1007 75.6351H46.5891C46.8638 75.6324 47.1361 75.6873 47.3893 75.7963C47.6424 75.9053 47.871 76.0662 48.0609 76.269C48.2508 76.4718 48.398 76.7121 48.4934 76.9753C48.5888 77.2385 48.6304 77.5188 48.6156 77.799L48.0752 90.5561C48.045 91.1371 47.7989 91.6845 47.3872 92.0866C46.9755 92.4886 46.4292 92.7152 45.8596 92.72Z" fill="#FAFAFA"/>
<path d="M64.9284 92.72H52.44C52.1657 92.7219 51.894 92.6665 51.6415 92.5571C51.389 92.4478 51.1611 92.2868 50.9718 92.0841C50.7825 91.8814 50.6358 91.6413 50.5407 91.3785C50.4456 91.1157 50.4042 90.8358 50.4189 90.5561L50.9593 77.799C50.9908 77.2184 51.2373 76.6719 51.6487 76.27C52.0601 75.8682 52.6057 75.6412 53.1749 75.6351H65.712C65.9865 75.6332 66.2584 75.6887 66.5112 75.798C66.7639 75.9073 66.9922 76.0682 67.1819 76.2708C67.3717 76.4734 67.5189 76.7134 67.6146 76.9762C67.7103 77.239 67.7524 77.519 67.7385 77.799L67.171 90.5561C67.1392 91.1414 66.889 91.692 66.4718 92.0945C66.0546 92.497 65.5023 92.7209 64.9284 92.72Z" fill="#FAFAFA"/>
<path d="M83.996 92.72H71.5076C71.2331 92.7219 70.9612 92.6665 70.7084 92.5572C70.4556 92.4479 70.2274 92.287 70.0377 92.0844C69.8479 91.8817 69.7007 91.6417 69.605 91.3789C69.5093 91.1161 69.4671 90.8361 69.4811 90.5561L70.0215 77.799C70.0517 77.2189 70.297 76.6724 70.7076 76.2704C71.1181 75.8685 71.6631 75.6413 72.2317 75.6351H84.7256C84.9998 75.6332 85.2715 75.6886 85.524 75.798C85.7765 75.9074 86.0044 76.0683 86.1937 76.271C86.3831 76.4737 86.5298 76.7139 86.6248 76.9766C86.7199 77.2394 86.7614 77.5193 86.7466 77.799L86.2062 90.5561C86.1748 91.1357 85.9291 91.6815 85.5188 92.0832C85.1085 92.4849 84.5643 92.7125 83.996 92.72Z" fill="#FAFAFA"/>
<path d="M103.068 92.72H90.5689C90.2946 92.7219 90.0229 92.6665 89.7704 92.5571C89.5179 92.4478 89.29 92.2868 89.1007 92.0841C88.9114 91.8814 88.7647 91.6413 88.6696 91.3785C88.5745 91.1157 88.5331 90.8358 88.5478 90.5561L89.0882 77.799C89.121 77.2189 89.3678 76.6731 89.779 76.2715C90.1901 75.8699 90.735 75.6425 91.3038 75.6351H103.798C104.072 75.6332 104.344 75.6886 104.596 75.798C104.849 75.9074 105.077 76.0683 105.266 76.271C105.455 76.4737 105.602 76.7139 105.697 76.9766C105.792 77.2394 105.833 77.5193 105.819 77.799L105.278 90.5561C105.246 91.1353 105 91.6803 104.59 92.0818C104.18 92.4832 103.636 92.7112 103.068 92.72Z" fill="#FAFAFA"/>
<path d="M122.133 92.72H109.639C109.365 92.7219 109.093 92.6665 108.841 92.5571C108.588 92.4478 108.36 92.2868 108.171 92.0841C107.982 91.8814 107.835 91.6413 107.74 91.3785C107.645 91.1157 107.603 90.8358 107.618 90.5561L108.159 77.799C108.19 77.2184 108.437 76.6719 108.848 76.27C109.259 75.8682 109.805 75.6412 110.374 75.6351H122.863C123.137 75.6332 123.409 75.6887 123.662 75.798C123.915 75.9073 124.143 76.0682 124.333 76.2708C124.522 76.4734 124.669 76.7134 124.765 76.9762C124.861 77.239 124.903 77.519 124.889 77.799L124.322 90.5561C124.292 91.1324 124.049 91.6758 123.643 92.0772C123.238 92.4786 122.698 92.7083 122.133 92.72Z" fill="#FAFAFA"/>
</g>
<path d="M23.2647 25.6942C18.6606 25.6942 15.0508 20.2238 15.0508 13.2408C15.0508 6.25777 18.6606 0.792816 23.2647 0.792816C27.8688 0.792816 31.4841 6.26329 31.4841 13.2408C31.4631 13.568 31.321 13.8749 31.0867 14.0991C30.8524 14.3233 30.5433 14.4481 30.2223 14.4481C29.9012 14.4481 29.5921 14.3233 29.3578 14.0991C29.1235 13.8749 28.9814 13.568 28.9604 13.2408C28.9604 7.89174 26.3558 3.36521 23.2647 3.36521C20.1737 3.36521 17.569 7.89174 17.569 13.2408C17.569 18.5898 20.1791 23.1163 23.2647 23.1163C23.4374 23.1048 23.6105 23.1295 23.7734 23.1891C23.9363 23.2486 24.0855 23.3417 24.2118 23.4625C24.3381 23.5834 24.4387 23.7294 24.5075 23.8915C24.5764 24.0537 24.6119 24.2286 24.6119 24.4053C24.6119 24.582 24.5764 24.7569 24.5075 24.919C24.4387 25.0812 24.3381 25.2272 24.2118 25.348C24.0855 25.4689 23.9363 25.5619 23.7734 25.6215C23.6105 25.681 23.4374 25.7058 23.2647 25.6942Z" fill="#D4B139"/>
<path d="M42.335 25.6942C37.7309 25.6942 34.1211 20.2238 34.1211 13.2408C34.1211 6.25777 37.7309 0.792816 42.335 0.792816C46.9392 0.792816 50.5814 6.26329 50.5814 13.2408C50.5604 13.568 50.4184 13.8749 50.184 14.0991C49.9497 14.3233 49.6407 14.4481 49.3196 14.4481C48.9985 14.4481 48.6895 14.3233 48.4551 14.0991C48.2208 13.8749 48.0788 13.568 48.0578 13.2408C48.0578 7.89174 45.4531 3.36521 42.3621 3.36521C39.271 3.36521 36.6663 7.89174 36.6663 13.2408C36.6663 18.5898 39.2764 23.1163 42.3621 23.1163C42.6824 23.1377 42.9828 23.2829 43.2023 23.5222C43.4218 23.7616 43.544 24.0773 43.544 24.4053C43.544 24.7333 43.4218 25.0489 43.2023 25.2883C42.9828 25.5277 42.6824 25.6728 42.3621 25.6942H42.335Z" fill="#D4B139"/>
<path d="M61.3873 25.6942C56.7778 25.6942 53.168 20.2238 53.168 13.2408C53.168 6.25777 56.7778 0.792816 61.3873 0.792816C65.9969 0.792816 69.6013 6.26329 69.6013 13.2408C69.6013 13.5819 69.4686 13.909 69.2325 14.1502C68.9963 14.3915 68.6761 14.527 68.3421 14.527C68.0082 14.527 67.688 14.3915 67.4518 14.1502C67.2157 13.909 67.083 13.5819 67.083 13.2408C67.083 7.89174 64.4729 3.36521 61.3873 3.36521C58.3017 3.36521 55.6916 7.89174 55.6916 13.2408C55.6916 18.5898 58.3017 23.1163 61.3873 23.1163C61.7077 23.1377 62.0081 23.2829 62.2276 23.5222C62.4471 23.7616 62.5692 24.0773 62.5692 24.4053C62.5692 24.7333 62.4471 25.0489 62.2276 25.2883C62.0081 25.5277 61.7077 25.6728 61.3873 25.6942Z" fill="#D4B139"/>
<path d="M80.4772 25.6942C75.8676 25.6942 72.2578 20.2238 72.2578 13.2408C72.2578 6.25777 75.8676 0.792816 80.4772 0.792816C85.0867 0.792816 88.6911 6.26329 88.6911 13.2408C88.6911 13.5819 88.5584 13.909 88.3223 14.1502C88.0862 14.3915 87.7659 14.527 87.432 14.527C87.0981 14.527 86.7778 14.3915 86.5417 14.1502C86.3055 13.909 86.1729 13.5819 86.1729 13.2408C86.1729 7.89174 83.5628 3.36521 80.4772 3.36521C77.3915 3.36521 74.7814 7.89174 74.7814 13.2408C74.7814 18.5898 77.3861 23.1163 80.4772 23.1163C80.7976 23.1377 81.098 23.2829 81.3174 23.5222C81.5369 23.7616 81.6591 24.0773 81.6591 24.4053C81.6591 24.7333 81.5369 25.0489 81.3174 25.2883C81.098 25.5277 80.7976 25.6728 80.4772 25.6942Z" fill="#D4B139"/>
<path d="M99.5382 25.6942C94.934 25.6942 91.3242 20.2238 91.3242 13.2408C91.3242 6.25777 94.934 0.792816 99.5382 0.792816C104.142 0.792816 107.758 6.26329 107.758 13.2408C107.737 13.568 107.594 13.8749 107.36 14.0991C107.126 14.3233 106.817 14.4481 106.496 14.4481C106.175 14.4481 105.866 14.3233 105.631 14.0991C105.397 13.8749 105.255 13.568 105.234 13.2408C105.234 7.89174 102.629 3.36521 99.5382 3.36521C96.4471 3.36521 93.8424 7.89174 93.8424 13.2408C93.8424 18.5898 96.4525 23.1163 99.5382 23.1163C99.7108 23.1048 99.8839 23.1295 100.047 23.1891C100.21 23.2486 100.359 23.3417 100.485 23.4625C100.611 23.5834 100.712 23.7294 100.781 23.8915C100.85 24.0537 100.885 24.2286 100.885 24.4053C100.885 24.582 100.85 24.7569 100.781 24.919C100.712 25.0812 100.611 25.2272 100.485 25.348C100.359 25.4689 100.21 25.5619 100.047 25.6215C99.8839 25.681 99.7108 25.7058 99.5382 25.6942Z" fill="#D4B139"/>
<path d="M118.608 25.6942C114.004 25.6942 110.395 20.2238 110.395 13.2408C110.395 6.25777 114.004 0.792816 118.608 0.792816C123.213 0.792816 126.828 6.26329 126.828 13.2408C126.807 13.568 126.665 13.8749 126.43 14.0991C126.196 14.3233 125.887 14.4481 125.566 14.4481C125.245 14.4481 124.936 14.3233 124.702 14.0991C124.467 13.8749 124.325 13.568 124.304 13.2408C124.304 7.89174 121.694 3.36521 118.608 3.36521C115.523 3.36521 112.913 7.89174 112.913 13.2408C112.913 18.5898 115.523 23.1163 118.608 23.1163C118.929 23.1377 119.229 23.2829 119.449 23.5222C119.668 23.7616 119.79 24.0773 119.79 24.4053C119.79 24.7333 119.668 25.0489 119.449 25.2883C119.229 25.5277 118.929 25.6728 118.608 25.6942Z" fill="#D4B139"/>
<g opacity="0.3">
<path d="M23.2569 25.6942C18.6528 25.6942 15.043 20.2238 15.043 13.2408C15.043 6.25777 18.6528 0.792816 23.2569 0.792816C27.861 0.792816 31.4763 6.26329 31.4763 13.2408C31.4553 13.568 31.3132 13.8749 31.0789 14.0991C30.8446 14.3233 30.5355 14.4481 30.2144 14.4481C29.8934 14.4481 29.5843 14.3233 29.35 14.0991C29.1157 13.8749 28.9736 13.568 28.9526 13.2408C28.9526 7.89174 26.3479 3.36521 23.2569 3.36521C20.1659 3.36521 17.5612 7.89174 17.5612 13.2408C17.5612 18.5898 20.1713 23.1163 23.2569 23.1163C23.4296 23.1048 23.6027 23.1295 23.7656 23.1891C23.9285 23.2486 24.0777 23.3417 24.204 23.4625C24.3302 23.5834 24.4309 23.7294 24.4997 23.8915C24.5685 24.0537 24.604 24.2286 24.604 24.4053C24.604 24.582 24.5685 24.7569 24.4997 24.919C24.4309 25.0812 24.3302 25.2272 24.204 25.348C24.0777 25.4689 23.9285 25.5619 23.7656 25.6215C23.6027 25.681 23.4296 25.7058 23.2569 25.6942Z" fill="black"/>
<path d="M42.3272 25.6942C37.7231 25.6942 34.1133 20.2238 34.1133 13.2408C34.1133 6.25777 37.7231 0.792816 42.3272 0.792816C46.9314 0.792816 50.5736 6.26329 50.5736 13.2408C50.5526 13.568 50.4105 13.8749 50.1762 14.0991C49.9419 14.3233 49.6328 14.4481 49.3118 14.4481C48.9907 14.4481 48.6817 14.3233 48.4473 14.0991C48.213 13.8749 48.0709 13.568 48.05 13.2408C48.05 7.89174 45.4453 3.36521 42.3542 3.36521C39.2632 3.36521 36.6585 7.89174 36.6585 13.2408C36.6585 18.5898 39.2686 23.1163 42.3542 23.1163C42.6746 23.1377 42.975 23.2829 43.1945 23.5222C43.414 23.7616 43.5361 24.0773 43.5361 24.4053C43.5361 24.7333 43.414 25.0489 43.1945 25.2883C42.975 25.5277 42.6746 25.6728 42.3542 25.6942H42.3272Z" fill="black"/>
<path d="M61.3756 25.6942C56.7661 25.6942 53.1562 20.2238 53.1562 13.2408C53.1562 6.25777 56.7661 0.792816 61.3756 0.792816C65.9851 0.792816 69.5895 6.26329 69.5895 13.2408C69.5895 13.5819 69.4569 13.909 69.2207 14.1502C68.9846 14.3915 68.6644 14.527 68.3304 14.527C67.9965 14.527 67.6762 14.3915 67.4401 14.1502C67.204 13.909 67.0713 13.5819 67.0713 13.2408C67.0713 7.89174 64.4612 3.36521 61.3756 3.36521C58.29 3.36521 55.6799 7.89174 55.6799 13.2408C55.6799 18.5898 58.29 23.1163 61.3756 23.1163C61.696 23.1377 61.9964 23.2829 62.2159 23.5222C62.4354 23.7616 62.5575 24.0773 62.5575 24.4053C62.5575 24.7333 62.4354 25.0489 62.2159 25.2883C61.9964 25.5277 61.696 25.6728 61.3756 25.6942Z" fill="black"/>
<path d="M80.4694 25.6942C75.8598 25.6942 72.25 20.2238 72.25 13.2408C72.25 6.25777 75.8598 0.792816 80.4694 0.792816C85.0789 0.792816 88.6833 6.26329 88.6833 13.2408C88.6833 13.5819 88.5506 13.909 88.3145 14.1502C88.0784 14.3915 87.7581 14.527 87.4242 14.527C87.0902 14.527 86.77 14.3915 86.5339 14.1502C86.2977 13.909 86.1651 13.5819 86.1651 13.2408C86.1651 7.89174 83.555 3.36521 80.4694 3.36521C77.3837 3.36521 74.7736 7.89174 74.7736 13.2408C74.7736 18.5898 77.3783 23.1163 80.4694 23.1163C80.7897 23.1377 81.0901 23.2829 81.3096 23.5222C81.5291 23.7616 81.6512 24.0773 81.6512 24.4053C81.6512 24.7333 81.5291 25.0489 81.3096 25.2883C81.0901 25.5277 80.7897 25.6728 80.4694 25.6942Z" fill="black"/>
<path d="M99.5304 25.6942C94.9262 25.6942 91.3164 20.2238 91.3164 13.2408C91.3164 6.25777 94.9262 0.792816 99.5304 0.792816C104.134 0.792816 107.75 6.26329 107.75 13.2408C107.729 13.568 107.587 13.8749 107.352 14.0991C107.118 14.3233 106.809 14.4481 106.488 14.4481C106.167 14.4481 105.858 14.3233 105.623 14.0991C105.389 13.8749 105.247 13.568 105.226 13.2408C105.226 7.89174 102.621 3.36521 99.5304 3.36521C96.4393 3.36521 93.8346 7.89174 93.8346 13.2408C93.8346 18.5898 96.4447 23.1163 99.5304 23.1163C99.703 23.1048 99.8761 23.1295 100.039 23.1891C100.202 23.2486 100.351 23.3417 100.477 23.4625C100.604 23.5834 100.704 23.7294 100.773 23.8915C100.842 24.0537 100.877 24.2286 100.877 24.4053C100.877 24.582 100.842 24.7569 100.773 24.919C100.704 25.0812 100.604 25.2272 100.477 25.348C100.351 25.4689 100.202 25.5619 100.039 25.6215C99.8761 25.681 99.703 25.7058 99.5304 25.6942Z" fill="black"/>
<path d="M118.601 25.6942C113.997 25.6942 110.387 20.2238 110.387 13.2408C110.387 6.25777 113.997 0.792816 118.601 0.792816C123.205 0.792816 126.82 6.26329 126.82 13.2408C126.799 13.568 126.657 13.8749 126.423 14.0991C126.188 14.3233 125.879 14.4481 125.558 14.4481C125.237 14.4481 124.928 14.3233 124.694 14.0991C124.459 13.8749 124.317 13.568 124.296 13.2408C124.296 7.89174 121.686 3.36521 118.601 3.36521C115.515 3.36521 112.905 7.89174 112.905 13.2408C112.905 18.5898 115.515 23.1163 118.601 23.1163C118.921 23.1377 119.221 23.2829 119.441 23.5222C119.66 23.7616 119.783 24.0773 119.783 24.4053C119.783 24.7333 119.66 25.0489 119.441 25.2883C119.221 25.5277 118.921 25.6728 118.601 25.6942Z" fill="black"/>
</g>
<path d="M81.7492 53.836C77.3396 52.9417 72.3896 53.985 70.6226 58.7324C69.2013 62.5523 71.0225 66.6924 74.9457 67.7026C78.4042 68.5914 84.3701 67.5039 85.6022 63.43C87.0126 58.771 81.2791 57.2585 78.0637 56.9825C77.0964 56.8997 77.1018 58.4453 78.0637 58.5281C79.5282 58.6551 81.2034 58.7379 82.5004 59.5604C85.2023 61.2882 84.0891 64.0593 81.787 65.3842C79.485 66.709 75.9562 67.0402 73.6812 65.5718C71.1954 63.9544 71.1143 60.3995 72.6004 58.081C74.5512 55.0173 78.1124 54.6751 81.3223 55.3209C82.2734 55.5141 82.6787 54.0237 81.7222 53.8305L81.7492 53.836Z" fill="#D4B139"/>
<path opacity="0.1" d="M81.7492 53.836C77.3396 52.9417 72.3896 53.985 70.6226 58.7324C69.2013 62.5523 71.0225 66.6924 74.9457 67.7026C78.4042 68.5914 84.3701 67.5039 85.6022 63.43C87.0126 58.771 81.2791 57.2585 78.0637 56.9825C77.0964 56.8997 77.1018 58.4453 78.0637 58.5281C79.5282 58.6551 81.2034 58.7379 82.5004 59.5604C85.2023 61.2882 84.0891 64.0593 81.787 65.3842C79.485 66.709 75.9562 67.0402 73.6812 65.5718C71.1954 63.9544 71.1143 60.3995 72.6004 58.081C74.5512 55.0173 78.1124 54.6751 81.3223 55.3209C82.2734 55.5141 82.6787 54.0237 81.7222 53.8305L81.7492 53.836Z" fill="#FAFAFA"/>
<path d="M33.0987 36.0555C37.3158 41.7662 42.0174 47.0862 47.1489 51.9536C47.8622 52.6326 48.9376 51.5396 48.2297 50.8496C43.1861 46.0783 38.5624 40.8638 34.4119 35.2662C33.8337 34.4823 32.5205 35.2662 33.1096 36.0445L33.0987 36.0555Z" fill="#D4B139"/>
<path d="M34.6621 51.3078C37.8504 45.5171 43.4327 40.5766 48.7123 36.7953C49.5013 36.2432 48.7501 34.8853 47.9503 35.4594C42.46 39.4008 36.6886 44.4904 33.3598 50.5239C33.2684 50.6997 33.247 50.9047 33.2999 51.0962C33.3529 51.2877 33.4761 51.451 33.644 51.5521C33.8118 51.6531 34.0114 51.6841 34.201 51.6386C34.3907 51.5931 34.5559 51.4746 34.6621 51.3078Z" fill="#D4B139"/>
<g opacity="0.2">
<path d="M33.1007 36.0555C37.3178 41.7662 42.0194 47.0862 47.1509 51.9536C47.8642 52.6326 48.9396 51.5396 48.2316 50.8496C43.188 46.0783 38.5643 40.8638 34.4139 35.2662C33.8356 34.4823 32.5225 35.2662 33.1115 36.0445L33.1007 36.0555Z" fill="black"/>
<path d="M34.6641 51.3078C37.8524 45.5171 43.4346 40.5766 48.7142 36.7953C49.5032 36.2433 48.7521 34.8853 47.9523 35.4594C42.4619 39.4008 36.6905 44.4904 33.3617 50.5239C33.2704 50.6997 33.249 50.9047 33.3019 51.0962C33.3548 51.2878 33.4781 51.4511 33.6459 51.5521C33.8138 51.6531 34.0133 51.6841 34.203 51.6386C34.3926 51.5931 34.5578 51.4746 34.6641 51.3078Z" fill="black"/>
</g>
<path d="M93.1985 40.9961H103.061C103.25 40.9798 103.426 40.8915 103.554 40.7489C103.682 40.6063 103.753 40.4197 103.753 40.2261C103.753 40.0324 103.682 39.8458 103.554 39.7032C103.426 39.5606 103.25 39.4723 103.061 39.456H93.1985C93.0096 39.4723 92.8336 39.5606 92.7053 39.7032C92.577 39.8458 92.5059 40.0324 92.5059 40.2261C92.5059 40.4197 92.577 40.6063 92.7053 40.7489C92.8336 40.8915 93.0096 40.9798 93.1985 40.9961Z" fill="#D4B139"/>
<path d="M93.0905 43.8611H98.8079C99.0085 43.8611 99.2009 43.7797 99.3428 43.6347C99.4847 43.4898 99.5644 43.2932 99.5644 43.0883C99.5644 42.8833 99.4847 42.6867 99.3428 42.5418C99.2009 42.3969 99.0085 42.3154 98.8079 42.3154H93.0905C92.8899 42.3154 92.6974 42.3969 92.5556 42.5418C92.4137 42.6867 92.334 42.8833 92.334 43.0883C92.334 43.2932 92.4137 43.4898 92.5556 43.6347C92.6974 43.7797 92.8899 43.8611 93.0905 43.8611Z" fill="#D4B139"/>
<g opacity="0.1">
<path d="M93.2063 40.9961H103.068C103.257 40.9798 103.433 40.8915 103.562 40.7489C103.69 40.6063 103.761 40.4197 103.761 40.2261C103.761 40.0324 103.69 39.8458 103.562 39.7032C103.433 39.5606 103.257 39.4723 103.068 39.456H93.2063C93.0174 39.4723 92.8414 39.5606 92.7131 39.7032C92.5848 39.8458 92.5137 40.0324 92.5137 40.2261C92.5137 40.4197 92.5848 40.6063 92.7131 40.7489C92.8414 40.8915 93.0174 40.9798 93.2063 40.9961Z" fill="#FAFAFA"/>
<path d="M93.0905 43.8611H98.8079C99.0085 43.8611 99.2009 43.7797 99.3428 43.6347C99.4847 43.4898 99.5644 43.2932 99.5644 43.0883C99.5644 42.8833 99.4847 42.6867 99.3428 42.5418C99.2009 42.3969 99.0085 42.3154 98.8079 42.3154H93.0905C92.8899 42.3154 92.6974 42.3969 92.5556 42.5418C92.4137 42.6867 92.334 42.8833 92.334 43.0883C92.334 43.2932 92.4137 43.4898 92.5556 43.6347C92.6974 43.7797 92.8899 43.8611 93.0905 43.8611Z" fill="#FAFAFA"/>
</g>
<path d="M34.1315 80.5425H42.5887C42.7893 80.5425 42.9817 80.4611 43.1236 80.3162C43.2655 80.1712 43.3452 79.9747 43.3452 79.7697C43.3452 79.5647 43.2655 79.3682 43.1236 79.2232C42.9817 79.0783 42.7893 78.9969 42.5887 78.9969H34.1315C33.9309 78.9969 33.7385 79.0783 33.5966 79.2232C33.4547 79.3682 33.375 79.5647 33.375 79.7697C33.375 79.9747 33.4547 80.1712 33.5966 80.3162C33.7385 80.4611 33.9309 80.5425 34.1315 80.5425Z" fill="#D4B139"/>
<path d="M33.8288 83.8601H44.7987C44.9994 83.8601 45.1918 83.7787 45.3337 83.6337C45.4756 83.4888 45.5553 83.2922 45.5553 83.0873C45.5553 82.8823 45.4756 82.6857 45.3337 82.5408C45.1918 82.3959 44.9994 82.3145 44.7987 82.3145H33.8288C33.6282 82.3145 33.4357 82.3959 33.2939 82.5408C33.152 82.6857 33.0723 82.8823 33.0723 83.0873C33.0723 83.2922 33.152 83.4888 33.2939 83.6337C33.4357 83.7787 33.6282 83.8601 33.8288 83.8601Z" fill="#D4B139"/>
<path d="M33.8288 87.2771H39.3138C39.5144 87.2771 39.7069 87.1957 39.8487 87.0507C39.9906 86.9058 40.0703 86.7092 40.0703 86.5043C40.0703 86.2993 39.9906 86.1027 39.8487 85.9578C39.7069 85.8129 39.5144 85.7314 39.3138 85.7314H33.8288C33.6282 85.7314 33.4357 85.8129 33.2939 85.9578C33.152 86.1027 33.0723 86.2993 33.0723 86.5043C33.0723 86.7092 33.152 86.9058 33.2939 87.0507C33.4357 87.1957 33.6282 87.2771 33.8288 87.2771Z" fill="#D4B139"/>
<g opacity="0.1">
<path d="M34.1335 80.5425H42.5906C42.7913 80.5425 42.9837 80.4611 43.1256 80.3162C43.2675 80.1712 43.3472 79.9747 43.3472 79.7697C43.3472 79.5647 43.2675 79.3682 43.1256 79.2232C42.9837 79.0783 42.7913 78.9969 42.5906 78.9969H34.1335C33.9328 78.9969 33.7404 79.0783 33.5985 79.2232C33.4567 79.3682 33.377 79.5647 33.377 79.7697C33.377 79.9747 33.4567 80.1712 33.5985 80.3162C33.7404 80.4611 33.9328 80.5425 34.1335 80.5425Z" fill="#FAFAFA"/>
<path d="M33.8269 83.8601H44.7968C44.9974 83.8601 45.1899 83.7787 45.3317 83.6337C45.4736 83.4888 45.5533 83.2922 45.5533 83.0873C45.5533 82.8823 45.4736 82.6857 45.3317 82.5408C45.1899 82.3959 44.9974 82.3145 44.7968 82.3145H33.8269C33.6262 82.3145 33.4338 82.3959 33.2919 82.5408C33.15 82.6857 33.0703 82.8823 33.0703 83.0873C33.0703 83.2922 33.15 83.4888 33.2919 83.6337C33.4338 83.7787 33.6262 83.8601 33.8269 83.8601Z" fill="#FAFAFA"/>
<path d="M33.8269 87.2771H39.3118C39.5125 87.2771 39.7049 87.1957 39.8468 87.0508C39.9887 86.9058 40.0684 86.7093 40.0684 86.5043C40.0684 86.2994 39.9887 86.1028 39.8468 85.9579C39.7049 85.8129 39.5125 85.7315 39.3118 85.7315H33.8269C33.6262 85.7315 33.4338 85.8129 33.2919 85.9579C33.15 86.1028 33.0703 86.2994 33.0703 86.5043C33.0703 86.7093 33.15 86.9058 33.2919 87.0508C33.4338 87.1957 33.6262 87.2771 33.8269 87.2771Z" fill="#FAFAFA"/>
</g>
</g>
<defs>
<clipPath id="clip0_1_38">
<rect width="148" height="106" fill="white"/>
</clipPath>
</defs>
</svg>
