<svg width="25" height="24" viewBox="0 0 25 24" fill="none" xmlns="http://www.w3.org/2000/svg">
<rect x="1" y="0.5" width="23" height="23" rx="7.5" fill="#E7F6EC"/>
<rect x="1" y="0.5" width="23" height="23" rx="7.5" stroke="#B5E3C4"/>
<path fill-rule="evenodd" clip-rule="evenodd" d="M12.5 16.5C14.9853 16.5 17 14.4853 17 12C17 9.51472 14.9853 7.5 12.5 7.5C10.0147 7.5 8 9.51472 8 12C8 14.4853 10.0147 16.5 12.5 16.5ZM14.3377 11.3687C14.5413 11.1822 14.5552 10.8659 14.3687 10.6623C14.1822 10.4587 13.8659 10.4448 13.6623 10.6313L11.8163 12.322L11.3377 11.8837C11.1341 11.6972 10.8178 11.7111 10.6313 11.9147C10.4448 12.1184 10.4587 12.4346 10.6623 12.6211L11.4786 13.3687C11.6697 13.5438 11.9628 13.5438 12.154 13.3687L14.3377 11.3687Z" fill="#0AAF24"/>
</svg>
