<svg width="41" height="41" viewBox="0 0 41 41" fill="none" xmlns="http://www.w3.org/2000/svg">
<circle cx="20.5" cy="20.5" r="20" fill="#0052B4" fill-opacity="0.2"/>
<rect x="7.75" y="11.25" width="26.1667" height="19.5" rx="1.75" fill="#0052B4" stroke="#0052B4" stroke-width="0.5"/>
<mask id="mask0_1269_73193" style="mask-type:luminance" maskUnits="userSpaceOnUse" x="7" y="11" width="28" height="20">
<rect x="7.75" y="11.25" width="26.1667" height="19.5" rx="1.75" fill="white" stroke="white" stroke-width="0.5"/>
</mask>
<g mask="url(#mask0_1269_73193)">
</g>
<g clip-path="url(#clip0_1269_73193)">
<path d="M21.2487 28.4998C25.621 28.4998 29.1654 24.9554 29.1654 20.5832C29.1654 16.2109 25.621 12.6665 21.2487 12.6665C16.8764 12.6665 13.332 16.2109 13.332 20.5832C13.332 24.9554 16.8764 28.4998 21.2487 28.4998Z" fill="#0052B4"/>
<path d="M21.2498 15.7642L21.5062 16.553H22.3355L21.6645 17.0405L21.9209 17.8294L21.2498 17.3418L20.5788 17.8294L20.8351 17.0405L20.1641 16.553H20.9935L21.2498 15.7642Z" fill="#FFDA44"/>
<path d="M17.8427 17.1757L18.5818 17.5523L19.1683 16.9658L19.0385 17.785L19.7775 18.1616L18.9583 18.2913L18.8286 19.1106L18.452 18.3715L17.6328 18.5013L18.2193 17.9148L17.8427 17.1757Z" fill="#FFDA44"/>
<path d="M16.4297 20.5828L17.2185 20.3265V19.4971L17.706 20.1681L18.4949 19.9118L18.0073 20.5828L18.4949 21.2539L17.706 20.9976L17.2185 21.6686V20.8392L16.4297 20.5828Z" fill="#FFDA44"/>
<path d="M17.8427 23.9905L18.2193 23.2514L17.6328 22.6649L18.452 22.7947L18.8285 22.0557L18.9583 22.8749L19.7775 23.0046L19.0385 23.3812L19.1683 24.2004L18.5818 23.6139L17.8427 23.9905Z" fill="#FFDA44"/>
<path d="M21.2498 25.4016L20.9935 24.6127H20.1641L20.8351 24.1252L20.5788 23.3364L21.2498 23.8239L21.9209 23.3364L21.6645 24.1252L22.3355 24.6127H21.5061L21.2498 25.4016Z" fill="#FFDA44"/>
<path d="M24.6574 23.9905L23.9184 23.6139L23.3319 24.2004L23.4617 23.3812L22.7227 23.0046L23.5418 22.8749L23.6716 22.0557L24.0481 22.7947L24.8673 22.6649L24.2808 23.2515L24.6574 23.9905Z" fill="#FFDA44"/>
<path d="M26.0691 20.5828L25.2802 20.8392V21.6686L24.7927 20.9975L24.0039 21.2539L24.4914 20.5828L24.0039 19.9118L24.7927 20.1681L25.2802 19.4971V20.3265L26.0691 20.5828Z" fill="#FFDA44"/>
<path d="M24.6574 17.1757L24.2809 17.9148L24.8674 18.5013L24.0481 18.3715L23.6716 19.1105L23.5418 18.2913L22.7227 18.1615L23.4617 17.785L23.3319 16.9658L23.9184 17.5523L24.6574 17.1757Z" fill="#FFDA44"/>
</g>
<defs>
<clipPath id="clip0_1269_73193">
<rect width="15.8333" height="15.8333" fill="white" transform="translate(13.332 12.6665)"/>
</clipPath>
</defs>
</svg>
