<svg width="41" height="41" viewBox="0 0 41 41" fill="none" xmlns="http://www.w3.org/2000/svg">
<circle cx="20.5" cy="20.5" r="20" fill="#EF1E1E" fill-opacity="0.3"/>
<rect x="7.5" y="11" width="26.6667" height="20" rx="2" fill="white"/>
<mask id="mask0_1269_73217" style="mask-type:luminance" maskUnits="userSpaceOnUse" x="7" y="11" width="28" height="20">
<rect x="7.5" y="11" width="26.6667" height="20" rx="2" fill="white"/>
</mask>
<g mask="url(#mask0_1269_73217)">
<path fill-rule="evenodd" clip-rule="evenodd" d="M34.1667 11H7.5V12.3333H34.1667V11ZM34.1667 13.6668H7.5V15.0002H34.1667V13.6668ZM7.5 16.3333H34.1667V17.6667H7.5V16.3333ZM34.1667 19H7.5V20.3333H34.1667V19ZM7.5 21.6665H34.1667V22.9998H7.5V21.6665ZM34.1667 24.3333H7.5V25.6667H34.1667V24.3333ZM7.5 27.0002H34.1667V28.3335H7.5V27.0002ZM34.1667 29.6667H7.5V31H34.1667V29.6667Z" fill="#D02F44"/>
<rect x="7.5" y="11" width="11.4286" height="9.33333" fill="#46467F"/>
<g filter="url(#filter0_d_1269_73217)">
<path fill-rule="evenodd" clip-rule="evenodd" d="M10.0394 13.0002C10.0394 13.3684 9.75511 13.6668 9.40445 13.6668C9.05379 13.6668 8.76953 13.3684 8.76953 13.0002C8.76953 12.632 9.05379 12.3335 9.40445 12.3335C9.75511 12.3335 10.0394 12.632 10.0394 13.0002ZM12.5791 13.0002C12.5791 13.3684 12.2948 13.6668 11.9441 13.6668C11.5935 13.6668 11.3092 13.3684 11.3092 13.0002C11.3092 12.632 11.5935 12.3335 11.9441 12.3335C12.2948 12.3335 12.5791 12.632 12.5791 13.0002ZM14.4838 13.6668C14.8345 13.6668 15.1187 13.3684 15.1187 13.0002C15.1187 12.632 14.8345 12.3335 14.4838 12.3335C14.1332 12.3335 13.8489 12.632 13.8489 13.0002C13.8489 13.3684 14.1332 13.6668 14.4838 13.6668ZM17.6584 13.0002C17.6584 13.3684 17.3742 13.6668 17.0235 13.6668C16.6728 13.6668 16.3886 13.3684 16.3886 13.0002C16.3886 12.632 16.6728 12.3335 17.0235 12.3335C17.3742 12.3335 17.6584 12.632 17.6584 13.0002ZM10.6744 15.0002C11.025 15.0002 11.3093 14.7018 11.3093 14.3336C11.3093 13.9654 11.025 13.6669 10.6744 13.6669C10.3237 13.6669 10.0395 13.9654 10.0395 14.3336C10.0395 14.7018 10.3237 15.0002 10.6744 15.0002ZM13.849 14.3336C13.849 14.7018 13.5647 15.0002 13.2141 15.0002C12.8634 15.0002 12.5791 14.7018 12.5791 14.3336C12.5791 13.9654 12.8634 13.6669 13.2141 13.6669C13.5647 13.6669 13.849 13.9654 13.849 14.3336ZM15.7537 15.0002C16.1043 15.0002 16.3886 14.7017 16.3886 14.3335C16.3886 13.9653 16.1043 13.6668 15.7537 13.6668C15.403 13.6668 15.1187 13.9653 15.1187 14.3335C15.1187 14.7017 15.403 15.0002 15.7537 15.0002ZM17.6584 15.667C17.6584 16.0352 17.3742 16.3337 17.0235 16.3337C16.6728 16.3337 16.3886 16.0352 16.3886 15.667C16.3886 15.2988 16.6728 15.0003 17.0235 15.0003C17.3742 15.0003 17.6584 15.2988 17.6584 15.667ZM14.4837 16.3337C14.8344 16.3337 15.1187 16.0352 15.1187 15.667C15.1187 15.2988 14.8344 15.0003 14.4837 15.0003C14.1331 15.0003 13.8488 15.2988 13.8488 15.667C13.8488 16.0352 14.1331 16.3337 14.4837 16.3337ZM12.579 15.667C12.579 16.0352 12.2948 16.3337 11.9441 16.3337C11.5935 16.3337 11.3092 16.0352 11.3092 15.667C11.3092 15.2988 11.5935 15.0003 11.9441 15.0003C12.2948 15.0003 12.579 15.2988 12.579 15.667ZM9.40445 16.3337C9.75511 16.3337 10.0394 16.0352 10.0394 15.667C10.0394 15.2988 9.75511 15.0003 9.40445 15.0003C9.05379 15.0003 8.76953 15.2988 8.76953 15.667C8.76953 16.0352 9.05379 16.3337 9.40445 16.3337ZM11.3091 17C11.3091 17.3682 11.0249 17.6667 10.6742 17.6667C10.3236 17.6667 10.0393 17.3682 10.0393 17C10.0393 16.6318 10.3236 16.3333 10.6742 16.3333C11.0249 16.3333 11.3091 16.6318 11.3091 17ZM13.2141 17.6667C13.5647 17.6667 13.849 17.3682 13.849 17C13.849 16.6318 13.5647 16.3333 13.2141 16.3333C12.8634 16.3333 12.5791 16.6318 12.5791 17C12.5791 17.3682 12.8634 17.6667 13.2141 17.6667ZM16.3887 17C16.3887 17.3682 16.1044 17.6667 15.7537 17.6667C15.4031 17.6667 15.1188 17.3682 15.1188 17C15.1188 16.6318 15.4031 16.3333 15.7537 16.3333C16.1044 16.3333 16.3887 16.6318 16.3887 17ZM17.0235 19.0002C17.3742 19.0002 17.6584 18.7017 17.6584 18.3335C17.6584 17.9653 17.3742 17.6668 17.0235 17.6668C16.6728 17.6668 16.3886 17.9653 16.3886 18.3335C16.3886 18.7017 16.6728 19.0002 17.0235 19.0002ZM15.1187 18.3335C15.1187 18.7017 14.8345 19.0002 14.4838 19.0002C14.1332 19.0002 13.8489 18.7017 13.8489 18.3335C13.8489 17.9653 14.1332 17.6668 14.4838 17.6668C14.8345 17.6668 15.1187 17.9653 15.1187 18.3335ZM11.9441 19.0002C12.2948 19.0002 12.5791 18.7017 12.5791 18.3335C12.5791 17.9653 12.2948 17.6668 11.9441 17.6668C11.5935 17.6668 11.3092 17.9653 11.3092 18.3335C11.3092 18.7017 11.5935 19.0002 11.9441 19.0002ZM10.0394 18.3335C10.0394 18.7017 9.75511 19.0002 9.40445 19.0002C9.05379 19.0002 8.76953 18.7017 8.76953 18.3335C8.76953 17.9653 9.05379 17.6668 9.40445 17.6668C9.75511 17.6668 10.0394 17.9653 10.0394 18.3335Z" fill="url(#paint0_linear_1269_73217)"/>
</g>
</g>
<defs>
<filter id="filter0_d_1269_73217" x="8.76953" y="12.3335" width="8.89062" height="7.6665" filterUnits="userSpaceOnUse" color-interpolation-filters="sRGB">
<feFlood flood-opacity="0" result="BackgroundImageFix"/>
<feColorMatrix in="SourceAlpha" type="matrix" values="0 0 0 0 0 0 0 0 0 0 0 0 0 0 0 0 0 0 127 0" result="hardAlpha"/>
<feOffset dy="1"/>
<feColorMatrix type="matrix" values="0 0 0 0 0 0 0 0 0 0 0 0 0 0 0 0 0 0 0.06 0"/>
<feBlend mode="normal" in2="BackgroundImageFix" result="effect1_dropShadow_1269_73217"/>
<feBlend mode="normal" in="SourceGraphic" in2="effect1_dropShadow_1269_73217" result="shape"/>
</filter>
<linearGradient id="paint0_linear_1269_73217" x1="8.76953" y1="12.3335" x2="8.76953" y2="19.0002" gradientUnits="userSpaceOnUse">
<stop stop-color="white"/>
<stop offset="1" stop-color="#F0F0F0"/>
</linearGradient>
</defs>
</svg>
