<svg width="156" height="88" viewBox="0 0 156 88" fill="none" xmlns="http://www.w3.org/2000/svg">
<rect width="156" height="88" rx="23" fill="#FFCB05"/>
<path d="M78.3034 17.1403C49.167 17.1403 25.5469 28.9503 25.5469 43.5185C25.5469 58.0867 49.167 69.8968 78.3034 69.8968C107.44 69.8968 131.06 58.0867 131.06 43.5185C131.06 28.9503 107.44 17.1403 78.3034 17.1403ZM78.3034 65.7323C51.4668 65.7323 29.7113 55.7869 29.7113 43.5185C29.7113 31.2502 51.4668 21.3047 78.3034 21.3047C105.14 21.3047 126.895 31.2502 126.895 43.5185C126.895 55.7869 105.14 65.7323 78.3034 65.7323ZM71.6503 38.8908V34.7255H86.5334V38.8908H81.1753V52.3115H77.0092V38.8908H71.6503ZM104.499 34.7255V52.3115H100.334L92.7809 41.8427V52.3115H88.6165V34.7255H92.7809L100.334 45.1944V34.7255H104.499ZM51.9845 52.3115V34.7255H56.1489L60.7759 41.8427L65.4028 34.7255H69.5656V52.3115H65.4028V42.3645L62.244 47.2197H59.3077L56.1489 42.3645V52.3115H51.9845Z" fill="black"/>
</svg>
