<svg width="156" height="88" viewBox="0 0 156 88" fill="none" xmlns="http://www.w3.org/2000/svg">
<rect width="156" height="88" rx="23" fill="#FBFFD1"/>
<path fill-rule="evenodd" clip-rule="evenodd" d="M65.7709 71.8175C66.676 71.8175 67.3374 72.0092 67.7552 72.3926C68.1729 72.776 68.382 73.3722 68.3825 74.1814V78.5182H67.0248V74.3648C67.0248 73.4503 66.5121 72.9931 65.4865 72.9931C65.0436 72.9894 64.6087 73.1118 64.2326 73.3459C64.2977 73.6195 64.3283 73.9002 64.3237 74.1814V78.5182H62.966V74.3648C62.966 73.4503 62.4533 72.9931 61.4277 72.9931C60.9598 72.9935 60.4957 73.0776 60.0574 73.2415V78.5182H58.7005V72.497C59.1497 72.2737 59.6253 72.1077 60.116 72.0031C60.6394 71.8811 61.1747 71.8176 61.7121 71.814C62.5589 71.814 63.1881 71.9786 63.5997 72.3079C64.2776 71.9841 65.0196 71.8165 65.7709 71.8175ZM73.034 78.7172C71.9991 78.7172 71.2212 78.4211 70.7005 77.8288C70.1797 77.2365 69.9191 76.3745 69.9186 75.2426C69.9186 72.9522 70.9536 71.8071 73.0234 71.8076C74.0664 71.8076 74.8506 72.1014 75.376 72.689C75.9015 73.2765 76.1644 74.1277 76.1649 75.2426C76.1649 76.3566 75.8935 77.2142 75.3506 77.8154C74.8077 78.4166 74.0355 78.7172 73.034 78.7172ZM73.0206 77.5543C74.2103 77.5543 74.8049 76.7838 74.8045 75.2426C74.8045 74.4763 74.6633 73.9038 74.3811 73.5251C74.0988 73.1464 73.6463 72.9569 73.0234 72.9564C72.3945 72.9564 71.9443 73.1502 71.6728 73.5378C71.4014 73.9255 71.2657 74.4937 71.2657 75.2426C71.2657 75.9911 71.4056 76.5636 71.6855 76.9602C71.9655 77.3567 72.4105 77.5538 73.0206 77.5515V77.5543ZM80.6972 71.8203C81.6625 71.8203 82.395 72.112 82.8946 72.6953C83.3941 73.2786 83.6446 74.1049 83.6461 75.1742C83.6461 76.4632 83.3466 77.3753 82.7478 77.9107C82.1489 78.446 81.3878 78.7148 80.4643 78.7172C78.6114 78.7172 77.6849 78.2209 77.6849 77.2283V69.3358H79.0298V72.2254C79.3002 72.0961 79.5842 71.9974 79.8766 71.9311C80.1449 71.8622 80.4202 71.8241 80.6972 71.8175V71.8203ZM80.3606 77.5282C81.0663 77.5282 81.5602 77.3236 81.8425 76.9143C82.1247 76.505 82.2658 75.9433 82.2658 75.2292C82.2658 74.4982 82.1172 73.941 81.8199 73.5576C81.5226 73.1742 81.0811 72.9827 80.4954 72.9832C80.2402 72.9849 79.9862 73.0176 79.739 73.0806C79.4914 73.1404 79.2538 73.2354 79.0333 73.3628V76.891C79.031 77.3144 79.4734 77.5258 80.3606 77.5254V77.5282ZM85.1801 69.678H86.6281V70.9192H85.1801V69.678ZM85.2189 72.0031H86.5766L86.5893 78.521H85.2189V72.0031ZM88.5001 78.521V69.4797H89.8451V78.5182L88.5001 78.521ZM94.3929 71.802C95.4015 71.802 96.1405 72.1313 96.61 72.7899C97.0795 73.4485 97.31 74.3693 97.3015 75.5524H92.7487C92.7925 76.1969 92.9807 76.6868 93.3133 77.0223C93.6458 77.3577 94.1177 77.5251 94.7288 77.5247C95.4608 77.5254 96.1812 77.3412 96.8231 76.9891V78.2691C96.1508 78.5678 95.3808 78.7172 94.5128 78.7172C93.5391 78.7172 92.7741 78.4189 92.2181 77.8224C91.6621 77.226 91.3843 76.3792 91.3848 75.2822C91.3848 74.1588 91.6475 73.2991 92.173 72.7031C92.6984 72.107 93.4384 71.8067 94.3929 71.802ZM94.3541 72.931C93.8973 72.931 93.5398 73.0531 93.2815 73.2972C93.0232 73.5414 92.8551 73.9549 92.777 74.5377H95.9185C95.8578 73.9803 95.7025 73.5733 95.4527 73.317C95.2029 73.0606 94.8367 72.9319 94.3541 72.931ZM81.388 19.1941C79.8907 18.8239 78.7381 18.6385 77.9304 18.638C71.905 18.638 67.0199 23.5069 67.0199 29.5112C67.0199 35.5154 71.9071 40.385 77.9304 40.385C83.9537 40.385 88.8416 35.5161 88.8416 29.5112C88.8421 28.634 88.7364 27.7599 88.5269 26.9081L97.2013 24.5717C97.904 27.2431 98.0368 30.0323 97.5913 32.7584C97.1458 35.4844 96.1318 38.0863 94.6152 40.3949L80.2512 67.0248H66.9444L76.3999 49.5956C76.4514 49.4997 76.2997 49.288 76.1727 49.2767C66.0687 48.3594 58.1543 39.8918 58.1543 29.5831C58.1543 18.6606 67.0382 9.80702 77.9982 9.80702C80.0044 9.80481 81.9995 10.1062 83.9156 10.7011L81.388 19.1941Z" fill="#006E53"/>
<path d="M77.865 35.4915C81.1678 35.4915 83.8453 32.8141 83.8453 29.5113C83.8453 26.2085 81.1678 23.531 77.865 23.531C74.5622 23.531 71.8848 26.2085 71.8848 29.5113C71.8848 32.8141 74.5622 35.4915 77.865 35.4915Z" fill="#D6E806"/>
<path d="M88.1937 25.434C87.1576 22.8405 85.1607 20.7468 82.6191 19.5892M91.9998 23.8026C90.5366 20.2056 87.7699 17.2933 84.2527 15.6476M95.6699 22.5797C93.8061 17.8377 90.141 14.0262 85.4755 11.9783" stroke="#D6E806" stroke-width="1.35919" stroke-linecap="round"/>
</svg>
