<svg width="156" height="88" viewBox="0 0 156 88" fill="none" xmlns="http://www.w3.org/2000/svg">
<rect width="156" height="88" rx="23" fill="#50B651"/>
<path fill-rule="evenodd" clip-rule="evenodd" d="M97.4126 55.8909C90.4485 55.8909 84.8027 50.0841 84.8027 42.9219C84.8027 35.7597 90.4485 29.9541 97.4126 29.9541C104.377 29.9541 110.024 35.7597 110.024 42.9219C110.024 50.0841 104.378 55.8909 97.4126 55.8909ZM97.5021 51.7771C101.849 51.7771 105.377 47.8124 105.377 42.9219C105.377 38.0314 101.849 34.0703 97.5021 34.0703C93.1556 34.0703 89.6276 38.035 89.6276 42.9243C89.6276 47.8136 93.1556 51.7771 97.5021 51.7771Z" fill="white"/>
<path fill-rule="evenodd" clip-rule="evenodd" d="M71.3945 19.5122H80.4812V55.7466H75.4928V23.4864H71.3945V19.5122Z" fill="white"/>
<path fill-rule="evenodd" clip-rule="evenodd" d="M64.6233 30.3229H69.3397V60.5822C69.3397 63.3395 66.4392 66.2113 63.6128 67.4473C62.2765 68.0311 59.8108 68.3779 56.2156 68.4877V65.4775C59.732 65.0854 62.1055 64.3031 63.336 63.1307C64.046 62.144 64.4898 60.991 64.6245 59.7828V50.8931C63.3638 53.568 61.7762 55.3413 59.8617 56.2131C57.8716 57.2869 53.821 57.1103 52.1674 56.2131C50.5138 55.3159 48.0882 52.9536 46.9762 49.4351C46.6684 48.4639 45.9024 45.8212 45.9824 43.021C46.054 40.3544 46.9369 37.5328 47.6706 36.3731C48.9305 34.3925 50.917 31.9121 53.926 30.8753C55.3959 30.3686 58.1202 30.1865 62.0987 30.3288V33.3223C59.1422 33.1227 57.2977 33.2225 56.5652 33.6218C55.4663 34.2183 52.9859 34.9545 52.1674 40.3604C51.3489 45.7663 52.1913 50.1903 54.7862 51.5755C55.6751 52.0528 57.2476 52.6171 58.7008 52.1196C61.4926 51.1651 64.1199 47.7612 64.3203 45.4549C64.5223 43.1149 64.6233 38.0708 64.6233 30.3229Z" fill="white"/>
</svg>
