<svg width="45" height="57" viewBox="0 0 45 57" fill="none" xmlns="http://www.w3.org/2000/svg">
<path d="M11.4141 31.1537C11.4141 29.9956 12.353 29.0568 13.5111 29.0569L31.4307 29.0594C32.5936 29.0595 33.5343 30.0062 33.5271 31.1691L33.4008 51.6074C33.3891 53.509 31.0553 54.4142 29.7645 53.0178L23.9378 46.7152C23.1081 45.8178 21.6899 45.8173 20.8596 46.7141L15.0494 52.9894C13.7537 54.3888 11.4141 53.472 11.4141 51.5649V31.1537Z" fill="#957001"/>
<g filter="url(#filter0_i_404_21194)">
<path d="M44.2812 21.8047C44.2812 33.8471 34.519 43.6094 22.4766 43.6094C10.4342 43.6094 0.671875 33.8471 0.671875 21.8047C0.671875 9.76229 10.4342 0 22.4766 0C34.519 0 44.2812 9.76229 44.2812 21.8047Z" fill="#957001"/>
</g>
<path d="M42.8135 21.8047C42.8135 33.0365 33.7084 42.1416 22.4766 42.1416C11.2448 42.1416 2.13961 33.0365 2.13961 21.8047C2.13961 10.5729 11.2448 1.46773 22.4766 1.46773C33.7084 1.46773 42.8135 10.5729 42.8135 21.8047Z" stroke="#F8F8F8" stroke-width="2.93547"/>
<path d="M25.3399 26.9612C25.3399 28.1911 25.1197 29.0718 24.6794 29.6032C24.239 30.1195 23.5709 30.3776 22.6751 30.3776C22.0829 30.3776 21.6046 30.2865 21.2402 30.1043C20.8758 29.9221 20.5949 29.588 20.3975 29.1022C20.2153 28.6163 20.1166 27.9634 20.1014 27.1434L20.0558 18.6479C19.327 18.6479 18.7272 18.5189 18.2565 18.2607C17.7858 17.9874 17.5505 17.5395 17.5505 16.917C17.5505 16.4159 17.763 16.0059 18.1882 15.687C18.6285 15.353 19.2359 15.186 20.0103 15.186C20.314 15.186 20.7391 15.1936 21.2857 15.2087C21.8476 15.2087 22.2423 15.2087 22.4701 15.2087C23.5937 15.2087 24.3453 15.3985 24.7249 15.7781C25.1197 16.1426 25.3171 16.7879 25.3171 17.7141L25.3399 26.9612Z" fill="#322603"/>
<g style="mix-blend-mode:overlay" opacity="0.6" filter="url(#filter1_f_404_21194)">
<line x1="13.202" y1="36.8336" x2="37.0066" y2="8.11293" stroke="white" stroke-width="6"/>
</g>
<g style="mix-blend-mode:overlay" opacity="0.6" filter="url(#filter2_f_404_21194)">
<line x1="6.16973" y1="33.7239" x2="29.9744" y2="5.0032" stroke="white"/>
</g>
<defs>
<filter id="filter0_i_404_21194" x="0.671875" y="0" width="43.6094" height="47.6094" filterUnits="userSpaceOnUse" color-interpolation-filters="sRGB">
<feFlood flood-opacity="0" result="BackgroundImageFix"/>
<feBlend mode="normal" in="SourceGraphic" in2="BackgroundImageFix" result="shape"/>
<feColorMatrix in="SourceAlpha" type="matrix" values="0 0 0 0 0 0 0 0 0 0 0 0 0 0 0 0 0 0 127 0" result="hardAlpha"/>
<feOffset dy="4"/>
<feGaussianBlur stdDeviation="3.65"/>
<feComposite in2="hardAlpha" operator="arithmetic" k2="-1" k3="1"/>
<feColorMatrix type="matrix" values="0 0 0 0 0.945833 0 0 0 0 0.711362 0 0 0 0 0 0 0 0 1 0"/>
<feBlend mode="normal" in2="shape" result="effect1_innerShadow_404_21194"/>
</filter>
<filter id="filter1_f_404_21194" x="8.59063" y="3.89922" width="33.0258" height="37.1488" filterUnits="userSpaceOnUse" color-interpolation-filters="sRGB">
<feFlood flood-opacity="0" result="BackgroundImageFix"/>
<feBlend mode="normal" in="SourceGraphic" in2="BackgroundImageFix" result="shape"/>
<feGaussianBlur stdDeviation="1.15" result="effect1_foregroundBlur_404_21194"/>
</filter>
<filter id="filter2_f_404_21194" x="4.08516" y="2.98359" width="27.9742" height="32.7594" filterUnits="userSpaceOnUse" color-interpolation-filters="sRGB">
<feFlood flood-opacity="0" result="BackgroundImageFix"/>
<feBlend mode="normal" in="SourceGraphic" in2="BackgroundImageFix" result="shape"/>
<feGaussianBlur stdDeviation="0.85" result="effect1_foregroundBlur_404_21194"/>
</filter>
</defs>
</svg>
