<svg width="44" height="57" viewBox="0 0 44 57" fill="none" xmlns="http://www.w3.org/2000/svg">
<path d="M10.9141 31.1537C10.9141 29.9956 11.853 29.0568 13.0111 29.0569L30.9307 29.0594C32.0936 29.0595 33.0343 30.0062 33.0271 31.1691L32.9008 51.6074C32.8891 53.509 30.5553 54.4142 29.2645 53.0178L23.4378 46.7152C22.6081 45.8178 21.1899 45.8173 20.3596 46.7141L14.5494 52.9894C13.2537 54.3888 10.9141 53.472 10.9141 51.5649V31.1537Z" fill="#F1B500"/>
<path d="M42.3135 21.8047C42.3135 33.0365 33.2084 42.1416 21.9766 42.1416C10.7448 42.1416 1.63961 33.0365 1.63961 21.8047C1.63961 10.5729 10.7448 1.46773 21.9766 1.46773C33.2084 1.46773 42.3135 10.5729 42.3135 21.8047Z" fill="url(#paint0_linear_347_11200)" stroke="#F8F8F8" stroke-width="2.93547"/>
<g style="mix-blend-mode:overlay" opacity="0.6" filter="url(#filter0_f_347_11200)">
<line y1="-3" x2="38.5643" y2="-3" transform="matrix(0.640309 -0.768117 0.771719 0.635963 13.5195 39.207)" stroke="white" stroke-width="6"/>
</g>
<g style="mix-blend-mode:overlay" opacity="0.6" filter="url(#filter1_f_347_11200)">
<line y1="-0.5" x2="38.5643" y2="-0.5" transform="matrix(0.640309 -0.768117 0.771719 0.635963 4.22656 34.3535)" stroke="white"/>
</g>
<path d="M22.0983 18.9956C22.0983 18.2515 21.4074 17.8795 20.0256 17.8795C19.7371 17.8795 19.3424 17.9099 18.8413 17.9706C18.3554 18.0162 17.9986 18.039 17.7708 18.039C16.6776 18.039 16.1309 17.3861 16.1309 16.0802C16.1309 14.7288 17.7101 14.0532 20.8684 14.0532C22.9182 14.0532 24.4518 14.3872 25.4691 15.0553C26.4865 15.7234 26.9951 16.5965 26.9951 17.6746C26.9951 19.1778 26.3422 20.3773 25.0364 21.2732C25.9171 21.7439 26.532 22.2374 26.8812 22.7536C27.2457 23.2547 27.4279 23.9835 27.4279 24.9401C27.4279 26.2611 26.904 27.3392 25.8563 28.1743C24.8238 28.9943 23.4345 29.4042 21.6883 29.4042C19.5018 29.4042 17.9302 29.1841 16.9736 28.7437C16.0322 28.2882 15.5615 27.6049 15.5615 26.6939C15.5615 25.9347 15.7134 25.4184 16.017 25.1451C16.3207 24.8566 16.7459 24.7124 17.2925 24.7124C17.5658 24.7124 17.991 24.7427 18.568 24.8035C19.145 24.8642 19.5853 24.8946 19.889 24.8946C21.544 24.8946 22.3716 24.5909 22.3716 23.9835C22.3716 23.5736 22.2121 23.2927 21.8933 23.1408C21.5744 22.9738 20.9746 22.8903 20.094 22.8903C19.2133 22.8903 18.5907 22.7764 18.2263 22.5486C17.8619 22.3209 17.6797 21.8957 17.6797 21.2732C17.6797 20.3318 18.3022 19.8611 19.5473 19.8611C20.3521 19.8611 20.9443 19.8231 21.3239 19.7472C21.7187 19.6713 21.9464 19.5877 22.0072 19.4966C22.0679 19.3904 22.0983 19.2233 22.0983 18.9956Z" fill="#B38701"/>
<defs>
<filter id="filter0_f_347_11200" x="6.59063" y="3.46953" width="33.9203" height="38.0375" filterUnits="userSpaceOnUse" color-interpolation-filters="sRGB">
<feFlood flood-opacity="0" result="BackgroundImageFix"/>
<feBlend mode="normal" in="SourceGraphic" in2="BackgroundImageFix" result="shape"/>
<feGaussianBlur stdDeviation="1.15" result="effect1_foregroundBlur_347_11200"/>
</filter>
<filter id="filter1_f_347_11200" x="1.75312" y="2.3957" width="28.8648" height="33.6578" filterUnits="userSpaceOnUse" color-interpolation-filters="sRGB">
<feFlood flood-opacity="0" result="BackgroundImageFix"/>
<feBlend mode="normal" in="SourceGraphic" in2="BackgroundImageFix" result="shape"/>
<feGaussianBlur stdDeviation="0.85" result="effect1_foregroundBlur_347_11200"/>
</filter>
<linearGradient id="paint0_linear_347_11200" x1="22.0851" y1="22.4979" x2="23.4115" y2="51.2371" gradientUnits="userSpaceOnUse">
<stop stop-color="#F1B500"/>
<stop offset="1" stop-color="#8B6900"/>
</linearGradient>
</defs>
</svg>
