<svg width="45" height="57" viewBox="0 0 45 57" fill="none" xmlns="http://www.w3.org/2000/svg">
<path d="M11.1641 31.1537C11.1641 29.9956 12.103 29.0568 13.2611 29.0569L31.1807 29.0594C32.3436 29.0595 33.2843 30.0062 33.2771 31.1691L33.1508 51.6074C33.1391 53.509 30.8053 54.4142 29.5145 53.0178L23.6878 46.7152C22.8581 45.8178 21.4399 45.8173 20.6096 46.7141L14.7994 52.9894C13.5037 54.3888 11.1641 53.472 11.1641 51.5649V31.1537Z" fill="#C8C8C8"/>
<path d="M42.5635 21.8047C42.5635 33.0365 33.4584 42.1416 22.2266 42.1416C10.9948 42.1416 1.88961 33.0365 1.88961 21.8047C1.88961 10.5729 10.9948 1.46773 22.2266 1.46773C33.4584 1.46773 42.5635 10.5729 42.5635 21.8047Z" fill="url(#paint0_linear_347_11192)" stroke="#F8F8F8" stroke-width="2.93547"/>
<path d="M23.0999 25.0312H25.628C26.9035 25.0312 27.5412 25.7449 27.5412 27.1722C27.5412 27.9769 27.3362 28.5539 26.9263 28.9032C26.5315 29.2372 25.8178 29.4042 24.7853 29.4042H18.613C17.5501 29.4042 16.8213 29.2676 16.4265 28.9943C16.0469 28.7058 15.8571 28.0984 15.8571 27.1722C15.8571 26.8685 15.8874 26.6104 15.9482 26.3978C16.0089 26.17 16.1228 25.9499 16.2898 25.7373C16.4568 25.5247 16.6846 25.3197 16.9731 25.1223C17.793 24.5757 18.4384 24.1354 18.9091 23.8013C19.3798 23.4673 19.8353 23.118 20.2756 22.7536C20.7312 22.374 21.0652 22.0552 21.2778 21.797C21.4904 21.5237 21.6802 21.22 21.8472 20.886C22.0294 20.5519 22.1433 20.2179 22.1888 19.8838C22.2496 19.5498 22.2799 19.155 22.2799 18.6995C22.2799 17.8492 22.0142 17.424 21.4828 17.424C20.9058 17.424 20.6173 17.9251 20.6173 18.9272C20.6173 19.489 20.4351 19.8535 20.0707 20.0205C19.7062 20.1875 19.1672 20.271 18.4536 20.271C17.4818 20.271 16.8213 20.0585 16.472 19.6333C16.138 19.2081 15.971 18.5021 15.971 17.5151C15.971 16.5282 16.4341 15.7082 17.3603 15.0553C18.3017 14.3872 19.6075 14.0532 21.2778 14.0532C25.4078 14.0532 27.4729 15.6247 27.4729 18.7678C27.4729 19.4966 27.3894 20.1647 27.2223 20.7721C27.0553 21.3643 26.8503 21.8654 26.6074 22.2753C26.3644 22.6701 26.0304 23.0497 25.6052 23.4141C25.1953 23.7785 24.8081 24.0746 24.4437 24.3024C24.0792 24.5302 23.6313 24.7731 23.0999 25.0312Z" fill="#323232"/>
<g style="mix-blend-mode:overlay" opacity="0.6" filter="url(#filter0_f_347_11192)">
<line x1="10.6121" y1="36.277" x2="34.4168" y2="7.55629" stroke="white" stroke-width="6"/>
</g>
<g style="mix-blend-mode:overlay" opacity="0.6" filter="url(#filter1_f_347_11192)">
<line x1="3.57988" y1="33.1673" x2="27.3846" y2="4.44656" stroke="white"/>
</g>
<defs>
<filter id="filter0_f_347_11192" x="6.00078" y="3.34258" width="33.0258" height="37.1488" filterUnits="userSpaceOnUse" color-interpolation-filters="sRGB">
<feFlood flood-opacity="0" result="BackgroundImageFix"/>
<feBlend mode="normal" in="SourceGraphic" in2="BackgroundImageFix" result="shape"/>
<feGaussianBlur stdDeviation="1.15" result="effect1_foregroundBlur_347_11192"/>
</filter>
<filter id="filter1_f_347_11192" x="1.49531" y="2.42695" width="27.9742" height="32.7594" filterUnits="userSpaceOnUse" color-interpolation-filters="sRGB">
<feFlood flood-opacity="0" result="BackgroundImageFix"/>
<feBlend mode="normal" in="SourceGraphic" in2="BackgroundImageFix" result="shape"/>
<feGaussianBlur stdDeviation="0.85" result="effect1_foregroundBlur_347_11192"/>
</filter>
<linearGradient id="paint0_linear_347_11192" x1="22.2266" y1="0" x2="22.6389" y2="48.534" gradientUnits="userSpaceOnUse">
<stop stop-color="#C8C8C8"/>
<stop offset="1" stop-color="#626262"/>
</linearGradient>
</defs>
</svg>
