<svg width="122" height="122" viewBox="0 0 122 122" fill="none" xmlns="http://www.w3.org/2000/svg">
<circle opacity="0.1" cx="61" cy="61" r="61" fill="#068E44"/>
<circle opacity="0.25" cx="61.0017" cy="60.9978" r="51.24" fill="#068E44"/>
<circle cx="61.0008" cy="61.0008" r="42.7" fill="#EEEEF0"/>
<path d="M60.8647 18.3008C84.7223 18.5965 103.671 37.4294 103.701 61.0414C103.698 66.6461 102.591 72.1953 100.443 77.3724C98.2949 82.5494 95.1475 87.2528 91.1806 91.2141C87.2138 95.1754 82.5052 98.3169 77.3236 100.459C72.142 102.602 66.589 103.703 60.9815 103.701C55.3741 103.698 49.8221 102.592 44.6424 100.445C39.4628 98.2976 34.757 95.1518 30.7937 91.1869C26.8305 87.2221 23.6873 82.5158 21.5438 77.3368C19.4002 72.1579 18.2983 66.6076 18.3008 61.003C18.3481 37.1366 37.5485 18.7267 60.8647 18.3008ZM40.8802 55.7358C40.0702 55.7313 39.2794 55.9824 38.6206 56.4534C37.9617 56.9245 37.4685 57.5914 37.2112 58.3591C36.6993 59.894 37.1283 61.6536 38.5545 62.5586C44.0226 66.0306 48.2686 70.6738 51.9524 75.9321C53.784 78.5435 57.3732 78.0348 58.6041 75.104C58.9755 74.139 59.4517 73.2176 60.0243 72.3565C66.1108 63.78 72.6885 55.7299 82.8079 51.5452C84.7105 50.7614 85.397 48.9781 84.8052 47.0233C84.2134 45.0684 82.9441 44.3616 80.6864 44.6751C77.2008 45.1808 74.2981 46.9405 71.5522 48.9633C65.2675 53.5917 60.051 59.2818 55.4351 65.5249C54.6717 66.557 54.3225 66.4801 53.568 65.5663C50.6446 62.0351 47.1738 59.1457 43.3687 56.6231C42.5757 56.1114 41.7679 55.6737 40.8802 55.7358Z" fill="#068E44"/>
</svg>
