<svg width="40" height="40" viewBox="0 0 40 40" fill="none" xmlns="http://www.w3.org/2000/svg">
<circle cx="20" cy="20" r="20" fill="#FF7D27"/>
<g clip-path="url(#clip0_90_257821)">
<path d="M20.3983 14.5703H20.4073M12.4023 17.5703V26.0703M16.4023 17.5703V26.0703M24.4023 17.5703V26.0703M28.4023 17.5703V26.0703M10.4023 16.1403C10.4023 14.9433 10.8843 14.2103 11.8823 13.6543L15.9923 11.3673C18.1453 10.1703 19.2223 9.57031 20.4023 9.57031C21.5823 9.57031 22.6593 10.1703 24.8123 11.3673L28.9223 13.6543C29.9193 14.2103 30.4023 14.9433 30.4023 16.1403C30.4023 16.4643 30.4023 16.6273 30.3673 16.7603C30.1813 17.4603 29.5463 17.5713 28.9333 17.5713H11.8713C11.2583 17.5713 10.6243 17.4613 10.4373 16.7603C10.4023 16.6263 10.4023 16.4643 10.4023 16.1403ZM27.4023 26.0703H13.4023C12.6067 26.0703 11.8436 26.3864 11.281 26.949C10.7184 27.5116 10.4023 28.2747 10.4023 29.0703C10.4023 29.2029 10.455 29.3301 10.5488 29.4239C10.6426 29.5176 10.7697 29.5703 10.9023 29.5703H29.9023C30.035 29.5703 30.1621 29.5176 30.2559 29.4239C30.3497 29.3301 30.4023 29.2029 30.4023 29.0703C30.4023 28.2747 30.0863 27.5116 29.5237 26.949C28.9611 26.3864 28.198 26.0703 27.4023 26.0703Z" stroke="#EEEEF0" stroke-width="2.5" stroke-linecap="round" stroke-linejoin="round"/>
</g>
<defs>
<clipPath id="clip0_90_257821">
<rect width="22.7027" height="21.6216" fill="white" transform="translate(8.64844 8.64844)"/>
</clipPath>
</defs>
</svg>
