<svg width="47" height="48" viewBox="0 0 47 48" fill="none" xmlns="http://www.w3.org/2000/svg">
<path d="M5.45543 16.3461L5.61187 17.3338L5.45543 16.3461ZM15.8461 5.95543L16.8338 6.11187L15.8461 5.95543ZM40.8473 44.1127L40.2595 43.3037L40.8473 44.1127ZM43.6127 41.3473L42.8037 40.7595L43.6127 41.3473ZM3.38729 41.3473L4.1963 40.7595L3.38729 41.3473ZM6.15269 44.1127L6.74047 43.3037L6.15269 44.1127ZM6.15269 3.88729L5.5649 3.07827L6.15269 3.88729ZM3.38729 6.65268L2.57827 6.0649L3.38729 6.65268ZM40.8473 3.88729L40.2595 4.6963L40.8473 3.88729ZM43.6127 6.65268L42.8037 7.24047L43.6127 6.65268ZM16 1.57232L15.9658 0.572907L16 1.57232ZM1.07232 16.5L0.0729083 16.4658L1.07232 16.5ZM18.5 25.5C17.9477 25.5 17.5 25.9477 17.5 26.5C17.5 27.0523 17.9477 27.5 18.5 27.5V25.5ZM33.5 27.5C34.0523 27.5 34.5 27.0523 34.5 26.5C34.5 25.9477 34.0523 25.5 33.5 25.5V27.5ZM25 34C25 34.5523 25.4477 35 26 35C26.5523 35 27 34.5523 27 34H25ZM27 19C27 18.4477 26.5523 18 26 18C25.4477 18 25 18.4477 25 19H27ZM5.61187 17.3338C11.3884 16.4189 15.9189 11.8884 16.8338 6.11187L14.8584 5.799C14.079 10.7198 10.2198 14.579 5.299 15.3584L5.61187 17.3338ZM23.5 47.5C28.1649 47.5 31.7439 47.5014 34.5646 47.1958C37.404 46.8881 39.5933 46.2599 41.4351 44.9217L40.2595 43.3037C38.8155 44.3528 37.0184 44.9182 34.3491 45.2074C31.6612 45.4986 28.2094 45.5 23.5 45.5V47.5ZM45 24C45 28.7094 44.9986 32.1612 44.7074 34.8491C44.4182 37.5184 43.8528 39.3155 42.8037 40.7595L44.4217 41.9351C45.7599 40.0933 46.3881 37.904 46.6958 35.0646C47.0014 32.2439 47 28.6649 47 24H45ZM41.4351 44.9217C42.5812 44.0891 43.5891 43.0812 44.4217 41.9351L42.8037 40.7595C42.0944 41.7358 41.2358 42.5944 40.2595 43.3037L41.4351 44.9217ZM0 24C0 28.6649 -0.00137317 32.2439 0.304228 35.0646C0.611856 37.904 1.24013 40.0933 2.57827 41.9351L4.1963 40.7595C3.14715 39.3155 2.58178 37.5184 2.29259 34.8491C2.00137 32.1612 2 28.7094 2 24H0ZM23.5 45.5C18.7906 45.5 15.3388 45.4986 12.6509 45.2074C9.98164 44.9182 8.1845 44.3528 6.74047 43.3037L5.5649 44.9217C7.40669 46.2599 9.59604 46.8881 12.4354 47.1958C15.2561 47.5014 18.8351 47.5 23.5 47.5V45.5ZM2.57827 41.9351C3.41094 43.0812 4.41882 44.0891 5.5649 44.9217L6.74047 43.3037C5.76418 42.5944 4.90562 41.7358 4.1963 40.7595L2.57827 41.9351ZM5.5649 3.07827C4.41882 3.91094 3.41094 4.91882 2.57827 6.0649L4.1963 7.24047C4.90562 6.26418 5.76418 5.40562 6.74047 4.6963L5.5649 3.07827ZM23.5 2.5C28.2094 2.5 31.6612 2.50137 34.3491 2.79259C37.0184 3.08179 38.8155 3.64716 40.2595 4.6963L41.4351 3.07827C39.5933 1.74013 37.404 1.11186 34.5646 0.804229C31.7439 0.498627 28.1649 0.5 23.5 0.5V2.5ZM47 24C47 19.3351 47.0014 15.7561 46.6958 12.9354C46.3881 10.096 45.7599 7.90669 44.4217 6.0649L42.8037 7.24047C43.8528 8.6845 44.4182 10.4816 44.7074 13.1509C44.9986 15.8388 45 19.2906 45 24H47ZM40.2595 4.6963C41.2358 5.40562 42.0944 6.26418 42.8037 7.24047L44.4217 6.0649C43.5891 4.91882 42.5812 3.91094 41.4351 3.07827L40.2595 4.6963ZM23.5 0.5C20.5832 0.5 18.0974 0.499875 15.9658 0.572907L16.0342 2.57173C18.1243 2.50013 20.5722 2.5 23.5 2.5V0.5ZM15.9658 0.572907C11.2929 0.733004 8.09182 1.24236 5.5649 3.07827L6.74047 4.6963C8.73658 3.24605 11.3861 2.73099 16.0342 2.57173L15.9658 0.572907ZM15 1.57231C15 3.88337 14.9953 4.93447 14.8584 5.799L16.8338 6.11187C17.0014 5.05335 17 3.81008 17 1.57233L15 1.57231ZM2 24C2 21.0722 2.00013 18.6243 2.07174 16.5342L0.0729083 16.4658C-0.000124216 18.5974 0 21.0832 0 24H2ZM2.07174 16.5342C2.23099 11.8861 2.74605 9.23657 4.1963 7.24047L2.57827 6.0649C0.742354 8.59182 0.233004 11.7929 0.0729083 16.4658L2.07174 16.5342ZM1.07233 17.5C3.31008 17.5 4.55335 17.5014 5.61187 17.3338L5.299 15.3584C4.43447 15.4953 3.38337 15.5 1.07231 15.5L1.07233 17.5ZM18.5 27.5H33.5V25.5H18.5V27.5ZM27 34V19H25V34H27Z" fill="#D4B139"/>
</svg>
