<svg width="161" height="54" viewBox="0 0 161 54" fill="none" xmlns="http://www.w3.org/2000/svg">
<rect width="161" height="54" rx="8" fill="black"/>
<g clip-path="url(#clip0_1268_60286)">
<path d="M30.7596 7.65564C33.4998 4.01857 37.3094 4.00084 37.3094 4.00084C37.3094 4.00084 37.8761 7.4203 35.1538 10.7143C32.2471 14.2316 28.9432 13.6561 28.9432 13.6561C28.9432 13.6561 28.3228 10.8898 30.7596 7.65564ZM29.2917 16.0514C30.7014 16.0514 33.3178 14.1 36.7234 14.1C42.5855 14.1 44.8917 18.3005 44.8917 18.3005C44.8917 18.3005 40.3812 20.6228 40.3812 26.2576C40.3812 32.6142 46 34.8049 46 34.8049C46 34.8049 42.0723 45.9375 36.767 45.9375C34.3304 45.9375 32.436 44.2839 29.8686 44.2839C27.2522 44.2839 24.6558 45.9992 22.9648 45.9992C18.1203 45.9993 12 35.4389 12 26.95C12 18.5982 17.1804 14.217 22.0394 14.217C25.1982 14.217 27.6495 16.0514 29.2917 16.0514Z" fill="white"/>
</g>
<path d="M63.334 18.92C63.334 19.4567 63.249 19.945 63.079 20.385C62.909 20.825 62.669 21.2017 62.359 21.515C62.049 21.8283 61.6757 22.0717 61.239 22.245C60.8057 22.415 60.3257 22.5 59.799 22.5H57.124V15.335H59.799C60.3257 15.335 60.8057 15.4217 61.239 15.595C61.6757 15.765 62.049 16.0083 62.359 16.325C62.669 16.6383 62.909 17.015 63.079 17.455C63.249 17.895 63.334 18.3833 63.334 18.92ZM62.339 18.92C62.339 18.48 62.279 18.0867 62.159 17.74C62.039 17.3933 61.869 17.1 61.649 16.86C61.429 16.62 61.1623 16.4367 60.849 16.31C60.5357 16.1833 60.1857 16.12 59.799 16.12H58.094V21.715H59.799C60.1857 21.715 60.5357 21.6517 60.849 21.525C61.1623 21.3983 61.429 21.2167 61.649 20.98C61.869 20.74 62.039 20.4467 62.159 20.1C62.279 19.7533 62.339 19.36 62.339 18.92ZM66.588 17.355C66.958 17.355 67.2914 17.4167 67.588 17.54C67.8847 17.6633 68.138 17.8383 68.348 18.065C68.558 18.2917 68.718 18.5667 68.828 18.89C68.9414 19.21 68.998 19.5683 68.998 19.965C68.998 20.365 68.9414 20.725 68.828 21.045C68.718 21.365 68.558 21.6383 68.348 21.865C68.138 22.0917 67.8847 22.2667 67.588 22.39C67.2914 22.51 66.958 22.57 66.588 22.57C66.2147 22.57 65.878 22.51 65.578 22.39C65.2814 22.2667 65.028 22.0917 64.818 21.865C64.608 21.6383 64.4464 21.365 64.333 21.045C64.223 20.725 64.168 20.365 64.168 19.965C64.168 19.5683 64.223 19.21 64.333 18.89C64.4464 18.5667 64.608 18.2917 64.818 18.065C65.028 17.8383 65.2814 17.6633 65.578 17.54C65.878 17.4167 66.2147 17.355 66.588 17.355ZM66.588 21.875C67.088 21.875 67.4614 21.7083 67.708 21.375C67.9547 21.0383 68.078 20.57 68.078 19.97C68.078 19.3667 67.9547 18.8967 67.708 18.56C67.4614 18.2233 67.088 18.055 66.588 18.055C66.3347 18.055 66.113 18.0983 65.923 18.185C65.7364 18.2717 65.5797 18.3967 65.453 18.56C65.3297 18.7233 65.2364 18.925 65.173 19.165C65.113 19.4017 65.083 19.67 65.083 19.97C65.083 20.57 65.2064 21.0383 65.453 21.375C65.703 21.7083 66.0814 21.875 66.588 21.875ZM77.0338 17.435L75.3938 22.5H74.6888C74.6021 22.5 74.5421 22.4433 74.5087 22.33L73.3888 18.895C73.3621 18.8183 73.3404 18.7417 73.3238 18.665C73.3071 18.585 73.2904 18.5067 73.2738 18.43C73.2571 18.5067 73.2404 18.585 73.2238 18.665C73.2071 18.7417 73.1854 18.82 73.1588 18.9L72.0188 22.33C71.9888 22.4433 71.9221 22.5 71.8188 22.5H71.1488L69.5087 17.435H70.2088C70.2788 17.435 70.3371 17.4533 70.3838 17.49C70.4338 17.5267 70.4671 17.57 70.4838 17.62L71.4538 20.88C71.5104 21.12 71.5554 21.3467 71.5888 21.56C71.6188 21.45 71.6488 21.3383 71.6788 21.225C71.7121 21.1117 71.7471 20.9967 71.7838 20.88L72.8538 17.6C72.8704 17.55 72.8988 17.5083 72.9388 17.475C72.9821 17.4417 73.0338 17.425 73.0938 17.425H73.4838C73.5504 17.425 73.6054 17.4417 73.6488 17.475C73.6921 17.5083 73.7221 17.55 73.7388 17.6L74.7838 20.88C74.8204 20.9967 74.8538 21.1117 74.8838 21.225C74.9138 21.3383 74.9421 21.45 74.9688 21.56C74.9854 21.45 75.0054 21.34 75.0288 21.23C75.0554 21.1167 75.0838 21 75.1138 20.88L76.1038 17.62C76.1204 17.5667 76.1521 17.5233 76.1988 17.49C76.2454 17.4533 76.3004 17.435 76.3638 17.435H77.0338ZM78.7403 18.17C78.8503 18.0467 78.967 17.935 79.0903 17.835C79.2136 17.735 79.3436 17.65 79.4803 17.58C79.6203 17.5067 79.767 17.4517 79.9203 17.415C80.077 17.375 80.2453 17.355 80.4253 17.355C80.702 17.355 80.9453 17.4017 81.1553 17.495C81.3686 17.585 81.5453 17.715 81.6853 17.885C81.8286 18.0517 81.937 18.2533 82.0103 18.49C82.0836 18.7267 82.1203 18.9883 82.1203 19.275V22.5H81.2253V19.275C81.2253 18.8917 81.137 18.595 80.9603 18.385C80.787 18.1717 80.522 18.065 80.1653 18.065C79.902 18.065 79.6553 18.1283 79.4253 18.255C79.1986 18.3817 78.9886 18.5533 78.7953 18.77V22.5H77.9003V17.435H78.4353C78.562 17.435 78.6403 17.4967 78.6703 17.62L78.7403 18.17ZM84.3965 15.135V22.5H83.5065V15.135H84.3965ZM87.9748 17.355C88.3448 17.355 88.6781 17.4167 88.9748 17.54C89.2714 17.6633 89.5248 17.8383 89.7348 18.065C89.9448 18.2917 90.1048 18.5667 90.2148 18.89C90.3281 19.21 90.3848 19.5683 90.3848 19.965C90.3848 20.365 90.3281 20.725 90.2148 21.045C90.1048 21.365 89.9448 21.6383 89.7348 21.865C89.5248 22.0917 89.2714 22.2667 88.9748 22.39C88.6781 22.51 88.3448 22.57 87.9748 22.57C87.6014 22.57 87.2648 22.51 86.9648 22.39C86.6681 22.2667 86.4148 22.0917 86.2048 21.865C85.9948 21.6383 85.8331 21.365 85.7198 21.045C85.6098 20.725 85.5548 20.365 85.5548 19.965C85.5548 19.5683 85.6098 19.21 85.7198 18.89C85.8331 18.5667 85.9948 18.2917 86.2048 18.065C86.4148 17.8383 86.6681 17.6633 86.9648 17.54C87.2648 17.4167 87.6014 17.355 87.9748 17.355ZM87.9748 21.875C88.4748 21.875 88.8481 21.7083 89.0948 21.375C89.3414 21.0383 89.4648 20.57 89.4648 19.97C89.4648 19.3667 89.3414 18.8967 89.0948 18.56C88.8481 18.2233 88.4748 18.055 87.9748 18.055C87.7214 18.055 87.4998 18.0983 87.3098 18.185C87.1231 18.2717 86.9664 18.3967 86.8398 18.56C86.7164 18.7233 86.6231 18.925 86.5598 19.165C86.4998 19.4017 86.4698 19.67 86.4698 19.97C86.4698 20.57 86.5931 21.0383 86.8398 21.375C87.0898 21.7083 87.4681 21.875 87.9748 21.875ZM94.2586 20.22C93.8486 20.2333 93.4986 20.2667 93.2086 20.32C92.9219 20.37 92.6869 20.4367 92.5036 20.52C92.3236 20.6033 92.1919 20.7017 92.1086 20.815C92.0286 20.9283 91.9886 21.055 91.9886 21.195C91.9886 21.3283 92.0103 21.4433 92.0536 21.54C92.0969 21.6367 92.1553 21.7167 92.2286 21.78C92.3053 21.84 92.3936 21.885 92.4936 21.915C92.5969 21.9417 92.7069 21.955 92.8236 21.955C92.9803 21.955 93.1236 21.94 93.2536 21.91C93.3836 21.8767 93.5053 21.83 93.6186 21.77C93.7353 21.71 93.8453 21.6383 93.9486 21.555C94.0553 21.4717 94.1586 21.3767 94.2586 21.27V20.22ZM91.3836 18.15C91.6636 17.88 91.9653 17.6783 92.2886 17.545C92.6119 17.4117 92.9703 17.345 93.3636 17.345C93.6469 17.345 93.8986 17.3917 94.1186 17.485C94.3386 17.5783 94.5236 17.7083 94.6736 17.875C94.8236 18.0417 94.9369 18.2433 95.0136 18.48C95.0903 18.7167 95.1286 18.9767 95.1286 19.26V22.5H94.7336C94.6469 22.5 94.5803 22.4867 94.5336 22.46C94.4869 22.43 94.4503 22.3733 94.4236 22.29L94.3236 21.81C94.1903 21.9333 94.0603 22.0433 93.9336 22.14C93.8069 22.2333 93.6736 22.3133 93.5336 22.38C93.3936 22.4433 93.2436 22.4917 93.0836 22.525C92.9269 22.5617 92.7519 22.58 92.5586 22.58C92.3619 22.58 92.1769 22.5533 92.0036 22.5C91.8303 22.4433 91.6786 22.36 91.5486 22.25C91.4219 22.14 91.3203 22.0017 91.2436 21.835C91.1703 21.665 91.1336 21.465 91.1336 21.235C91.1336 21.035 91.1886 20.8433 91.2986 20.66C91.4086 20.4733 91.5869 20.3083 91.8336 20.165C92.0803 20.0217 92.4019 19.905 92.7986 19.815C93.1953 19.7217 93.6819 19.6683 94.2586 19.655V19.26C94.2586 18.8667 94.1736 18.57 94.0036 18.37C93.8336 18.1667 93.5853 18.065 93.2586 18.065C93.0386 18.065 92.8536 18.0933 92.7036 18.15C92.5569 18.2033 92.4286 18.265 92.3186 18.335C92.2119 18.4017 92.1186 18.4633 92.0386 18.52C91.9619 18.5733 91.8853 18.6 91.8086 18.6C91.7486 18.6 91.6969 18.585 91.6536 18.555C91.6103 18.5217 91.5736 18.4817 91.5436 18.435L91.3836 18.15ZM99.7843 18.64C99.6176 18.4167 99.4376 18.2617 99.2443 18.175C99.051 18.085 98.8343 18.04 98.5943 18.04C98.1243 18.04 97.7626 18.2083 97.5093 18.545C97.256 18.8817 97.1293 19.3617 97.1293 19.985C97.1293 20.315 97.1576 20.5983 97.2143 20.835C97.271 21.0683 97.3543 21.2617 97.4643 21.415C97.5743 21.565 97.7093 21.675 97.8693 21.745C98.0293 21.815 98.211 21.85 98.4143 21.85C98.7076 21.85 98.9626 21.7833 99.1793 21.65C99.3993 21.5167 99.601 21.3283 99.7843 21.085V18.64ZM100.674 15.135V22.5H100.144C100.018 22.5 99.9376 22.4383 99.9043 22.315L99.8243 21.7C99.6076 21.96 99.361 22.17 99.0843 22.33C98.8076 22.49 98.4876 22.57 98.1243 22.57C97.8343 22.57 97.571 22.515 97.3343 22.405C97.0976 22.2917 96.896 22.1267 96.7293 21.91C96.5626 21.6933 96.4343 21.4233 96.3443 21.1C96.2543 20.7767 96.2093 20.405 96.2093 19.985C96.2093 19.6117 96.2593 19.265 96.3593 18.945C96.4593 18.6217 96.6026 18.3417 96.7893 18.105C96.976 17.8683 97.2043 17.6833 97.4743 17.55C97.7476 17.4133 98.0543 17.345 98.3943 17.345C98.7043 17.345 98.9693 17.3983 99.1893 17.505C99.4126 17.6083 99.611 17.7533 99.7843 17.94V15.135H100.674ZM106.774 17.355C107.144 17.355 107.477 17.4167 107.774 17.54C108.07 17.6633 108.324 17.8383 108.534 18.065C108.744 18.2917 108.904 18.5667 109.014 18.89C109.127 19.21 109.184 19.5683 109.184 19.965C109.184 20.365 109.127 20.725 109.014 21.045C108.904 21.365 108.744 21.6383 108.534 21.865C108.324 22.0917 108.07 22.2667 107.774 22.39C107.477 22.51 107.144 22.57 106.774 22.57C106.4 22.57 106.064 22.51 105.764 22.39C105.467 22.2667 105.214 22.0917 105.004 21.865C104.794 21.6383 104.632 21.365 104.519 21.045C104.409 20.725 104.354 20.365 104.354 19.965C104.354 19.5683 104.409 19.21 104.519 18.89C104.632 18.5667 104.794 18.2917 105.004 18.065C105.214 17.8383 105.467 17.6633 105.764 17.54C106.064 17.4167 106.4 17.355 106.774 17.355ZM106.774 21.875C107.274 21.875 107.647 21.7083 107.894 21.375C108.14 21.0383 108.264 20.57 108.264 19.97C108.264 19.3667 108.14 18.8967 107.894 18.56C107.647 18.2233 107.274 18.055 106.774 18.055C106.52 18.055 106.299 18.0983 106.109 18.185C105.922 18.2717 105.765 18.3967 105.639 18.56C105.515 18.7233 105.422 18.925 105.359 19.165C105.299 19.4017 105.269 19.67 105.269 19.97C105.269 20.57 105.392 21.0383 105.639 21.375C105.889 21.7083 106.267 21.875 106.774 21.875ZM111.152 18.17C111.262 18.0467 111.379 17.935 111.502 17.835C111.626 17.735 111.756 17.65 111.892 17.58C112.032 17.5067 112.179 17.4517 112.332 17.415C112.489 17.375 112.657 17.355 112.837 17.355C113.114 17.355 113.357 17.4017 113.567 17.495C113.781 17.585 113.957 17.715 114.097 17.885C114.241 18.0517 114.349 18.2533 114.422 18.49C114.496 18.7267 114.532 18.9883 114.532 19.275V22.5H113.637V19.275C113.637 18.8917 113.549 18.595 113.372 18.385C113.199 18.1717 112.934 18.065 112.577 18.065C112.314 18.065 112.067 18.1283 111.837 18.255C111.611 18.3817 111.401 18.5533 111.207 18.77V22.5H110.312V17.435H110.847C110.974 17.435 111.052 17.4967 111.082 17.62L111.152 18.17ZM120.002 22.58C119.602 22.58 119.294 22.4683 119.077 22.245C118.864 22.0217 118.757 21.7 118.757 21.28V18.18H118.147C118.094 18.18 118.049 18.165 118.012 18.135C117.976 18.1017 117.957 18.0517 117.957 17.985V17.63L118.787 17.525L118.992 15.96C119.002 15.91 119.024 15.87 119.057 15.84C119.094 15.8067 119.141 15.79 119.197 15.79H119.647V17.535H121.112V18.18H119.647V21.22C119.647 21.4333 119.699 21.5917 119.802 21.695C119.906 21.7983 120.039 21.85 120.202 21.85C120.296 21.85 120.376 21.8383 120.442 21.815C120.512 21.7883 120.572 21.76 120.622 21.73C120.672 21.7 120.714 21.6733 120.747 21.65C120.784 21.6233 120.816 21.61 120.842 21.61C120.889 21.61 120.931 21.6383 120.967 21.695L121.227 22.12C121.074 22.2633 120.889 22.3767 120.672 22.46C120.456 22.54 120.232 22.58 120.002 22.58ZM122.926 18.11C123.143 17.88 123.383 17.6967 123.646 17.56C123.91 17.4233 124.213 17.355 124.556 17.355C124.833 17.355 125.076 17.4017 125.286 17.495C125.5 17.585 125.676 17.715 125.816 17.885C125.96 18.0517 126.068 18.2533 126.141 18.49C126.215 18.7267 126.251 18.9883 126.251 19.275V22.5H125.356V19.275C125.356 18.8917 125.268 18.595 125.091 18.385C124.918 18.1717 124.653 18.065 124.296 18.065C124.033 18.065 123.786 18.1283 123.556 18.255C123.33 18.3817 123.12 18.5533 122.926 18.77V22.5H122.031V15.135H122.926V18.11ZM130.997 19.415C130.997 19.2083 130.967 19.02 130.907 18.85C130.851 18.6767 130.766 18.5283 130.652 18.405C130.542 18.2783 130.407 18.1817 130.247 18.115C130.087 18.045 129.906 18.01 129.702 18.01C129.276 18.01 128.937 18.135 128.687 18.385C128.441 18.6317 128.287 18.975 128.227 19.415H130.997ZM131.717 21.79C131.607 21.9233 131.476 22.04 131.322 22.14C131.169 22.2367 131.004 22.3167 130.827 22.38C130.654 22.4433 130.474 22.49 130.287 22.52C130.101 22.5533 129.916 22.57 129.732 22.57C129.382 22.57 129.059 22.5117 128.762 22.395C128.469 22.275 128.214 22.1017 127.997 21.875C127.784 21.645 127.617 21.3617 127.497 21.025C127.377 20.6883 127.317 20.3017 127.317 19.865C127.317 19.5117 127.371 19.1817 127.477 18.875C127.587 18.5683 127.744 18.3033 127.947 18.08C128.151 17.8533 128.399 17.6767 128.692 17.55C128.986 17.42 129.316 17.355 129.682 17.355C129.986 17.355 130.266 17.4067 130.522 17.51C130.782 17.61 131.006 17.7567 131.192 17.95C131.382 18.14 131.531 18.3767 131.637 18.66C131.744 18.94 131.797 19.26 131.797 19.62C131.797 19.76 131.782 19.8533 131.752 19.9C131.722 19.9467 131.666 19.97 131.582 19.97H128.197C128.207 20.29 128.251 20.5683 128.327 20.805C128.407 21.0417 128.517 21.24 128.657 21.4C128.797 21.5567 128.964 21.675 129.157 21.755C129.351 21.8317 129.567 21.87 129.807 21.87C130.031 21.87 130.222 21.845 130.382 21.795C130.546 21.7417 130.686 21.685 130.802 21.625C130.919 21.565 131.016 21.51 131.092 21.46C131.172 21.4067 131.241 21.38 131.297 21.38C131.371 21.38 131.427 21.4083 131.467 21.465L131.717 21.79ZM65.6913 36.712L63.6663 31.465C63.6063 31.309 63.5433 31.129 63.4773 30.925C63.4113 30.715 63.3483 30.493 63.2883 30.259C63.1623 30.745 63.0333 31.15 62.9013 31.474L60.8763 36.712H65.6913ZM69.3273 41.5H67.9773C67.8213 41.5 67.6953 41.461 67.5993 41.383C67.5033 41.305 67.4313 41.206 67.3833 41.086L66.1773 37.972H60.3903L59.1843 41.086C59.1483 41.194 59.0793 41.29 58.9773 41.374C58.8753 41.458 58.7493 41.5 58.5993 41.5H57.2493L62.4063 28.603H64.1703L69.3273 41.5ZM72.2218 39.304C72.5158 39.7 72.8368 39.979 73.1848 40.141C73.5328 40.303 73.9228 40.384 74.3548 40.384C75.2068 40.384 75.8608 40.081 76.3168 39.475C76.7728 38.869 77.0008 38.005 77.0008 36.883C77.0008 36.289 76.9468 35.779 76.8388 35.353C76.7368 34.927 76.5868 34.579 76.3888 34.309C76.1908 34.033 75.9478 33.832 75.6598 33.706C75.3718 33.58 75.0448 33.517 74.6788 33.517C74.1568 33.517 73.6978 33.637 73.3018 33.877C72.9118 34.117 72.5518 34.456 72.2218 34.894V39.304ZM72.1408 33.796C72.5248 33.322 72.9688 32.941 73.4728 32.653C73.9768 32.365 74.5528 32.221 75.2008 32.221C75.7288 32.221 76.2058 32.323 76.6318 32.527C77.0578 32.725 77.4208 33.022 77.7208 33.418C78.0208 33.808 78.2518 34.294 78.4138 34.876C78.5758 35.458 78.6568 36.127 78.6568 36.883C78.6568 37.555 78.5668 38.182 78.3868 38.764C78.2068 39.34 77.9458 39.841 77.6038 40.267C77.2678 40.687 76.8538 41.02 76.3618 41.266C75.8758 41.506 75.3268 41.626 74.7148 41.626C74.1568 41.626 73.6768 41.533 73.2748 41.347C72.8788 41.155 72.5278 40.891 72.2218 40.555V44.587H70.6108V32.383H71.5738C71.8018 32.383 71.9428 32.494 71.9968 32.716L72.1408 33.796ZM82.3116 39.304C82.6056 39.7 82.9266 39.979 83.2746 40.141C83.6226 40.303 84.0126 40.384 84.4446 40.384C85.2966 40.384 85.9506 40.081 86.4066 39.475C86.8626 38.869 87.0906 38.005 87.0906 36.883C87.0906 36.289 87.0366 35.779 86.9286 35.353C86.8266 34.927 86.6766 34.579 86.4786 34.309C86.2806 34.033 86.0376 33.832 85.7496 33.706C85.4616 33.58 85.1346 33.517 84.7686 33.517C84.2466 33.517 83.7876 33.637 83.3916 33.877C83.0016 34.117 82.6416 34.456 82.3116 34.894V39.304ZM82.2306 33.796C82.6146 33.322 83.0586 32.941 83.5626 32.653C84.0666 32.365 84.6426 32.221 85.2906 32.221C85.8186 32.221 86.2956 32.323 86.7216 32.527C87.1476 32.725 87.5106 33.022 87.8106 33.418C88.1106 33.808 88.3416 34.294 88.5036 34.876C88.6656 35.458 88.7466 36.127 88.7466 36.883C88.7466 37.555 88.6566 38.182 88.4766 38.764C88.2966 39.34 88.0356 39.841 87.6936 40.267C87.3576 40.687 86.9436 41.02 86.4516 41.266C85.9656 41.506 85.4166 41.626 84.8046 41.626C84.2466 41.626 83.7666 41.533 83.3646 41.347C82.9686 41.155 82.6176 40.891 82.3116 40.555V44.587H80.7006V32.383H81.6636C81.8916 32.383 82.0326 32.494 82.0866 32.716L82.2306 33.796ZM102.371 30.619C102.317 30.709 102.257 30.778 102.191 30.826C102.131 30.868 102.056 30.889 101.966 30.889C101.864 30.889 101.744 30.838 101.606 30.736C101.468 30.634 101.294 30.523 101.084 30.403C100.88 30.277 100.631 30.163 100.337 30.061C100.049 29.959 99.698 29.908 99.284 29.908C98.894 29.908 98.549 29.962 98.249 30.07C97.955 30.172 97.706 30.313 97.502 30.493C97.304 30.673 97.154 30.886 97.052 31.132C96.95 31.372 96.899 31.633 96.899 31.915C96.899 32.275 96.986 32.575 97.16 32.815C97.34 33.049 97.574 33.25 97.862 33.418C98.156 33.586 98.486 33.733 98.852 33.859C99.224 33.979 99.602 34.105 99.986 34.237C100.376 34.369 100.754 34.519 101.12 34.687C101.492 34.849 101.822 35.056 102.11 35.308C102.404 35.56 102.638 35.869 102.812 36.235C102.992 36.601 103.082 37.051 103.082 37.585C103.082 38.149 102.986 38.68 102.794 39.178C102.602 39.67 102.32 40.099 101.948 40.465C101.582 40.831 101.129 41.119 100.589 41.329C100.055 41.539 99.446 41.644 98.762 41.644C97.922 41.644 97.16 41.494 96.476 41.194C95.792 40.888 95.207 40.477 94.721 39.961L95.225 39.133C95.273 39.067 95.33 39.013 95.396 38.971C95.468 38.923 95.546 38.899 95.63 38.899C95.708 38.899 95.795 38.932 95.891 38.998C95.993 39.058 96.107 39.136 96.233 39.232C96.359 39.328 96.503 39.433 96.665 39.547C96.827 39.661 97.01 39.766 97.214 39.862C97.424 39.958 97.661 40.039 97.925 40.105C98.189 40.165 98.486 40.195 98.816 40.195C99.23 40.195 99.599 40.138 99.923 40.024C100.247 39.91 100.52 39.751 100.742 39.547C100.97 39.337 101.144 39.088 101.264 38.8C101.384 38.512 101.444 38.191 101.444 37.837C101.444 37.447 101.354 37.129 101.174 36.883C101 36.631 100.769 36.421 100.481 36.253C100.193 36.085 99.863 35.944 99.491 35.83C99.119 35.71 98.741 35.59 98.357 35.47C97.973 35.344 97.595 35.2 97.223 35.038C96.851 34.876 96.521 34.666 96.233 34.408C95.945 34.15 95.711 33.829 95.531 33.445C95.357 33.055 95.27 32.575 95.27 32.005C95.27 31.549 95.357 31.108 95.531 30.682C95.711 30.256 95.969 29.878 96.305 29.548C96.647 29.218 97.064 28.954 97.556 28.756C98.054 28.558 98.624 28.459 99.266 28.459C99.986 28.459 100.64 28.573 101.228 28.801C101.822 29.029 102.344 29.359 102.794 29.791L102.371 30.619ZM107.564 41.644C106.844 41.644 106.289 41.443 105.899 41.041C105.515 40.639 105.323 40.06 105.323 39.304V33.724H104.225C104.129 33.724 104.048 33.697 103.982 33.643C103.916 33.583 103.883 33.493 103.883 33.373V32.734L105.377 32.545L105.746 29.728C105.764 29.638 105.803 29.566 105.863 29.512C105.929 29.452 106.013 29.422 106.115 29.422H106.925V32.563H109.562V33.724H106.925V39.196C106.925 39.58 107.018 39.865 107.204 40.051C107.39 40.237 107.63 40.33 107.924 40.33C108.092 40.33 108.236 40.309 108.356 40.267C108.482 40.219 108.59 40.168 108.68 40.114C108.77 40.06 108.845 40.012 108.905 39.97C108.971 39.922 109.028 39.898 109.076 39.898C109.16 39.898 109.235 39.949 109.301 40.051L109.769 40.816C109.493 41.074 109.16 41.278 108.77 41.428C108.38 41.572 107.978 41.644 107.564 41.644ZM115.007 32.239C115.673 32.239 116.273 32.35 116.807 32.572C117.341 32.794 117.797 33.109 118.175 33.517C118.553 33.925 118.841 34.42 119.039 35.002C119.243 35.578 119.345 36.223 119.345 36.937C119.345 37.657 119.243 38.305 119.039 38.881C118.841 39.457 118.553 39.949 118.175 40.357C117.797 40.765 117.341 41.08 116.807 41.302C116.273 41.518 115.673 41.626 115.007 41.626C114.335 41.626 113.729 41.518 113.189 41.302C112.655 41.08 112.199 40.765 111.821 40.357C111.443 39.949 111.152 39.457 110.948 38.881C110.75 38.305 110.651 37.657 110.651 36.937C110.651 36.223 110.75 35.578 110.948 35.002C111.152 34.42 111.443 33.925 111.821 33.517C112.199 33.109 112.655 32.794 113.189 32.572C113.729 32.35 114.335 32.239 115.007 32.239ZM115.007 40.375C115.907 40.375 116.579 40.075 117.023 39.475C117.467 38.869 117.689 38.026 117.689 36.946C117.689 35.86 117.467 35.014 117.023 34.408C116.579 33.802 115.907 33.499 115.007 33.499C114.551 33.499 114.152 33.577 113.81 33.733C113.474 33.889 113.192 34.114 112.964 34.408C112.742 34.702 112.574 35.065 112.46 35.497C112.352 35.923 112.298 36.406 112.298 36.946C112.298 38.026 112.52 38.869 112.964 39.475C113.414 40.075 114.095 40.375 115.007 40.375ZM122.897 34.21C123.185 33.586 123.539 33.1 123.959 32.752C124.379 32.398 124.892 32.221 125.498 32.221C125.69 32.221 125.873 32.242 126.047 32.284C126.227 32.326 126.386 32.392 126.524 32.482L126.407 33.679C126.371 33.829 126.281 33.904 126.137 33.904C126.053 33.904 125.93 33.886 125.768 33.85C125.606 33.814 125.423 33.796 125.219 33.796C124.931 33.796 124.673 33.838 124.445 33.922C124.223 34.006 124.022 34.132 123.842 34.3C123.668 34.462 123.509 34.666 123.365 34.912C123.227 35.152 123.101 35.428 122.987 35.74V41.5H121.376V32.383H122.294C122.468 32.383 122.588 32.416 122.654 32.482C122.72 32.548 122.765 32.662 122.789 32.824L122.897 34.21ZM133.666 35.947C133.666 35.575 133.612 35.236 133.504 34.93C133.402 34.618 133.249 34.351 133.045 34.129C132.847 33.901 132.604 33.727 132.316 33.607C132.028 33.481 131.701 33.418 131.335 33.418C130.567 33.418 129.958 33.643 129.508 34.093C129.064 34.537 128.788 35.155 128.68 35.947H133.666ZM134.962 40.222C134.764 40.462 134.527 40.672 134.251 40.852C133.975 41.026 133.678 41.17 133.36 41.284C133.048 41.398 132.724 41.482 132.388 41.536C132.052 41.596 131.719 41.626 131.389 41.626C130.759 41.626 130.177 41.521 129.643 41.311C129.115 41.095 128.656 40.783 128.266 40.375C127.882 39.961 127.582 39.451 127.366 38.845C127.15 38.239 127.042 37.543 127.042 36.757C127.042 36.121 127.138 35.527 127.33 34.975C127.528 34.423 127.81 33.946 128.176 33.544C128.542 33.136 128.989 32.818 129.517 32.59C130.045 32.356 130.639 32.239 131.299 32.239C131.845 32.239 132.349 32.332 132.811 32.518C133.279 32.698 133.681 32.962 134.017 33.31C134.359 33.652 134.626 34.078 134.818 34.588C135.01 35.092 135.106 35.668 135.106 36.316C135.106 36.568 135.079 36.736 135.025 36.82C134.971 36.904 134.869 36.946 134.719 36.946H128.626C128.644 37.522 128.722 38.023 128.86 38.449C129.004 38.875 129.202 39.232 129.454 39.52C129.706 39.802 130.006 40.015 130.354 40.159C130.702 40.297 131.092 40.366 131.524 40.366C131.926 40.366 132.271 40.321 132.559 40.231C132.853 40.135 133.105 40.033 133.315 39.925C133.525 39.817 133.699 39.718 133.837 39.628C133.981 39.532 134.104 39.484 134.206 39.484C134.338 39.484 134.44 39.535 134.512 39.637L134.962 40.222Z" fill="white"/>
<defs>
<clipPath id="clip0_1268_60286">
<rect width="34" height="42" fill="white" transform="translate(12 4)"/>
</clipPath>
</defs>
</svg>
