<svg width="116" height="116" viewBox="0 0 116 116" fill="none" xmlns="http://www.w3.org/2000/svg">
<g clip-path="url(#clip0_78_29573)">
<path d="M23.1996 11.5996H11.5996V23.1996H23.1996V11.5996Z" fill="#011131"/>
<path d="M81.2004 0V5.8H75.4004V11.6H81.2004V34.8H87.0004V40.6H81.2004V46.4H87.0004H92.8004V34.8H110.2V40.6H116V34.8V0H81.2004ZM110.2 29H87.0004V5.8H110.2V29Z" fill="#011131"/>
<path d="M104.4 11.5996H92.7998V23.1996H104.4V11.5996Z" fill="#011131"/>
<path d="M23.1996 92.7998H11.5996V104.4H23.1996V92.7998Z" fill="#011131"/>
<path d="M87.0002 81.2002H81.2002V87.0002H87.0002V81.2002Z" fill="#011131"/>
<path d="M58.0002 110.2H52.2002V116H58.0002V110.2Z" fill="#011131"/>
<path d="M63.8 87H58V92.8H63.8V87Z" fill="#011131"/>
<path d="M63.8 98.5996H58V104.4H63.8V98.5996Z" fill="#011131"/>
<path d="M116 69.5996H110.2V75.3996H116V69.5996Z" fill="#011131"/>
<path d="M5.8 69.5996H0V75.3996H5.8V69.5996Z" fill="#011131"/>
<path d="M5.8 40.5996H0V46.3996H5.8V40.5996Z" fill="#011131"/>
<path d="M63.8002 5.7998V11.5998H52.2002V17.3998H69.6002V11.5998V5.7998H63.8002Z" fill="#011131"/>
<path d="M110.2 46.4004V52.2004H98.5996V58.0004H81.1996V52.2004H75.3996V58.0004H63.7996V63.8004H81.1996V69.6004H69.5996H63.7996V63.8004H57.9996V69.6004H52.1996V63.8004H46.3996V69.6004H40.5996V75.4004H52.1996V81.2004H57.9996V75.4004H69.5996V81.2004H63.7996V87.0004H69.5996V98.6004H75.3996V104.4H81.1996V98.6004H98.5996V87.0004H104.4V81.2004H98.5996V69.6004H86.9996V63.8004H98.5996V69.6004H104.4V63.8004H110.2V58.0004H116V52.2004V46.4004H110.2ZM92.7996 75.4004V92.8004H75.3996V75.4004H92.7996Z" fill="#011131"/>
<path d="M75.3998 34.7998H69.5998V40.5998H63.7998V46.3998V52.1998H69.5998V46.3998H75.3998V40.5998H81.1998V34.7998H75.3998Z" fill="#011131"/>
<path d="M75.3998 110.2H63.7998V116H75.3998V110.2Z" fill="#011131"/>
<path d="M52.2004 5.7998H46.4004V11.5998H52.2004V5.7998Z" fill="#011131"/>
<path d="M98.5998 46.4004H92.7998V52.2004H98.5998V46.4004Z" fill="#011131"/>
<path d="M104.4 40.5996H98.5996V46.3996H104.4V40.5996Z" fill="#011131"/>
<path d="M29.0002 69.5996H23.2002V75.3996H29.0002V69.5996Z" fill="#011131"/>
<path d="M34.8 110.2V87.0004H40.6V81.2004V75.4004H34.8V81.2004H17.4V75.4004H11.6H5.8V81.2004H0V116H34.8H46.4V110.2H34.8ZM29 110.2H5.8V87.0004H29V110.2Z" fill="#011131"/>
<path d="M40.5998 34.7998H34.7998V40.5998H40.5998V34.7998Z" fill="#011131"/>
<path d="M40.6 0H34.8H0V34.8H5.8V40.6H11.6V34.8H17.4V40.6H23.2V34.8H34.8V23.2H40.6V17.4H34.8V5.8H40.6H46.4V0H40.6ZM29 29H5.8V5.8H29V29Z" fill="#011131"/>
<path d="M75.3996 17.4004H69.5996V23.2004H75.3996V17.4004Z" fill="#011131"/>
<path d="M63.8 0H58V5.8H63.8V0Z" fill="#011131"/>
<path d="M69.6 34.8002V29.0002H63.8V23.2002H58V29.0002H46.4V23.2002H40.6V29.0002V34.8002H46.4V46.4002H29V40.6002H23.2V46.4002H5.8V52.2002H17.4V58.0002H0V63.8002H17.4V69.6002H23.2V63.8002H29V69.6002H34.8V63.8002H46.4V58.0002H40.6V52.2002H46.4H52.2V58.0002H58H63.8V52.2002H58V46.4002H52.2V34.8002H69.6ZM34.8 58.0002H23.2V52.2002H34.8V58.0002Z" fill="#011131"/>
<path d="M52.1996 92.8002V87.0002V81.2002H46.3996V87.0002H40.5996V92.8002H46.3996V98.6002H40.5996V104.4H52.1996V98.6002H57.9996V92.8002H52.1996Z" fill="#011131"/>
<path d="M104.4 104.4V98.5996H98.6002V104.4H81.2002V110.2H92.8002V116H98.6002V110.2H110.2V116H116V110.2V104.4H104.4Z" fill="#011131"/>
<path d="M110.2 81.2002V87.0002H104.4V92.8002H116V87.0002V81.2002H110.2Z" fill="#011131"/>
</g>
<defs>
<clipPath id="clip0_78_29573">
<rect width="116" height="116" fill="white"/>
</clipPath>
</defs>
</svg>
