<svg width="164" height="54" viewBox="0 0 164 54" fill="none" xmlns="http://www.w3.org/2000/svg">
<rect width="164" height="54" rx="8" fill="black"/>
<g clip-path="url(#clip0_1268_60290)">
<path d="M27.3853 19.6524L12.9039 11.3757C12.722 11.27 12.493 11.2759 12.3169 11.3815C12.135 11.4872 12.0234 11.675 12.0234 11.8864C12.0234 11.8864 12.0293 12.6495 12.0352 13.9057L22.5836 24.4541L27.3853 19.6524Z" fill="url(#paint0_linear_1268_60290)"/>
<path d="M12.0352 13.9057C12.0528 18.4373 12.1056 29.4377 12.1291 34.9145L22.5895 24.4541L12.0352 13.9057Z" fill="url(#paint1_linear_1268_60290)"/>
<path d="M35.6741 24.3895L27.3857 19.6524L22.5781 24.4541L28.002 29.878L35.68 25.405C35.862 25.2994 35.9735 25.1057 35.9735 24.9002C35.9735 24.6889 35.8561 24.4952 35.6741 24.3895Z" fill="url(#paint2_linear_1268_60290)"/>
<path d="M12.125 34.9145C12.1367 36.8692 12.1426 38.1195 12.1426 38.1195C12.1426 38.3308 12.2541 38.5245 12.4361 38.6243C12.6181 38.73 12.8411 38.73 13.0231 38.6243L28.0093 29.8838L22.5854 24.4599L12.125 34.9145Z" fill="url(#paint3_linear_1268_60290)"/>
</g>
<path d="M49.76 17.86L48.908 15.632C48.8467 15.48 48.7853 15.288 48.724 15.056C48.6947 15.1707 48.664 15.2773 48.632 15.376C48.6027 15.4747 48.5733 15.5627 48.544 15.64L47.696 17.86H49.76ZM51.444 20H50.788C50.7133 20 50.652 19.9813 50.604 19.944C50.556 19.9067 50.5213 19.8587 50.5 19.8L49.992 18.468H47.46L46.952 19.8C46.9333 19.8507 46.8987 19.8973 46.848 19.94C46.7973 19.98 46.736 20 46.664 20H46.008L48.296 14.256H49.156L51.444 20ZM56.8651 14.256V20H56.4331C56.3665 20 56.3105 19.988 56.2651 19.964C56.2225 19.94 56.1785 19.9013 56.1331 19.848L52.8891 15.652C52.8945 15.724 52.8985 15.7947 52.9011 15.864C52.9065 15.9333 52.9091 15.9987 52.9091 16.06V20H52.1611V14.256H52.6011C52.6758 14.256 52.7318 14.2653 52.7691 14.284C52.8065 14.3 52.8478 14.3387 52.8931 14.4L56.1451 18.6C56.1371 18.5227 56.1305 18.448 56.1251 18.376C56.1225 18.3013 56.1211 18.232 56.1211 18.168V14.256H56.8651ZM63.2981 17.128C63.2981 17.5573 63.2288 17.948 63.0901 18.3C62.9541 18.652 62.7608 18.9547 62.5101 19.208C62.2595 19.4587 61.9595 19.6533 61.6101 19.792C61.2608 19.9307 60.8728 20 60.4461 20H58.2861V14.256H60.4461C60.8728 14.256 61.2608 14.3253 61.6101 14.464C61.9595 14.6027 62.2595 14.7987 62.5101 15.052C62.7608 15.3027 62.9541 15.6053 63.0901 15.96C63.2288 16.312 63.2981 16.7013 63.2981 17.128ZM62.4261 17.128C62.4261 16.7867 62.3795 16.4813 62.2861 16.212C62.1928 15.94 62.0595 15.7107 61.8861 15.524C61.7155 15.3347 61.5075 15.1907 61.2621 15.092C61.0195 14.9933 60.7475 14.944 60.4461 14.944H59.1421V19.312H60.4461C60.7475 19.312 61.0195 19.2627 61.2621 19.164C61.5075 19.0653 61.7155 18.9227 61.8861 18.736C62.0595 18.5467 62.1928 18.3173 62.2861 18.048C62.3795 17.7787 62.4261 17.472 62.4261 17.128ZM66.0001 17.024C66.2187 17.024 66.4107 16.9973 66.5761 16.944C66.7441 16.8907 66.8841 16.816 66.9961 16.72C67.1081 16.6213 67.1921 16.5053 67.2481 16.372C67.3041 16.236 67.3321 16.0867 67.3321 15.924C67.3321 15.5933 67.2227 15.344 67.0041 15.176C66.7881 15.008 66.4627 14.924 66.0281 14.924H65.2241V17.024H66.0001ZM68.6801 20H67.9201C67.7681 20 67.6574 19.94 67.5881 19.82L66.1681 17.828C66.1227 17.7613 66.0734 17.7147 66.0201 17.688C65.9667 17.6587 65.8867 17.644 65.7801 17.644H65.2241V20H64.3721V14.256H66.0281C66.3987 14.256 66.7174 14.2947 66.9841 14.372C67.2534 14.4467 67.4747 14.5547 67.6481 14.696C67.8241 14.8347 67.9534 15.0027 68.0361 15.2C68.1214 15.3973 68.1641 15.6187 68.1641 15.864C68.1641 16.064 68.1334 16.252 68.0721 16.428C68.0107 16.604 67.9201 16.7627 67.8001 16.904C67.6827 17.0427 67.5387 17.1627 67.3681 17.264C67.1974 17.3653 67.0041 17.4427 66.7881 17.496C66.8947 17.56 66.9867 17.6493 67.0641 17.764L68.6801 20ZM74.7084 17.128C74.7084 17.5573 74.6391 17.952 74.5004 18.312C74.3644 18.6693 74.1711 18.9787 73.9204 19.24C73.6698 19.4987 73.3698 19.7 73.0204 19.844C72.6711 19.988 72.2831 20.06 71.8564 20.06C71.4324 20.06 71.0444 19.988 70.6924 19.844C70.3431 19.7 70.0431 19.4987 69.7924 19.24C69.5444 18.9787 69.3511 18.6693 69.2124 18.312C69.0738 17.952 69.0044 17.5573 69.0044 17.128C69.0044 16.7013 69.0738 16.308 69.2124 15.948C69.3511 15.588 69.5444 15.2787 69.7924 15.02C70.0431 14.7587 70.3431 14.556 70.6924 14.412C71.0444 14.2653 71.4324 14.192 71.8564 14.192C72.2831 14.192 72.6711 14.2653 73.0204 14.412C73.3698 14.556 73.6698 14.7587 73.9204 15.02C74.1711 15.2787 74.3644 15.588 74.5004 15.948C74.6391 16.308 74.7084 16.7013 74.7084 17.128ZM73.8364 17.128C73.8364 16.7867 73.7898 16.48 73.6964 16.208C73.6031 15.936 73.4698 15.7053 73.2964 15.516C73.1258 15.3267 72.9178 15.1813 72.6724 15.08C72.4298 14.9787 72.1578 14.928 71.8564 14.928C71.5551 14.928 71.2818 14.9787 71.0364 15.08C70.7938 15.1813 70.5858 15.3267 70.4124 15.516C70.2391 15.7053 70.1058 15.936 70.0124 16.208C69.9191 16.48 69.8724 16.7867 69.8724 17.128C69.8724 17.472 69.9191 17.78 70.0124 18.052C70.1058 18.3213 70.2391 18.5507 70.4124 18.74C70.5858 18.9293 70.7938 19.0747 71.0364 19.176C71.2818 19.2747 71.5551 19.324 71.8564 19.324C72.1578 19.324 72.4298 19.2747 72.6724 19.176C72.9178 19.0747 73.1258 18.9293 73.2964 18.74C73.4698 18.5507 73.6031 18.3213 73.6964 18.052C73.7898 17.78 73.8364 17.472 73.8364 17.128ZM76.6343 20H75.7783V14.256H76.6343V20ZM83.0638 17.128C83.0638 17.5573 82.9944 17.948 82.8558 18.3C82.7198 18.652 82.5264 18.9547 82.2758 19.208C82.0251 19.4587 81.7251 19.6533 81.3758 19.792C81.0264 19.9307 80.6384 20 80.2118 20H78.0518V14.256H80.2118C80.6384 14.256 81.0264 14.3253 81.3758 14.464C81.7251 14.6027 82.0251 14.7987 82.2758 15.052C82.5264 15.3027 82.7198 15.6053 82.8558 15.96C82.9944 16.312 83.0638 16.7013 83.0638 17.128ZM82.1918 17.128C82.1918 16.7867 82.1451 16.4813 82.0518 16.212C81.9584 15.94 81.8251 15.7107 81.6518 15.524C81.4811 15.3347 81.2731 15.1907 81.0278 15.092C80.7851 14.9933 80.5131 14.944 80.2118 14.944H78.9078V19.312H80.2118C80.5131 19.312 80.7851 19.2627 81.0278 19.164C81.2731 19.0653 81.4811 18.9227 81.6518 18.736C81.8251 18.5467 81.9584 18.3173 82.0518 18.048C82.1451 17.7787 82.1918 17.472 82.1918 17.128ZM88.9475 17.86L88.0955 15.632C88.0342 15.48 87.9728 15.288 87.9115 15.056C87.8822 15.1707 87.8515 15.2773 87.8195 15.376C87.7902 15.4747 87.7608 15.5627 87.7315 15.64L86.8835 17.86H88.9475ZM90.6315 20H89.9755C89.9008 20 89.8395 19.9813 89.7915 19.944C89.7435 19.9067 89.7088 19.8587 89.6875 19.8L89.1795 18.468H86.6475L86.1395 19.8C86.1208 19.8507 86.0862 19.8973 86.0355 19.94C85.9848 19.98 85.9235 20 85.8515 20H85.1955L87.4835 14.256H88.3435L90.6315 20ZM93.0886 17.212C93.3046 17.212 93.494 17.184 93.6566 17.128C93.822 17.072 93.9593 16.9933 94.0686 16.892C94.1806 16.788 94.2646 16.6653 94.3206 16.524C94.3766 16.38 94.4046 16.2213 94.4046 16.048C94.4046 15.6987 94.2953 15.424 94.0766 15.224C93.8606 15.024 93.5313 14.924 93.0886 14.924H92.2006V17.212H93.0886ZM93.0886 14.256C93.4566 14.256 93.7766 14.2987 94.0486 14.384C94.3206 14.4693 94.546 14.5907 94.7246 14.748C94.9033 14.9027 95.0353 15.0907 95.1206 15.312C95.2086 15.5333 95.2526 15.7787 95.2526 16.048C95.2526 16.3173 95.206 16.5653 95.1126 16.792C95.0193 17.016 94.882 17.2093 94.7006 17.372C94.5193 17.5347 94.2926 17.6613 94.0206 17.752C93.7513 17.84 93.4406 17.884 93.0886 17.884H92.2006V20H91.3486V14.256H93.0886ZM97.9324 17.212C98.1484 17.212 98.3377 17.184 98.5004 17.128C98.6657 17.072 98.803 16.9933 98.9124 16.892C99.0244 16.788 99.1084 16.6653 99.1644 16.524C99.2204 16.38 99.2484 16.2213 99.2484 16.048C99.2484 15.6987 99.139 15.424 98.9204 15.224C98.7044 15.024 98.375 14.924 97.9324 14.924H97.0444V17.212H97.9324ZM97.9324 14.256C98.3004 14.256 98.6204 14.2987 98.8924 14.384C99.1644 14.4693 99.3897 14.5907 99.5684 14.748C99.747 14.9027 99.879 15.0907 99.9644 15.312C100.052 15.5333 100.096 15.7787 100.096 16.048C100.096 16.3173 100.05 16.5653 99.9564 16.792C99.863 17.016 99.7257 17.2093 99.5444 17.372C99.363 17.5347 99.1364 17.6613 98.8644 17.752C98.595 17.84 98.2844 17.884 97.9324 17.884H97.0444V20H96.1924V14.256H97.9324ZM108.193 17.128C108.193 17.5573 108.123 17.952 107.985 18.312C107.849 18.6693 107.655 18.9787 107.405 19.24C107.154 19.4987 106.854 19.7 106.505 19.844C106.155 19.988 105.767 20.06 105.341 20.06C104.917 20.06 104.529 19.988 104.177 19.844C103.827 19.7 103.527 19.4987 103.277 19.24C103.029 18.9787 102.835 18.6693 102.697 18.312C102.558 17.952 102.489 17.5573 102.489 17.128C102.489 16.7013 102.558 16.308 102.697 15.948C102.835 15.588 103.029 15.2787 103.277 15.02C103.527 14.7587 103.827 14.556 104.177 14.412C104.529 14.2653 104.917 14.192 105.341 14.192C105.767 14.192 106.155 14.2653 106.505 14.412C106.854 14.556 107.154 14.7587 107.405 15.02C107.655 15.2787 107.849 15.588 107.985 15.948C108.123 16.308 108.193 16.7013 108.193 17.128ZM107.321 17.128C107.321 16.7867 107.274 16.48 107.181 16.208C107.087 15.936 106.954 15.7053 106.781 15.516C106.61 15.3267 106.402 15.1813 106.157 15.08C105.914 14.9787 105.642 14.928 105.341 14.928C105.039 14.928 104.766 14.9787 104.521 15.08C104.278 15.1813 104.07 15.3267 103.897 15.516C103.723 15.7053 103.59 15.936 103.497 16.208C103.403 16.48 103.357 16.7867 103.357 17.128C103.357 17.472 103.403 17.78 103.497 18.052C103.59 18.3213 103.723 18.5507 103.897 18.74C104.07 18.9293 104.278 19.0747 104.521 19.176C104.766 19.2747 105.039 19.324 105.341 19.324C105.642 19.324 105.914 19.2747 106.157 19.176C106.402 19.0747 106.61 18.9293 106.781 18.74C106.954 18.5507 107.087 18.3213 107.181 18.052C107.274 17.78 107.321 17.472 107.321 17.128ZM113.967 14.256V20H113.535C113.468 20 113.412 19.988 113.367 19.964C113.324 19.94 113.28 19.9013 113.235 19.848L109.991 15.652C109.996 15.724 110 15.7947 110.003 15.864C110.008 15.9333 110.011 15.9987 110.011 16.06V20H109.263V14.256H109.703C109.777 14.256 109.833 14.2653 109.871 14.284C109.908 14.3 109.949 14.3387 109.995 14.4L113.247 18.6C113.239 18.5227 113.232 18.448 113.227 18.376C113.224 18.3013 113.223 18.232 113.223 18.168V14.256H113.967ZM58.123 32.799V37.749C57.475 38.217 56.782 38.568 56.044 38.802C55.312 39.03 54.508 39.144 53.632 39.144C52.594 39.144 51.658 38.985 50.824 38.667C49.99 38.343 49.276 37.893 48.682 37.317C48.094 36.735 47.641 36.039 47.323 35.229C47.005 34.419 46.846 33.528 46.846 32.556C46.846 31.572 46.999 30.675 47.305 29.865C47.617 29.055 48.058 28.362 48.628 27.786C49.198 27.204 49.891 26.754 50.707 26.436C51.523 26.118 52.435 25.959 53.443 25.959C53.953 25.959 54.427 25.998 54.865 26.076C55.303 26.148 55.708 26.256 56.08 26.4C56.452 26.538 56.797 26.709 57.115 26.913C57.433 27.111 57.73 27.336 58.006 27.588L57.511 28.38C57.433 28.5 57.331 28.578 57.205 28.614C57.085 28.644 56.95 28.614 56.8 28.524C56.656 28.44 56.491 28.338 56.305 28.218C56.119 28.098 55.891 27.984 55.621 27.876C55.357 27.762 55.042 27.666 54.676 27.588C54.316 27.51 53.887 27.471 53.389 27.471C52.663 27.471 52.006 27.591 51.418 27.831C50.83 28.065 50.329 28.404 49.915 28.848C49.501 29.286 49.183 29.82 48.961 30.45C48.739 31.074 48.628 31.776 48.628 32.556C48.628 33.366 48.742 34.092 48.97 34.734C49.204 35.37 49.534 35.913 49.96 36.363C50.392 36.807 50.914 37.146 51.526 37.38C52.138 37.614 52.825 37.731 53.587 37.731C54.187 37.731 54.718 37.665 55.18 37.533C55.648 37.395 56.104 37.206 56.548 36.966V34.131H54.541C54.427 34.131 54.334 34.098 54.262 34.032C54.196 33.966 54.163 33.885 54.163 33.789V32.799H58.123ZM64.155 29.739C64.821 29.739 65.421 29.85 65.955 30.072C66.489 30.294 66.945 30.609 67.323 31.017C67.701 31.425 67.989 31.92 68.187 32.502C68.391 33.078 68.493 33.723 68.493 34.437C68.493 35.157 68.391 35.805 68.187 36.381C67.989 36.957 67.701 37.449 67.323 37.857C66.945 38.265 66.489 38.58 65.955 38.802C65.421 39.018 64.821 39.126 64.155 39.126C63.483 39.126 62.877 39.018 62.337 38.802C61.803 38.58 61.347 38.265 60.969 37.857C60.591 37.449 60.3 36.957 60.096 36.381C59.898 35.805 59.799 35.157 59.799 34.437C59.799 33.723 59.898 33.078 60.096 32.502C60.3 31.92 60.591 31.425 60.969 31.017C61.347 30.609 61.803 30.294 62.337 30.072C62.877 29.85 63.483 29.739 64.155 29.739ZM64.155 37.875C65.055 37.875 65.727 37.575 66.171 36.975C66.615 36.369 66.837 35.526 66.837 34.446C66.837 33.36 66.615 32.514 66.171 31.908C65.727 31.302 65.055 30.999 64.155 30.999C63.699 30.999 63.3 31.077 62.958 31.233C62.622 31.389 62.34 31.614 62.112 31.908C61.89 32.202 61.722 32.565 61.608 32.997C61.5 33.423 61.446 33.906 61.446 34.446C61.446 35.526 61.668 36.369 62.112 36.975C62.562 37.575 63.243 37.875 64.155 37.875ZM74.3679 29.739C75.0339 29.739 75.6339 29.85 76.1679 30.072C76.7019 30.294 77.1579 30.609 77.5359 31.017C77.9139 31.425 78.2019 31.92 78.3999 32.502C78.6039 33.078 78.7059 33.723 78.7059 34.437C78.7059 35.157 78.6039 35.805 78.3999 36.381C78.2019 36.957 77.9139 37.449 77.5359 37.857C77.1579 38.265 76.7019 38.58 76.1679 38.802C75.6339 39.018 75.0339 39.126 74.3679 39.126C73.6959 39.126 73.0899 39.018 72.5499 38.802C72.0159 38.58 71.5599 38.265 71.1819 37.857C70.8039 37.449 70.5129 36.957 70.3089 36.381C70.1109 35.805 70.0119 35.157 70.0119 34.437C70.0119 33.723 70.1109 33.078 70.3089 32.502C70.5129 31.92 70.8039 31.425 71.1819 31.017C71.5599 30.609 72.0159 30.294 72.5499 30.072C73.0899 29.85 73.6959 29.739 74.3679 29.739ZM74.3679 37.875C75.2679 37.875 75.9399 37.575 76.3839 36.975C76.8279 36.369 77.0499 35.526 77.0499 34.446C77.0499 33.36 76.8279 32.514 76.3839 31.908C75.9399 31.302 75.2679 30.999 74.3679 30.999C73.9119 30.999 73.5129 31.077 73.1709 31.233C72.8349 31.389 72.5529 31.614 72.3249 31.908C72.1029 32.202 71.9349 32.565 71.8209 32.997C71.7129 33.423 71.6589 33.906 71.6589 34.446C71.6589 35.526 71.8809 36.369 72.3249 36.975C72.7749 37.575 73.4559 37.875 74.3679 37.875ZM83.862 34.545C84.186 34.545 84.471 34.5 84.717 34.41C84.963 34.32 85.17 34.194 85.338 34.032C85.506 33.87 85.632 33.678 85.716 33.456C85.8 33.228 85.842 32.979 85.842 32.709C85.842 32.151 85.671 31.707 85.329 31.377C84.993 31.047 84.504 30.882 83.862 30.882C83.214 30.882 82.719 31.047 82.377 31.377C82.041 31.707 81.873 32.151 81.873 32.709C81.873 32.979 81.915 33.228 81.999 33.456C82.089 33.678 82.218 33.87 82.386 34.032C82.554 34.194 82.761 34.32 83.007 34.41C83.253 34.5 83.538 34.545 83.862 34.545ZM86.751 39.495C86.751 39.273 86.688 39.093 86.562 38.955C86.436 38.817 86.265 38.709 86.049 38.631C85.839 38.553 85.593 38.499 85.311 38.469C85.029 38.433 84.729 38.406 84.411 38.388C84.099 38.37 83.781 38.352 83.457 38.334C83.133 38.316 82.821 38.286 82.521 38.244C82.185 38.4 81.909 38.598 81.693 38.838C81.483 39.072 81.378 39.348 81.378 39.666C81.378 39.87 81.429 40.059 81.531 40.233C81.639 40.413 81.801 40.566 82.017 40.692C82.233 40.824 82.503 40.926 82.827 40.998C83.157 41.076 83.544 41.115 83.988 41.115C84.42 41.115 84.807 41.076 85.149 40.998C85.491 40.92 85.779 40.809 86.013 40.665C86.253 40.521 86.436 40.35 86.562 40.152C86.688 39.954 86.751 39.735 86.751 39.495ZM88.38 30.243V30.837C88.38 31.035 88.254 31.161 88.002 31.215L86.967 31.35C87.171 31.746 87.273 32.184 87.273 32.664C87.273 33.108 87.186 33.513 87.012 33.879C86.844 34.239 86.61 34.548 86.31 34.806C86.01 35.064 85.65 35.262 85.23 35.4C84.81 35.538 84.354 35.607 83.862 35.607C83.436 35.607 83.034 35.556 82.656 35.454C82.464 35.574 82.317 35.703 82.215 35.841C82.113 35.973 82.062 36.108 82.062 36.246C82.062 36.462 82.149 36.627 82.323 36.741C82.503 36.849 82.737 36.927 83.025 36.975C83.313 37.023 83.64 37.053 84.006 37.065C84.378 37.077 84.756 37.098 85.14 37.128C85.53 37.152 85.908 37.197 86.274 37.263C86.646 37.329 86.976 37.437 87.264 37.587C87.552 37.737 87.783 37.944 87.957 38.208C88.137 38.472 88.227 38.814 88.227 39.234C88.227 39.624 88.128 40.002 87.93 40.368C87.738 40.734 87.459 41.058 87.093 41.34C86.727 41.628 86.277 41.856 85.743 42.024C85.215 42.198 84.618 42.285 83.952 42.285C83.286 42.285 82.704 42.219 82.206 42.087C81.708 41.955 81.294 41.778 80.964 41.556C80.634 41.334 80.385 41.076 80.217 40.782C80.055 40.494 79.974 40.191 79.974 39.873C79.974 39.423 80.115 39.042 80.397 38.73C80.679 38.418 81.066 38.169 81.558 37.983C81.288 37.863 81.072 37.704 80.91 37.506C80.754 37.302 80.676 37.029 80.676 36.687C80.676 36.555 80.7 36.42 80.748 36.282C80.796 36.138 80.868 35.997 80.964 35.859C81.066 35.715 81.189 35.58 81.333 35.454C81.477 35.328 81.645 35.217 81.837 35.121C81.387 34.869 81.036 34.536 80.784 34.122C80.532 33.702 80.406 33.216 80.406 32.664C80.406 32.22 80.49 31.818 80.658 31.458C80.832 31.092 81.072 30.783 81.378 30.531C81.684 30.273 82.047 30.075 82.467 29.937C82.893 29.799 83.358 29.73 83.862 29.73C84.258 29.73 84.627 29.775 84.969 29.865C85.311 29.949 85.623 30.075 85.905 30.243H88.38ZM91.6926 25.743V39H90.0906V25.743H91.6926ZM100.392 33.447C100.392 33.075 100.338 32.736 100.23 32.43C100.128 32.118 99.9755 31.851 99.7715 31.629C99.5735 31.401 99.3305 31.227 99.0425 31.107C98.7545 30.981 98.4275 30.918 98.0615 30.918C97.2935 30.918 96.6845 31.143 96.2345 31.593C95.7905 32.037 95.5145 32.655 95.4065 33.447H100.392ZM101.688 37.722C101.49 37.962 101.253 38.172 100.977 38.352C100.701 38.526 100.404 38.67 100.086 38.784C99.7745 38.898 99.4505 38.982 99.1145 39.036C98.7785 39.096 98.4455 39.126 98.1155 39.126C97.4855 39.126 96.9035 39.021 96.3695 38.811C95.8415 38.595 95.3825 38.283 94.9925 37.875C94.6085 37.461 94.3085 36.951 94.0925 36.345C93.8765 35.739 93.7685 35.043 93.7685 34.257C93.7685 33.621 93.8645 33.027 94.0565 32.475C94.2545 31.923 94.5365 31.446 94.9025 31.044C95.2685 30.636 95.7155 30.318 96.2435 30.09C96.7715 29.856 97.3655 29.739 98.0255 29.739C98.5715 29.739 99.0755 29.832 99.5375 30.018C100.005 30.198 100.407 30.462 100.743 30.81C101.085 31.152 101.352 31.578 101.544 32.088C101.736 32.592 101.832 33.168 101.832 33.816C101.832 34.068 101.805 34.236 101.751 34.32C101.697 34.404 101.595 34.446 101.445 34.446H95.3525C95.3705 35.022 95.4485 35.523 95.5865 35.949C95.7305 36.375 95.9285 36.732 96.1805 37.02C96.4325 37.302 96.7325 37.515 97.0805 37.659C97.4285 37.797 97.8185 37.866 98.2505 37.866C98.6525 37.866 98.9975 37.821 99.2855 37.731C99.5795 37.635 99.8315 37.533 100.041 37.425C100.251 37.317 100.425 37.218 100.563 37.128C100.707 37.032 100.83 36.984 100.932 36.984C101.064 36.984 101.166 37.035 101.238 37.137L101.688 37.722ZM110.017 36.804C110.311 37.2 110.632 37.479 110.98 37.641C111.328 37.803 111.718 37.884 112.15 37.884C113.002 37.884 113.656 37.581 114.112 36.975C114.568 36.369 114.796 35.505 114.796 34.383C114.796 33.789 114.742 33.279 114.634 32.853C114.532 32.427 114.382 32.079 114.184 31.809C113.986 31.533 113.743 31.332 113.455 31.206C113.167 31.08 112.84 31.017 112.474 31.017C111.952 31.017 111.493 31.137 111.097 31.377C110.707 31.617 110.347 31.956 110.017 32.394V36.804ZM109.936 31.296C110.32 30.822 110.764 30.441 111.268 30.153C111.772 29.865 112.348 29.721 112.996 29.721C113.524 29.721 114.001 29.823 114.427 30.027C114.853 30.225 115.216 30.522 115.516 30.918C115.816 31.308 116.047 31.794 116.209 32.376C116.371 32.958 116.452 33.627 116.452 34.383C116.452 35.055 116.362 35.682 116.182 36.264C116.002 36.84 115.741 37.341 115.399 37.767C115.063 38.187 114.649 38.52 114.157 38.766C113.671 39.006 113.122 39.126 112.51 39.126C111.952 39.126 111.472 39.033 111.07 38.847C110.674 38.655 110.323 38.391 110.017 38.055V42.087H108.406V29.883H109.369C109.597 29.883 109.738 29.994 109.792 30.216L109.936 31.296ZM120.152 25.743V39H118.55V25.743H120.152ZM127.69 34.896C126.952 34.92 126.322 34.98 125.8 35.076C125.284 35.166 124.861 35.286 124.531 35.436C124.207 35.586 123.97 35.763 123.82 35.967C123.676 36.171 123.604 36.399 123.604 36.651C123.604 36.891 123.643 37.098 123.721 37.272C123.799 37.446 123.904 37.59 124.036 37.704C124.174 37.812 124.333 37.893 124.513 37.947C124.699 37.995 124.897 38.019 125.107 38.019C125.389 38.019 125.647 37.992 125.881 37.938C126.115 37.878 126.334 37.794 126.538 37.686C126.748 37.578 126.946 37.449 127.132 37.299C127.324 37.149 127.51 36.978 127.69 36.786V34.896ZM122.515 31.17C123.019 30.684 123.562 30.321 124.144 30.081C124.726 29.841 125.371 29.721 126.079 29.721C126.589 29.721 127.042 29.805 127.438 29.973C127.834 30.141 128.167 30.375 128.437 30.675C128.707 30.975 128.911 31.338 129.049 31.764C129.187 32.19 129.256 32.658 129.256 33.168V39H128.545C128.389 39 128.269 38.976 128.185 38.928C128.101 38.874 128.035 38.772 127.987 38.622L127.807 37.758C127.567 37.98 127.333 38.178 127.105 38.352C126.877 38.52 126.637 38.664 126.385 38.784C126.133 38.898 125.863 38.985 125.575 39.045C125.293 39.111 124.978 39.144 124.63 39.144C124.276 39.144 123.943 39.096 123.631 39C123.319 38.898 123.046 38.748 122.812 38.55C122.584 38.352 122.401 38.103 122.263 37.803C122.131 37.497 122.065 37.137 122.065 36.723C122.065 36.363 122.164 36.018 122.362 35.688C122.56 35.352 122.881 35.055 123.325 34.797C123.769 34.539 124.348 34.329 125.062 34.167C125.776 33.999 126.652 33.903 127.69 33.879V33.168C127.69 32.46 127.537 31.926 127.231 31.566C126.925 31.2 126.478 31.017 125.89 31.017C125.494 31.017 125.161 31.068 124.891 31.17C124.627 31.266 124.396 31.377 124.198 31.503C124.006 31.623 123.838 31.734 123.694 31.836C123.556 31.932 123.418 31.98 123.28 31.98C123.172 31.98 123.079 31.953 123.001 31.899C122.923 31.839 122.857 31.767 122.803 31.683L122.515 31.17ZM139.352 29.883L134.267 41.691C134.213 41.811 134.144 41.907 134.06 41.979C133.982 42.051 133.859 42.087 133.691 42.087H132.503L134.168 38.469L130.406 29.883H131.792C131.93 29.883 132.038 29.919 132.116 29.991C132.2 30.057 132.257 30.132 132.287 30.216L134.726 35.958C134.822 36.21 134.903 36.474 134.969 36.75C135.053 36.468 135.143 36.201 135.239 35.949L137.606 30.216C137.642 30.12 137.702 30.042 137.786 29.982C137.876 29.916 137.975 29.883 138.083 29.883H139.352Z" fill="white"/>
<defs>
<linearGradient id="paint0_linear_1268_60290" x1="12.0234" y1="17.8793" x2="27.388" y2="17.8793" gradientUnits="userSpaceOnUse">
<stop stop-color="#63BE6B"/>
<stop offset="0.506" stop-color="#5BBC6A"/>
<stop offset="1" stop-color="#4AB96A"/>
</linearGradient>
<linearGradient id="paint1_linear_1268_60290" x1="12.0323" y1="24.4126" x2="22.5833" y2="24.4126" gradientUnits="userSpaceOnUse">
<stop stop-color="#3EC6F2"/>
<stop offset="1" stop-color="#45AFE3"/>
</linearGradient>
<linearGradient id="paint2_linear_1268_60290" x1="22.5838" y1="24.7689" x2="35.9721" y2="24.7689" gradientUnits="userSpaceOnUse">
<stop stop-color="#FAA51A"/>
<stop offset="0.387" stop-color="#FAB716"/>
<stop offset="0.741" stop-color="#FAC412"/>
<stop offset="1" stop-color="#FAC80F"/>
</linearGradient>
<linearGradient id="paint3_linear_1268_60290" x1="12.1276" y1="31.5815" x2="28.009" y2="31.5815" gradientUnits="userSpaceOnUse">
<stop stop-color="#EC3B50"/>
<stop offset="1" stop-color="#E7515B"/>
</linearGradient>
<clipPath id="clip0_1268_60290">
<rect width="24" height="27.46" fill="white" transform="translate(12 11.27)"/>
</clipPath>
</defs>
</svg>
