<svg width="1512" height="932" viewBox="0 0 1512 932" fill="none" xmlns="http://www.w3.org/2000/svg">
<g clip-path="url(#clip0_6_53)">
<g clip-path="url(#clip1_6_53)">
<path d="M1926.97 1105.04C1877.73 1085.77 1831.5 1058.35 1786.8 1031.83C1703.88 982.828 1618.28 932.044 1510.45 932.044C1402.62 932.044 1317.02 982.828 1233.95 1031.83C1189.25 1058.35 1142.98 1085.77 1093.75 1105.04L1091.75 1099.96C1140.74 1080.77 1186.82 1053.56 1231.34 1027.16C1314.73 977.605 1401.24 926.422 1510.52 926.422C1619.8 926.422 1706.09 977.641 1789.7 1027.16C1834.22 1053.56 1880.34 1080.88 1929.11 1099.96L1926.97 1105.04Z" fill="#886400" fill-opacity="0.04"/>
<path d="M816.128 1105.04C766.855 1085.77 720.627 1058.35 675.886 1031.83C593.003 982.828 507.255 932.045 399.572 932.045C291.888 932.045 206.141 982.828 123.221 1032.02C78.8061 1058.17 32.8685 1085.41 -16.0421 1104.64L-18 1099.6C30.4756 1080.51 76.2682 1053.38 120.465 1027.05C203.856 977.496 290.366 926.313 399.644 926.313C508.923 926.313 595.214 977.532 678.823 1027.05C723.347 1053.45 769.465 1080.77 818.231 1099.85L816.128 1105.04Z" fill="#886400" fill-opacity="0.04"/>
<path d="M954.992 1096.08C845.786 1096.08 759.422 1044.86 675.814 995.343C592.93 946.192 507.182 895.335 399.499 895.335C291.816 895.335 206.068 946.119 123.148 995.343C78.8061 1021.68 32.8685 1048.92 -16.0421 1068.15L-18 1063.07C30.4756 1044.02 76.2682 1016.89 120.465 990.519C203.856 940.968 290.366 889.749 399.644 889.749C508.923 889.749 595.214 940.968 678.823 990.519C761.706 1039.67 847.418 1090.49 955.137 1090.49C1062.86 1090.49 1148.57 1039.71 1231.49 990.519C1314.88 940.968 1401.39 889.749 1510.67 889.749V895.19C1402.95 895.19 1317.24 945.974 1234.32 995.198C1150.56 1044.86 1064.2 1096.08 954.992 1096.08Z" fill="#886400" fill-opacity="0.04"/>
<path d="M954.992 1059.58C845.786 1059.58 759.422 1008.37 675.814 958.851C592.93 909.663 507.182 858.843 399.499 858.843C291.816 858.843 206.068 909.627 123.148 958.851C78.8061 985.186 32.8685 1012.43 -16.0421 1031.65L-18 1026.58C30.4756 1007.53 76.2682 980.398 120.465 954.027C203.856 904.476 290.366 853.257 399.644 853.257C508.923 853.257 595.214 904.476 678.823 954.027C761.706 1003.18 847.418 1054 955.137 1054C1062.86 1054 1148.57 1003.21 1231.49 954.027C1314.88 904.476 1401.39 853.257 1510.67 853.257V858.698C1402.95 858.698 1317.24 909.482 1234.32 958.706C1150.56 1008.22 1064.2 1059.58 954.992 1059.58Z" fill="#886400" fill-opacity="0.04"/>
<path d="M954.992 1023.09C845.786 1023.09 759.422 971.874 675.814 922.359C592.93 873.171 507.182 822.351 399.499 822.351C291.816 822.351 206.068 873.135 123.148 922.323C78.8061 948.694 32.8685 975.936 -16.0421 995.162L-18 990.083C30.4756 971.003 76.2682 943.906 120.465 917.535C203.856 868.021 290.366 816.801 399.644 816.801C508.923 816.801 595.214 868.021 678.823 917.535C761.706 966.723 847.418 1017.54 955.137 1017.54C1062.86 1017.54 1148.57 966.759 1231.49 917.535C1314.88 868.021 1401.39 816.801 1510.67 816.801V822.242C1402.95 822.242 1317.24 873.026 1234.32 922.251C1150.56 971.946 1064.2 1023.09 954.992 1023.09Z" fill="#886400" fill-opacity="0.04"/>
<path d="M954.992 986.456C845.786 986.456 759.422 935.237 675.814 885.686C592.93 836.534 507.182 785.714 399.499 785.714C291.816 785.714 206.068 836.498 123.148 885.686C78.8061 912.166 32.8685 939.299 -16.0421 958.633L-18 953.591C30.4756 934.511 76.2682 907.378 120.465 881.043C203.856 831.529 290.366 780.309 399.644 780.309C508.923 780.309 595.214 831.529 678.823 881.043C761.706 930.194 847.418 981.051 955.137 981.051C1062.86 981.051 1148.57 930.267 1231.49 881.043C1314.88 831.529 1401.39 780.309 1510.67 780.309V785.75C1402.95 785.75 1317.24 836.534 1234.32 885.722C1150.56 935.382 1064.2 986.456 954.992 986.456Z" fill="#886400" fill-opacity="0.04"/>
<path d="M954.992 950.182C845.786 950.182 759.422 898.962 675.814 849.412C592.93 800.26 507.182 749.44 399.499 749.44C291.816 749.44 206.068 800.224 123.148 849.412C78.8061 875.674 32.8685 903.025 -16.0421 922.142L-18 917.099C30.4756 898.019 76.2682 870.886 120.465 844.551C203.856 795.037 290.366 743.817 399.644 743.817C508.923 743.817 595.214 795.037 678.823 844.551C761.706 893.703 847.418 944.559 955.137 944.559C1062.86 944.559 1148.57 893.775 1231.49 844.551C1314.88 795.037 1401.39 743.817 1510.67 743.817V749.259C1402.95 749.259 1317.24 800.042 1234.32 849.23C1150.56 898.89 1064.2 950.182 954.992 950.182Z" fill="#886400" fill-opacity="0.04"/>
<path d="M954.992 913.581C845.786 913.581 759.422 862.362 675.814 812.847C592.93 763.696 507.182 712.839 399.499 712.839C291.816 712.839 206.068 763.623 123.148 812.847C78.8061 839.182 32.8685 866.424 -16.0421 885.65L-18 880.608C30.4756 861.527 76.2682 834.394 120.465 808.059C203.856 758.509 290.366 707.289 399.644 707.289C508.923 707.289 595.214 758.509 678.823 808.059C761.706 857.211 847.418 908.031 955.137 908.031C1062.86 908.031 1148.57 857.247 1231.49 808.059C1314.88 758.509 1401.39 707.289 1510.67 707.289V712.73C1402.95 712.73 1317.24 763.514 1234.32 812.739C1150.56 862.362 1064.2 913.581 954.992 913.581Z" fill="#886400" fill-opacity="0.04"/>
<path d="M954.992 877.089C845.786 877.089 759.422 825.87 675.814 776.356C592.93 727.204 507.182 676.347 399.499 676.347C291.816 676.347 206.068 727.131 123.148 776.356C78.8061 802.691 32.8685 829.933 -16.0421 849.158L-18 844.08C30.4756 825.036 76.2682 797.902 120.465 771.531C203.856 721.98 290.366 670.761 399.644 670.761C508.923 670.761 595.214 721.98 678.823 771.531C761.706 820.683 847.418 871.503 955.137 871.503C1062.86 871.503 1148.57 820.719 1231.49 771.531C1314.88 721.98 1401.39 670.761 1510.67 670.761V676.202C1402.95 676.202 1317.24 726.986 1234.32 776.21C1150.56 825.87 1064.2 877.089 954.992 877.089Z" fill="#886400" fill-opacity="0.04"/>
<path d="M954.992 840.597C845.786 840.597 759.422 789.378 675.814 739.864C592.93 690.676 507.182 639.856 399.499 639.856C291.816 639.856 206.068 690.64 123.148 739.864C78.8061 766.199 32.8685 793.441 -16.0421 812.666L-18 807.588C30.4756 788.507 76.2682 761.411 120.465 735.039C203.856 685.525 290.366 634.306 399.644 634.306C508.923 634.306 595.214 685.525 678.823 735.039C761.706 784.227 847.418 835.047 955.137 835.047C1062.86 835.047 1148.57 784.263 1231.49 735.039C1314.88 685.525 1401.39 634.306 1510.67 634.306V639.747C1402.95 639.747 1317.24 690.531 1234.32 739.755C1150.56 789.378 1064.2 840.597 954.992 840.597Z" fill="#886400" fill-opacity="0.04"/>
<path d="M954.992 804.105C845.786 804.105 759.422 752.886 675.814 703.335C592.93 654.184 507.182 603.364 399.499 603.364C291.816 603.364 206.141 654.184 123.221 703.517C78.8061 729.707 32.8685 756.949 -16.0421 776.065L-18 770.987C30.4756 751.907 76.2682 724.774 120.465 698.438C203.856 648.924 290.366 597.705 399.644 597.705C508.923 597.705 595.214 648.924 678.823 698.438C761.706 747.626 847.418 798.446 955.137 798.446C1062.86 798.446 1148.57 747.663 1231.49 698.438C1314.88 648.924 1401.39 597.705 1510.67 597.705V603.146C1402.95 603.146 1317.24 653.93 1234.32 703.118C1150.56 752.886 1064.2 804.105 954.992 804.105Z" fill="#886400" fill-opacity="0.04"/>
<path d="M954.992 767.613C845.786 767.613 759.422 716.394 675.814 666.843C592.93 617.692 507.182 566.872 399.499 566.872C291.816 566.872 206.068 617.656 123.148 666.843C78.8061 693.179 32.8685 720.421 -16.0421 739.791L-18 734.749C30.4756 715.669 76.2682 688.535 120.465 662.2C203.856 612.686 290.366 561.467 399.644 561.467C508.923 561.467 595.214 612.686 678.823 662.2C761.706 711.352 847.418 762.208 955.137 762.208C1062.86 762.208 1148.57 711.425 1231.49 662.2C1314.88 612.686 1401.39 561.467 1510.67 561.467V566.908C1402.95 566.908 1317.24 617.692 1234.32 666.88C1150.56 716.394 1064.2 767.613 954.992 767.613Z" fill="#886400" fill-opacity="0.04"/>
<path d="M954.992 731.121C845.786 731.121 759.422 679.902 675.814 630.352C592.93 581.2 507.182 530.38 399.499 530.38C291.816 530.38 206.068 581.164 123.148 630.352C78.8061 656.687 32.8685 683.929 -16.0421 703.154L-18 698.112C30.4756 679.032 76.2682 651.898 120.465 625.563C203.856 576.013 290.366 524.83 399.644 524.83C508.923 524.83 595.214 576.049 678.823 625.563C761.706 674.715 847.418 725.571 955.137 725.571C1062.86 725.571 1148.57 674.787 1231.49 625.563C1314.88 576.049 1401.39 524.83 1510.67 524.83V530.271C1402.95 530.271 1317.24 581.055 1234.32 630.243C1150.56 679.902 1064.2 731.121 954.992 731.121Z" fill="#886400" fill-opacity="0.04"/>
<path d="M954.992 694.593C845.786 694.593 759.422 643.374 675.814 593.86C592.93 544.708 507.182 493.852 399.499 493.852C291.816 493.852 206.068 544.636 123.148 593.86C78.8061 620.086 32.8685 647.437 -16.0421 666.662L-18 661.584C30.4756 642.54 76.2681 615.407 120.465 589.035C203.856 539.485 290.366 488.265 399.644 488.265C508.923 488.265 595.214 539.485 678.823 589.035C761.561 638.223 847.273 689.007 954.992 689.007C1062.71 689.007 1148.42 638.223 1231.34 589.035C1314.73 539.485 1401.24 488.265 1510.52 488.265V493.707C1402.8 493.707 1317.09 544.49 1234.17 593.715C1150.56 643.374 1064.2 694.593 954.992 694.593Z" fill="#886400" fill-opacity="0.04"/>
<path d="M954.992 658.101C845.786 658.101 759.422 606.882 675.814 557.368C592.93 508.216 507.182 457.36 399.499 457.36C291.816 457.36 206.068 508.144 123.148 557.368C78.8061 583.812 32.8685 610.945 -16.0421 630.17L-18 625.092C30.4756 606.048 76.2681 578.915 120.465 552.543C203.856 502.993 290.366 451.773 399.644 451.773C508.923 451.773 595.214 502.993 678.823 552.543C761.561 601.949 847.273 652.733 954.992 652.733C1062.71 652.733 1148.42 601.949 1231.34 552.761C1314.73 503.21 1401.24 451.991 1510.52 451.991V457.432C1402.8 457.432 1317.09 508.216 1234.17 557.44C1150.56 606.882 1064.2 658.101 954.992 658.101Z" fill="#886400" fill-opacity="0.04"/>
<path d="M954.992 621.609C845.786 621.609 759.422 570.39 675.814 520.84C592.93 471.688 507.182 420.868 399.499 420.868C291.816 420.868 206.068 471.652 123.148 520.84C78.8061 547.211 32.8685 574.453 -16.0421 593.678L-18 588.6C30.4756 569.52 76.2682 542.423 120.465 516.051C203.856 466.537 290.366 415.318 399.644 415.318C508.923 415.318 595.214 466.537 678.823 516.051C761.706 565.239 847.418 616.059 955.137 616.059C1062.86 616.059 1148.57 565.276 1231.49 516.051C1314.88 466.537 1401.39 415.318 1510.67 415.318V420.759C1402.95 420.759 1317.24 471.543 1234.32 520.731C1150.56 570.39 1064.2 621.609 954.992 621.609Z" fill="#886400" fill-opacity="0.04"/>
<path d="M954.992 585.118C845.786 585.118 759.422 533.899 675.814 484.348C593.003 435.088 507.255 384.304 399.572 384.304C291.888 384.304 206.141 435.088 123.221 484.275C78.8061 510.719 32.8685 537.925 -16.0421 557.187L-18 552.108C30.4756 533.028 76.2682 505.895 120.465 479.56C203.856 430.045 290.366 378.826 399.644 378.826C508.923 378.826 595.214 430.045 678.823 479.56C761.706 528.711 847.418 579.568 955.137 579.568C1062.86 579.568 1148.57 528.784 1231.49 479.56C1314.88 430.045 1401.39 378.826 1510.67 378.826V384.304C1402.95 384.304 1317.24 435.088 1234.32 484.275C1150.56 533.899 1064.2 585.118 954.992 585.118Z" fill="#886400" fill-opacity="0.04"/>
<path d="M954.992 548.626C845.786 548.626 759.422 497.407 675.814 447.856C593.003 398.813 507.255 348.029 399.572 348.029C291.888 348.029 206.141 398.813 123.221 448.001C78.8061 474.191 32.8685 501.433 -16.0421 520.658L-18 515.616C30.4756 496.536 76.2682 469.403 120.465 443.068C203.856 393.553 290.366 342.334 399.644 342.334C508.923 342.334 595.214 393.553 678.823 443.068C761.706 492.219 847.418 543.076 955.137 543.076C1062.86 543.076 1148.57 492.292 1231.49 443.068C1314.88 393.553 1401.39 342.334 1510.67 342.334V348.029C1402.95 348.029 1317.24 398.813 1234.32 448.001C1150.56 497.407 1064.2 548.626 954.992 548.626Z" fill="#886400" fill-opacity="0.04"/>
<path d="M954.992 512.098C845.786 512.098 759.422 460.915 675.814 411.364C592.93 362.213 507.182 311.356 399.499 311.356C291.816 311.356 206.068 362.14 123.148 411.364C78.8061 437.699 32.8685 464.941 -16.0421 484.167L-18 479.124C30.4756 460.044 76.2682 432.911 120.465 406.576C203.856 357.025 290.366 305.806 399.644 305.806C508.923 305.806 595.214 357.025 678.823 406.576C761.706 455.728 847.418 506.548 955.137 506.548C1062.86 506.548 1148.57 455.764 1231.49 406.576C1314.88 357.025 1401.39 305.806 1510.67 305.806V311.247C1402.95 311.247 1317.24 362.031 1234.32 411.255C1150.56 460.915 1064.2 512.098 954.992 512.098Z" fill="#886400" fill-opacity="0.04"/>
<path d="M954.992 475.606C845.786 475.606 759.422 424.386 675.814 374.872C592.93 325.721 507.182 274.864 399.499 274.864C291.816 274.864 206.068 325.648 123.148 374.872C78.8061 401.207 32.8685 428.449 -16.0421 447.675L-18 442.596C30.4756 423.552 76.2682 396.419 120.465 370.048C203.856 320.497 290.366 269.278 399.644 269.278C508.923 269.278 595.214 320.497 678.823 370.048C761.706 419.199 847.418 470.019 955.137 470.019C1062.86 470.019 1148.57 419.236 1231.49 370.048C1314.88 320.497 1401.39 269.278 1510.67 269.278V274.719C1402.95 274.719 1317.24 325.503 1234.32 374.727C1150.56 424.386 1064.2 475.606 954.992 475.606Z" fill="#886400" fill-opacity="0.04"/>
<path d="M954.992 439.114C845.786 439.114 759.422 387.895 675.814 338.38C592.93 289.193 507.182 238.372 399.499 238.372C291.816 238.372 206.068 289.156 123.148 338.38C78.8061 364.716 32.8685 391.957 -16.0421 411.183L-18 406.068C30.4756 387.024 76.2682 359.891 120.465 333.52C203.856 284.005 290.366 232.786 399.644 232.786C508.923 232.786 595.214 284.005 678.823 333.556C761.706 382.708 847.418 433.528 955.137 433.528C1062.86 433.528 1148.57 382.744 1231.49 333.556C1314.88 284.005 1401.39 232.786 1510.67 232.786V238.227C1402.95 238.227 1317.24 289.011 1234.32 338.235C1150.56 387.931 1064.2 439.114 954.992 439.114Z" fill="#886400" fill-opacity="0.04"/>
<path d="M954.992 402.622C845.786 402.622 759.422 351.403 675.814 301.852C592.93 252.701 507.182 201.88 399.499 201.88C291.816 201.88 206.068 252.664 123.148 301.852C78.8061 328.223 32.8685 355.465 -16.0421 374.691L-18 369.794C30.4756 350.714 76.2682 323.617 120.465 297.245C203.856 247.731 290.366 196.512 399.644 196.512C508.923 196.512 595.214 247.731 678.823 297.245C761.706 346.433 847.418 397.253 955.137 397.253C1062.86 397.253 1148.57 346.469 1231.49 297.245C1314.88 247.731 1401.39 196.512 1510.67 196.512V201.953C1402.95 201.953 1317.24 252.737 1234.32 301.925C1150.56 351.403 1064.2 402.622 954.992 402.622Z" fill="#886400" fill-opacity="0.04"/>
<path d="M954.992 366.166C845.786 366.166 759.422 314.947 675.814 265.396C592.93 216.245 507.182 165.425 399.499 165.425C291.816 165.425 206.068 216.209 123.148 265.396C78.8061 291.695 32.8685 319.01 -16.0421 338.163L-18 333.12C30.4756 314.04 76.2682 286.907 120.465 260.572C203.856 211.058 290.366 159.838 399.644 159.838C508.923 159.838 595.214 211.058 678.823 260.572C761.706 309.724 847.418 360.58 955.137 360.58C1062.86 360.58 1148.57 309.796 1231.49 260.572C1314.88 211.058 1401.39 159.838 1510.67 159.838V165.28C1402.95 165.28 1317.24 216.063 1234.32 265.251C1150.56 314.911 1064.2 366.166 954.992 366.166Z" fill="#886400" fill-opacity="0.04"/>
<path d="M954.992 329.638C845.786 329.638 759.422 278.419 675.814 228.868C592.93 179.717 507.182 128.897 399.499 128.897C291.816 128.897 206.068 179.681 123.148 228.868C78.8061 255.204 32.8685 282.445 -16.0421 301.671L-18 296.629C30.4756 277.548 76.2682 250.415 120.465 224.08C203.856 174.566 290.366 123.347 399.644 123.347C508.923 123.347 595.214 174.566 678.823 224.08C761.706 273.232 847.418 324.088 955.137 324.088C1062.86 324.088 1148.57 273.304 1231.49 224.08C1314.88 174.566 1401.39 123.347 1510.67 123.347V128.788C1402.95 128.788 1317.24 179.572 1234.32 228.76C1150.56 278.419 1064.2 329.638 954.992 329.638Z" fill="#886400" fill-opacity="0.04"/>
<path d="M954.992 293.11C845.786 293.11 759.422 241.891 675.814 192.376C592.93 143.225 507.182 92.3683 399.499 92.3683C291.816 92.3683 206.068 143.152 123.148 192.376C78.8061 218.711 32.8685 245.953 -16.0421 265.179L-18 260.137C30.4756 241.056 76.2682 213.923 120.465 187.588C203.856 138.038 290.366 86.8184 399.644 86.8184C508.923 86.8184 595.214 138.038 678.823 187.588C761.706 236.74 847.418 287.56 955.137 287.56C1062.86 287.56 1148.57 236.776 1231.49 187.588C1314.88 138.038 1401.39 86.8184 1510.67 86.8184V92.2595C1402.95 92.2595 1317.24 143.043 1234.32 192.268C1150.56 241.891 1064.2 293.11 954.992 293.11Z" fill="#886400" fill-opacity="0.04"/>
<path d="M954.992 256.618C845.786 256.618 759.422 205.399 675.814 155.885C592.93 106.733 507.182 55.8765 399.499 55.8765C291.816 55.8765 206.141 106.733 123.221 155.776C78.8061 182.22 32.8685 209.462 -16.0421 228.687L-18 223.609C30.4756 204.565 76.2682 177.431 120.465 151.06C203.856 101.51 290.366 50.2903 399.644 50.2903C508.923 50.2903 595.214 101.51 678.823 151.06C761.706 200.212 847.418 251.032 955.137 251.032C1062.86 251.032 1148.57 200.248 1231.49 151.06C1314.88 101.51 1401.39 50.2903 1510.67 50.2903V55.7314C1402.95 55.7314 1317.24 106.515 1234.32 155.739C1150.56 205.399 1064.2 256.618 954.992 256.618Z" fill="#886400" fill-opacity="0.04"/>
<path d="M954.992 220.126C845.786 220.126 759.422 168.907 675.814 119.393C593.003 70.205 507.255 19.3847 399.572 19.3847C291.888 19.3847 206.141 70.2049 123.221 119.502C78.8061 145.728 32.8685 172.97 -16.0421 192.05L-18 186.972C30.4756 167.928 76.2682 140.795 120.465 114.423C204.002 65.0903 290.366 13.9436 399.572 13.9436C508.778 13.9436 595.142 65.1628 678.75 114.713C761.634 163.865 847.345 214.685 955.065 214.685C1062.78 214.685 1148.5 163.901 1231.42 114.713C1314.81 65.1628 1401.32 13.9436 1510.59 13.9436V19.3847C1402.87 19.3847 1317.16 70.1687 1234.24 119.393C1150.56 168.907 1064.2 220.126 954.992 220.126Z" fill="#886400" fill-opacity="0.04"/>
<path d="M954.992 183.634C845.786 183.634 759.422 132.415 675.814 82.8645C593.003 33.7129 507.255 -17.1073 399.572 -17.1073C291.888 -17.1073 206.141 33.6766 123.221 82.8645C78.8061 109.236 32.8685 136.478 -16.0421 155.776L-18 150.697C30.4756 131.617 76.2682 104.52 120.465 78.1488C203.856 28.6345 290.366 -22.5847 399.644 -22.5847C508.923 -22.5847 595.214 28.6345 678.823 78.1488C761.706 127.337 847.418 178.157 955.137 178.157C1062.86 178.157 1148.57 127.373 1231.49 78.1488C1314.88 28.6345 1401.39 -22.5847 1510.67 -22.5847V-17.1436C1402.95 -17.1436 1317.24 33.6403 1234.32 82.8282C1150.56 132.415 1064.2 183.634 954.992 183.634Z" fill="#886400" fill-opacity="0.04"/>
<path d="M954.992 147.142C845.786 147.142 759.422 95.9232 675.814 46.3726C593.003 -2.779 507.255 -53.5992 399.572 -53.5992C291.888 -53.5992 206.141 -2.779 123.221 46.3726C78.8061 72.7077 32.8685 99.9496 -16.0421 119.175L-18 114.133C30.4756 95.0526 76.2682 67.9195 120.465 41.5844C203.856 -7.92994 290.366 -59.1492 399.644 -59.1492C508.923 -59.1492 595.214 -7.92994 678.823 41.5844C761.706 90.736 847.418 141.592 955.137 141.592C1062.86 141.592 1148.57 90.8085 1231.49 41.5844C1314.88 -7.92994 1401.39 -59.1492 1510.67 -59.1492V-53.708C1402.95 -53.708 1317.24 -2.9241 1234.32 46.2638C1150.56 95.9232 1064.2 147.142 954.992 147.142Z" fill="#886400" fill-opacity="0.04"/>
<path d="M954.992 110.651C845.786 110.651 759.422 59.3951 675.814 9.88079C631.363 -16.5269 585.316 -43.7325 536.478 -62.9216L538.436 -68C587.709 -48.7384 633.937 -21.3151 678.642 5.20141C761.561 54.2079 847.273 105.209 954.992 105.209C1062.71 105.209 1148.42 54.4256 1231.34 5.20141C1276.05 -21.3151 1322.28 -48.7384 1371.73 -68L1373.72 -62.9216C1324.6 -43.7325 1278.62 -16.5269 1233.95 9.88079C1150.56 59.4314 1064.2 110.651 954.992 110.651Z" fill="#886400" fill-opacity="0.04"/>
<path d="M-16.0421 82.6832L-18 77.6411C30.4756 58.5608 76.2682 31.4277 120.465 5.09259C164.663 -21.2425 211.507 -48.7384 260.671 -68L262.665 -62.9216C213.791 -43.7325 167.745 -16.5269 123.221 9.88079C78.6974 36.2884 32.8685 63.4578 -16.0421 82.6832Z" fill="#886400" fill-opacity="0.04"/>
<path d="M954.992 74.1224C845.786 74.1224 759.422 22.9032 675.814 -26.6112C655.256 -38.8356 633.973 -51.4228 612.69 -62.8854L615.301 -67.6736C636.656 -55.9933 657.975 -43.3336 678.605 -31.1092C761.561 17.9336 847.273 68.7175 954.992 68.7175C1062.71 68.7175 1148.42 17.9336 1231.34 -31.2906C1251.94 -43.515 1273.26 -56.1747 1294.61 -67.855L1297.22 -63.0668C1275.94 -51.4228 1254.69 -38.7993 1234.1 -26.7925C1150.56 22.9032 1064.2 74.1224 954.992 74.1224Z" fill="#886400" fill-opacity="0.04"/>
<path d="M-16.0421 46.1913L-18 41.1129C30.4756 22.0689 76.2682 -5.0642 120.429 -31.4356C141.059 -43.66 162.378 -56.3197 183.734 -68L186.344 -63.2118C165.061 -51.5678 143.779 -38.9443 123.221 -26.9376C78.8061 -0.203448 32.8685 26.966 -16.0421 46.1913Z" fill="#886400" fill-opacity="0.04"/>
<path d="M954.992 37.6305C845.786 37.6305 759.422 -13.5888 675.814 -63.1031L678.605 -67.7825C761.489 -18.6309 847.2 32.1893 954.92 32.1893C1062.64 32.1893 1148.35 -18.5946 1231.23 -67.7825L1234.03 -63.1031C1150.56 -13.5888 1064.2 37.6305 954.992 37.6305Z" fill="#886400" fill-opacity="0.04"/>
<path d="M-16.0421 9.69937L-18 4.62098C30.4393 -14.423 76.2681 -41.5198 120.393 -67.9275L123.221 -63.2844C78.7699 -36.7316 32.8323 -9.52597 -16.0421 9.69937Z" fill="#886400" fill-opacity="0.04"/>
<path d="M954.992 1.13862C868.193 1.13862 797.166 -31.3268 739.155 -63.0668L741.765 -67.855C799.196 -36.4778 869.426 -4.30252 954.992 -4.30252C1040.56 -4.30252 1110.68 -36.4778 1168.22 -67.855L1170.83 -63.0668C1112.82 -31.3268 1041.79 1.13862 954.992 1.13862Z" fill="#886400" fill-opacity="0.04"/>
</g>
</g>
<defs>
<clipPath id="clip0_6_53">
<rect width="1512" height="932" fill="white"/>
</clipPath>
<clipPath id="clip1_6_53">
<rect width="1947" height="1173" fill="white" transform="translate(-18 -68)"/>
</clipPath>
</defs>
</svg>
