<svg width="183" height="54" viewBox="0 0 183 54" fill="none" xmlns="http://www.w3.org/2000/svg">
<rect width="183" height="54" rx="8" fill="#D4B139"/>
<path d="M53.5014 18.5455H56.1435V30.0256C56.1435 31.2472 55.8565 32.3295 55.2827 33.2727C54.7088 34.2102 53.902 34.9489 52.8622 35.4886C51.8224 36.0227 50.6037 36.2898 49.206 36.2898C47.8139 36.2898 46.598 36.0227 45.5582 35.4886C44.5185 34.9489 43.7116 34.2102 43.1378 33.2727C42.5639 32.3295 42.277 31.2472 42.277 30.0256V18.5455H44.9105V29.8125C44.9105 30.6023 45.0838 31.304 45.4304 31.9176C45.7827 32.5312 46.2798 33.0142 46.9219 33.3665C47.5639 33.7131 48.3253 33.8864 49.206 33.8864C50.0923 33.8864 50.8565 33.7131 51.4986 33.3665C52.1463 33.0142 52.6406 32.5312 52.9815 31.9176C53.3281 31.304 53.5014 30.6023 53.5014 29.8125V18.5455ZM69.5774 26.1051L67.2678 26.5142C67.1712 26.2187 67.0178 25.9375 66.8075 25.6705C66.603 25.4034 66.3246 25.1847 65.9723 25.0142C65.62 24.8437 65.1797 24.7585 64.6513 24.7585C63.9297 24.7585 63.3274 24.9205 62.8445 25.2443C62.3615 25.5625 62.12 25.9744 62.12 26.4801C62.12 26.9176 62.282 27.2699 62.6058 27.5369C62.9297 27.804 63.4524 28.0227 64.174 28.1932L66.2536 28.6705C67.4581 28.9489 68.3558 29.3778 68.9467 29.9574C69.5376 30.5369 69.8331 31.2898 69.8331 32.2159C69.8331 33 69.6058 33.6989 69.1513 34.3125C68.7024 34.9205 68.0746 35.3977 67.2678 35.7443C66.4666 36.0909 65.5376 36.2642 64.4808 36.2642C63.0149 36.2642 61.8189 35.9517 60.8928 35.3267C59.9666 34.696 59.3984 33.8011 59.1882 32.642L61.6513 32.267C61.8047 32.9091 62.12 33.3949 62.5973 33.7244C63.0746 34.0483 63.6967 34.2102 64.4638 34.2102C65.299 34.2102 65.9666 34.0369 66.4666 33.6903C66.9666 33.3381 67.2166 32.9091 67.2166 32.4034C67.2166 31.9943 67.0632 31.6506 66.7564 31.3722C66.4553 31.0937 65.9922 30.8835 65.3672 30.7415L63.1513 30.2557C61.9297 29.9773 61.0263 29.5341 60.4411 28.9261C59.8615 28.3182 59.5717 27.5483 59.5717 26.6165C59.5717 25.8437 59.7876 25.1676 60.2195 24.5881C60.6513 24.0085 61.2479 23.5568 62.0092 23.233C62.7706 22.9034 63.6428 22.7386 64.6257 22.7386C66.0405 22.7386 67.1541 23.0455 67.9666 23.6591C68.7791 24.267 69.3161 25.0824 69.5774 26.1051ZM78.277 36.2642C76.9872 36.2642 75.8764 35.9886 74.9446 35.4375C74.0185 34.8807 73.3026 34.0994 72.7969 33.0938C72.2969 32.0824 72.0469 30.8977 72.0469 29.5398C72.0469 28.1989 72.2969 27.017 72.7969 25.9943C73.3026 24.9716 74.0071 24.1733 74.9105 23.5994C75.8196 23.0256 76.8821 22.7386 78.098 22.7386C78.8366 22.7386 79.5526 22.8608 80.2457 23.1051C80.9389 23.3494 81.5611 23.733 82.1122 24.2557C82.6634 24.7784 83.098 25.4574 83.4162 26.2926C83.7344 27.1222 83.8935 28.1307 83.8935 29.3182V30.2216H73.4872V28.3125H81.3963C81.3963 27.642 81.2599 27.0483 80.9872 26.5312C80.7145 26.0085 80.331 25.5966 79.8366 25.2955C79.348 24.9943 78.7741 24.8438 78.1151 24.8438C77.3991 24.8438 76.7741 25.0199 76.2401 25.3722C75.7116 25.7187 75.3026 26.1733 75.0128 26.7358C74.7287 27.2926 74.5866 27.8977 74.5866 28.5511V30.0426C74.5866 30.9176 74.7401 31.6619 75.0469 32.2756C75.3594 32.8892 75.794 33.358 76.3509 33.6818C76.9077 34 77.5582 34.1591 78.3026 34.1591C78.7855 34.1591 79.2259 34.0909 79.6236 33.9545C80.0213 33.8125 80.3651 33.6023 80.6548 33.3239C80.9446 33.0455 81.1662 32.7017 81.3196 32.2926L83.7315 32.7273C83.5384 33.4375 83.1918 34.0597 82.6918 34.5938C82.1974 35.1222 81.5753 35.5341 80.8253 35.8295C80.081 36.1193 79.2315 36.2642 78.277 36.2642ZM96.6946 36L91.8537 18.5455H94.6236L98.0241 32.0625H98.1861L101.723 18.5455H104.467L108.004 32.071H108.166L111.558 18.5455H114.337L109.487 36H106.837L103.163 22.9261H103.027L99.3537 36H96.6946ZM120.886 36.2642C119.597 36.2642 118.486 35.9886 117.554 35.4375C116.628 34.8807 115.912 34.0994 115.406 33.0938C114.906 32.0824 114.656 30.8977 114.656 29.5398C114.656 28.1989 114.906 27.017 115.406 25.9943C115.912 24.9716 116.616 24.1733 117.52 23.5994C118.429 23.0256 119.491 22.7386 120.707 22.7386C121.446 22.7386 122.162 22.8608 122.855 23.1051C123.548 23.3494 124.17 23.733 124.722 24.2557C125.273 24.7784 125.707 25.4574 126.026 26.2926C126.344 27.1222 126.503 28.1307 126.503 29.3182V30.2216H116.097V28.3125H124.006C124.006 27.642 123.869 27.0483 123.597 26.5312C123.324 26.0085 122.94 25.5966 122.446 25.2955C121.957 24.9943 121.384 24.8438 120.724 24.8438C120.009 24.8438 119.384 25.0199 118.849 25.3722C118.321 25.7187 117.912 26.1733 117.622 26.7358C117.338 27.2926 117.196 27.8977 117.196 28.5511V30.0426C117.196 30.9176 117.349 31.6619 117.656 32.2756C117.969 32.8892 118.403 33.358 118.96 33.6818C119.517 34 120.168 34.1591 120.912 34.1591C121.395 34.1591 121.835 34.0909 122.233 33.9545C122.631 33.8125 122.974 33.6023 123.264 33.3239C123.554 33.0455 123.776 32.7017 123.929 32.2926L126.341 32.7273C126.148 33.4375 125.801 34.0597 125.301 34.5938C124.807 35.1222 124.185 35.5341 123.435 35.8295C122.69 36.1193 121.841 36.2642 120.886 36.2642ZM129.535 36V18.5455H132.083V25.0312H132.237C132.384 24.7585 132.597 24.4432 132.876 24.0852C133.154 23.7273 133.54 23.4148 134.035 23.1477C134.529 22.875 135.183 22.7386 135.995 22.7386C137.052 22.7386 137.995 23.0057 138.825 23.5398C139.654 24.0739 140.305 24.8437 140.776 25.8494C141.254 26.8551 141.492 28.0653 141.492 29.4801C141.492 30.8949 141.256 32.108 140.785 33.1193C140.313 34.125 139.665 34.9006 138.842 35.446C138.018 35.9858 137.077 36.2557 136.021 36.2557C135.225 36.2557 134.575 36.1222 134.069 35.8551C133.569 35.5881 133.177 35.2756 132.893 34.9176C132.609 34.5597 132.39 34.2415 132.237 33.9631H132.023V36H129.535ZM132.032 29.4545C132.032 30.375 132.165 31.1818 132.433 31.875C132.7 32.5682 133.086 33.1108 133.592 33.5028C134.097 33.8892 134.717 34.0824 135.45 34.0824C136.211 34.0824 136.847 33.8807 137.359 33.4773C137.87 33.0682 138.256 32.5142 138.518 31.8153C138.785 31.1165 138.918 30.3295 138.918 29.4545C138.918 28.5909 138.788 27.8153 138.526 27.1278C138.271 26.4403 137.884 25.8977 137.367 25.5C136.856 25.1023 136.217 24.9034 135.45 24.9034C134.711 24.9034 134.086 25.0937 133.575 25.4744C133.069 25.8551 132.685 26.3864 132.424 27.0682C132.163 27.75 132.032 28.5455 132.032 29.4545Z" fill="#070707"/>
</svg>
