<svg width="31" height="30" viewBox="0 0 31 30" fill="none" xmlns="http://www.w3.org/2000/svg">
<g clip-path="url(#clip0_4723_49456)">
<circle cx="15.7188" cy="14.5" r="14.5" fill="white"/>
<path d="M30.2188 15C30.2188 6.71344 23.4997 0 15.2188 0C6.93219 0 0.21875 6.71344 0.21875 15C0.21875 22.485 5.70219 28.6912 12.875 29.8153V19.3369H9.06594V15.0009H12.875V11.6944C12.875 7.93594 15.1109 5.86031 18.5384 5.86031C20.18 5.86031 21.8984 6.15281 21.8984 6.15281V9.84375H20.0037C18.1437 9.84375 17.5625 11.0016 17.5625 12.1875V15H21.7222L21.0538 19.3359H17.5625V29.8144C24.7297 28.6903 30.2188 22.4841 30.2188 14.9991V15Z" fill="#0F8FD2"/>
</g>
<defs>
<clipPath id="clip0_4723_49456">
<rect width="30" height="30" fill="white" transform="translate(0.21875)"/>
</clipPath>
</defs>
</svg>
