<svg width="31" height="30" viewBox="0 0 31 30" fill="none" xmlns="http://www.w3.org/2000/svg">
<g clip-path="url(#clip0_4723_49459)">
<path d="M23.1875 0H7.25C3.36675 0 0.21875 3.148 0.21875 7.03125V22.9688C0.21875 26.852 3.36675 30 7.25 30H23.1875C27.0708 30 30.2188 26.852 30.2188 22.9688V7.03125C30.2188 3.148 27.0708 0 23.1875 0Z" fill="url(#paint0_radial_4723_49459)"/>
<path d="M23.1875 0H7.25C3.36675 0 0.21875 3.148 0.21875 7.03125V22.9688C0.21875 26.852 3.36675 30 7.25 30H23.1875C27.0708 30 30.2188 26.852 30.2188 22.9688V7.03125C30.2188 3.148 27.0708 0 23.1875 0Z" fill="url(#paint1_radial_4723_49459)"/>
<path d="M15.2198 3.28125C12.0372 3.28125 11.6377 3.2952 10.3878 3.35203C9.14023 3.40922 8.28863 3.60668 7.54355 3.89648C6.7727 4.19578 6.11891 4.59621 5.46758 5.24777C4.81566 5.89922 4.41523 6.55301 4.115 7.32352C3.82438 8.06883 3.62668 8.92078 3.57055 10.1678C3.51465 11.4178 3.5 11.8174 3.5 15.0001C3.5 18.1828 3.51406 18.581 3.57078 19.8309C3.6282 21.0785 3.82566 21.9301 4.11523 22.6752C4.41477 23.4461 4.8152 24.0998 5.46676 24.7512C6.11797 25.4031 6.77176 25.8045 7.54203 26.1038C8.2877 26.3936 9.13941 26.591 10.3868 26.6482C11.6368 26.705 12.0359 26.719 15.2184 26.719C18.4013 26.719 18.7995 26.705 20.0495 26.6482C21.297 26.591 22.1496 26.3936 22.8952 26.1038C23.6657 25.8045 24.3186 25.4031 24.9697 24.7512C25.6216 24.0998 26.0219 23.4461 26.3223 22.6755C26.6103 21.9301 26.8081 21.0783 26.8667 19.8312C26.9229 18.5812 26.9375 18.1828 26.9375 15.0001C26.9375 11.8174 26.9229 11.418 26.8667 10.168C26.8081 8.92043 26.6103 8.06895 26.3223 7.32387C26.0219 6.55301 25.6216 5.89922 24.9697 5.24777C24.3179 4.59598 23.666 4.19555 22.8945 3.8966C22.1475 3.60668 21.2954 3.4091 20.0478 3.35203C18.7978 3.2952 18.3998 3.28125 15.2162 3.28125H15.2198ZM14.1685 5.39309C14.4806 5.39262 14.8288 5.39309 15.2198 5.39309C18.3488 5.39309 18.7196 5.40434 19.9552 5.46047C21.0978 5.51273 21.718 5.70363 22.1311 5.86406C22.678 6.07641 23.0679 6.33035 23.4778 6.74063C23.8879 7.15078 24.1418 7.54137 24.3547 8.08828C24.5151 8.50078 24.7063 9.12094 24.7583 10.2635C24.8144 11.4989 24.8266 11.8699 24.8266 14.9974C24.8266 18.1249 24.8144 18.4961 24.7583 19.7313C24.706 20.8739 24.5151 21.4941 24.3547 21.9067C24.1423 22.4536 23.8879 22.843 23.4778 23.2529C23.0676 23.6631 22.6782 23.9169 22.1311 24.1294C21.7184 24.2905 21.0978 24.4809 19.9552 24.5332C18.7198 24.5893 18.3488 24.6015 15.2198 24.6015C12.0907 24.6015 11.7198 24.5893 10.4845 24.5332C9.34191 24.4805 8.72176 24.2896 8.30832 24.1291C7.76152 23.9167 7.37082 23.6629 6.96066 23.2527C6.55051 22.8425 6.29668 22.4529 6.08375 21.9057C5.92332 21.4931 5.73219 20.873 5.68016 19.7304C5.62402 18.495 5.61277 18.124 5.61277 14.9945C5.61277 11.865 5.62402 11.496 5.68016 10.2606C5.73242 9.11801 5.92332 8.49785 6.08375 8.08477C6.29621 7.53785 6.55051 7.14727 6.96078 6.73711C7.37105 6.32695 7.76152 6.07301 8.30844 5.8602C8.72152 5.69906 9.34191 5.50863 10.4845 5.45613C11.5655 5.40727 11.9845 5.39262 14.1685 5.39016V5.39309ZM21.4753 7.33887C20.6989 7.33887 20.069 7.96816 20.069 8.74465C20.069 9.52102 20.6989 10.1509 21.4753 10.1509C22.2516 10.1509 22.8815 9.52102 22.8815 8.74465C22.8815 7.96828 22.2516 7.3384 21.4753 7.3384V7.33887ZM15.2198 8.98195C11.8964 8.98195 9.20176 11.6766 9.20176 15.0001C9.20176 18.3237 11.8964 21.017 15.2198 21.017C18.5434 21.017 21.237 18.3237 21.237 15.0001C21.237 11.6767 18.5431 8.98195 15.2196 8.98195H15.2198ZM15.2198 11.0938C17.3771 11.0938 19.1261 12.8426 19.1261 15.0001C19.1261 17.1574 17.3771 18.9064 15.2198 18.9064C13.0625 18.9064 11.3136 17.1574 11.3136 15.0001C11.3136 12.8426 13.0624 11.0938 15.2198 11.0938Z" fill="white"/>
</g>
<defs>
<radialGradient id="paint0_radial_4723_49459" cx="0" cy="0" r="1" gradientUnits="userSpaceOnUse" gradientTransform="translate(8.1875 32.3106) rotate(-90) scale(29.7322 27.6533)">
<stop stop-color="#FFDD55"/>
<stop offset="0.1" stop-color="#FFDD55"/>
<stop offset="0.5" stop-color="#FF543E"/>
<stop offset="1" stop-color="#C837AB"/>
</radialGradient>
<radialGradient id="paint1_radial_4723_49459" cx="0" cy="0" r="1" gradientUnits="userSpaceOnUse" gradientTransform="translate(-4.80637 2.16105) rotate(78.681) scale(13.2905 54.7837)">
<stop stop-color="#3771C8"/>
<stop offset="0.128" stop-color="#3771C8"/>
<stop offset="1" stop-color="#6600FF" stop-opacity="0"/>
</radialGradient>
<clipPath id="clip0_4723_49459">
<rect width="30" height="30" fill="white" transform="translate(0.21875)"/>
</clipPath>
</defs>
</svg>
