<svg width="31" height="30" viewBox="0 0 31 30" fill="none" xmlns="http://www.w3.org/2000/svg">
<g clip-path="url(#clip0_4723_49471)">
<path d="M0.113281 22.3695V22.3709C0.131236 23.0368 0.136774 23.7066 0.249107 24.3685C0.368144 25.0687 0.538304 25.7515 0.862945 26.387C1.30184 27.2472 1.9046 27.9736 2.66546 28.567C3.21173 28.9931 3.80849 29.3313 4.46908 29.5447C5.43234 29.8554 6.42608 29.9745 7.43433 29.9803C8.06339 29.9843 8.69203 30 9.32132 29.9974C13.8913 29.9781 18.4614 30.0304 23.0315 29.9692C23.6379 29.9609 24.2344 29.887 24.8296 29.7781C25.9704 29.5693 26.9786 29.0826 27.8411 28.313C28.8464 27.4164 29.5247 26.3191 29.8308 24.9947C30.0312 24.129 30.0813 23.2508 30.0899 22.3694V22.1936C30.0899 22.1254 30.064 7.21828 30.0616 7.02125C30.0549 6.47998 30.015 5.9428 29.9135 5.41023C29.7901 4.76124 29.6157 4.12886 29.305 3.54172C28.9768 2.92141 28.5658 2.36365 28.0574 1.87626C27.2787 1.12951 26.38 0.601421 25.3338 0.322076C24.3889 0.0698365 23.4248 0.0139907 22.4538 0.0148651C22.4522 0.0146319 22.4485 0.00478012 22.4483 0H7.75023C7.74994 0.0050133 7.74976 0.0100267 7.74941 0.0148651C7.1983 0.02495 6.64637 0.020811 6.09806 0.088782C5.49739 0.163457 4.9025 0.275906 4.33396 0.485882C3.43844 0.81711 2.66039 1.33301 1.99578 2.02176C1.24279 2.80209 0.712021 3.70454 0.430402 4.75541C0.179154 5.69301 0.124474 6.64927 0.123133 7.61229" fill="#FFFC00"/>
<path d="M15.2389 25.3115C15.1767 25.3115 15.1173 25.3092 15.0721 25.307C15.0362 25.3101 14.9992 25.3115 14.9621 25.3115C13.6542 25.3115 12.7797 24.6931 12.0079 24.1471C11.4547 23.7564 10.9331 23.3875 10.3219 23.2858C10.0218 23.2361 9.72317 23.2108 9.43468 23.2108C8.91487 23.2108 8.50407 23.2914 8.20414 23.3501C8.01958 23.3861 7.86044 23.417 7.73744 23.417C7.60861 23.417 7.45209 23.3884 7.38686 23.1657C7.33515 22.99 7.29808 22.8198 7.26228 22.6559C7.17274 22.2462 7.1078 21.9962 6.95443 21.9725C5.31398 21.7194 4.34472 21.3465 4.15165 20.895C4.13142 20.8475 4.12011 20.7998 4.1176 20.7526C4.11008 20.618 4.2051 20.4999 4.33778 20.4779C5.64054 20.2634 6.7989 19.5748 7.78087 18.4307C8.54155 17.5449 8.9151 16.6986 8.95521 16.6052C8.95696 16.601 8.95899 16.5965 8.96109 16.5925C9.15037 16.2085 9.18803 15.8766 9.07337 15.6064C8.86199 15.1079 8.16194 14.8858 7.69879 14.7389C7.5836 14.7024 7.47465 14.6679 7.38785 14.6335C6.97729 14.4713 6.30206 14.1286 6.39201 13.6557C6.45753 13.3108 6.91368 13.0707 7.28234 13.0707C7.3847 13.0707 7.47541 13.0886 7.55177 13.1245C7.96834 13.3196 8.34312 13.4186 8.66543 13.4186C9.06626 13.4186 9.25985 13.2659 9.30666 13.2226C9.29512 13.0088 9.28101 12.7827 9.26737 12.5689C9.26737 12.5686 9.26708 12.5661 9.26708 12.5661C9.17299 11.0694 9.05565 9.20675 9.53209 8.13862C10.9581 4.94136 13.9822 4.69274 14.8748 4.69274C14.8986 4.69274 15.2639 4.68912 15.2639 4.68912C15.2804 4.68883 15.2983 4.6886 15.3168 4.6886C16.2118 4.6886 19.2423 4.93751 20.6691 8.1367C21.1456 9.20552 21.0281 11.0697 20.9337 12.568L20.9293 12.6397C20.9164 12.8431 20.9044 13.0357 20.8943 13.2223C20.9384 13.2629 21.1156 13.4028 21.476 13.417C21.7833 13.4052 22.1363 13.3068 22.5252 13.1247C22.6454 13.0683 22.7785 13.0566 22.8688 13.0566C23.0054 13.0566 23.1444 13.0831 23.2602 13.1315L23.2664 13.1339C23.5963 13.251 23.8124 13.485 23.8171 13.7309C23.8212 13.9601 23.6509 14.3027 22.8131 14.6336C22.7273 14.6676 22.6178 14.7023 22.5021 14.739C22.0386 14.8861 21.3391 15.1081 21.1277 15.6063C21.0129 15.8765 21.0507 16.2082 21.24 16.5922C21.2421 16.5964 21.2439 16.6006 21.246 16.605C21.3042 16.7417 22.7153 19.959 25.8634 20.4776C25.996 20.4997 26.0912 20.6179 26.0836 20.7523C26.0808 20.8005 26.0692 20.8488 26.0488 20.896C25.857 21.345 24.8878 21.7173 23.2469 21.9708C23.0929 21.9946 23.028 22.2435 22.9393 22.651C22.9026 22.8193 22.8652 22.9842 22.8142 23.1576C22.7664 23.3207 22.6602 23.4003 22.4897 23.4003H22.464C22.3529 23.4003 22.1956 23.3802 21.9971 23.3413C21.6503 23.2738 21.2613 23.211 20.7666 23.211C20.4782 23.211 20.1796 23.2363 19.8791 23.286C19.2686 23.3877 18.747 23.756 18.1948 24.1463C17.4216 24.6931 16.5467 25.3115 15.2389 25.3115Z" fill="white"/>
<path d="M15.3148 4.95203C16.1575 4.95203 19.0591 5.17839 20.4265 8.24402C20.8768 9.2535 20.7614 11.0821 20.6688 12.5511C20.6543 12.7842 20.64 13.0102 20.6283 13.2259L20.6234 13.3187L20.6853 13.3877C20.7104 13.4155 20.9444 13.6601 21.465 13.6802L21.4734 13.6807L21.4821 13.6805C21.8263 13.6674 22.2139 13.5605 22.6349 13.3632C22.697 13.3342 22.7795 13.32 22.8668 13.32C22.9663 13.32 23.0721 13.3388 23.1593 13.3755L23.1725 13.3807C23.3932 13.4581 23.5493 13.6039 23.5517 13.7359C23.553 13.8105 23.4972 14.0793 22.7146 14.3885C22.6381 14.4187 22.5375 14.4508 22.4208 14.4876C21.9115 14.6493 21.1421 14.8933 20.8832 15.5035C20.7374 15.8472 20.7773 16.2528 21.0018 16.7089C21.0941 16.9244 22.5477 20.1986 25.8187 20.7376C25.818 20.7531 25.8141 20.7701 25.8053 20.7901C25.7499 20.9207 25.3975 21.3718 23.2047 21.7102C22.8616 21.7627 22.7775 22.1474 22.6801 22.5945C22.6448 22.7546 22.6091 22.9161 22.5599 23.083C22.5448 23.1335 22.542 23.1363 22.488 23.1363C22.4805 23.1363 22.4718 23.1363 22.4622 23.1363C22.365 23.1363 22.2174 23.1162 22.0463 23.0826C21.7347 23.0219 21.309 22.9475 20.7649 22.9475C20.4611 22.9475 20.1483 22.9739 19.8344 23.0263C19.1633 23.1378 18.6177 23.5238 18.0397 23.9323C17.2636 24.4808 16.4614 25.0483 15.2375 25.0483C15.184 25.0483 15.1318 25.0464 15.0795 25.0438L15.0658 25.0432L15.052 25.0443C15.0219 25.0469 14.9917 25.0483 14.9608 25.0483C13.737 25.0483 12.9345 24.4809 12.1587 23.9323C11.5807 23.5238 11.0347 23.1378 10.3638 23.0263C10.0502 22.974 9.737 22.9475 9.43346 22.9475C8.8894 22.9475 8.46321 23.0307 8.15227 23.0915C7.98118 23.125 7.83305 23.1536 7.73611 23.1536C7.65671 23.1536 7.65519 23.149 7.63841 23.0916C7.58921 22.9246 7.55324 22.7592 7.5182 22.5993C7.4205 22.1517 7.33638 21.765 6.99344 21.7124C4.80082 21.3737 4.44837 20.9218 4.39276 20.7916C4.38407 20.7711 4.38017 20.7536 4.37929 20.7381C7.65018 20.1996 9.10351 16.9252 9.19614 16.7089C9.42098 16.2531 9.46086 15.8476 9.3146 15.5035C9.05565 14.8936 8.2864 14.6493 7.7775 14.4879C7.6605 14.4508 7.55977 14.4187 7.48323 14.3885C6.8224 14.1274 6.61913 13.8643 6.64933 13.705C6.68436 13.5212 7.003 13.3343 7.28106 13.3343C7.34355 13.3343 7.39835 13.3444 7.43886 13.3633C7.89047 13.575 8.30273 13.6823 8.66433 13.6823C9.23275 13.6823 9.48575 13.4178 9.51291 13.3876L9.57453 13.3187L9.56958 13.2264C9.55809 13.0108 9.54393 12.7849 9.529 12.5523C9.43672 11.083 9.3213 9.25554 9.77139 8.24601C11.1337 5.19162 14.0212 4.95617 14.8736 4.95617C14.8946 4.95617 15.2652 4.95238 15.2652 4.95238C15.2803 4.95227 15.2972 4.95203 15.3148 4.95203ZM15.3148 4.42517H15.3138C15.2944 4.42517 15.2762 4.42517 15.2588 4.4254C15.1203 4.4268 14.8926 4.42902 14.8721 4.42925C14.3728 4.42925 13.3737 4.49979 12.3005 4.97349C11.6869 5.24415 11.135 5.61012 10.6601 6.06126C10.0939 6.59879 9.63271 7.26153 9.28947 8.03137C8.7868 9.15854 8.90613 11.0571 9.00197 12.5829L9.00232 12.5852C9.01258 12.7486 9.02336 12.9193 9.03321 13.0855C8.95947 13.1194 8.83991 13.1551 8.66368 13.1551C8.38014 13.1551 8.04297 13.0645 7.66178 12.8859C7.54962 12.8336 7.42161 12.8072 7.28036 12.8072C7.05342 12.8072 6.81418 12.874 6.60666 12.996C6.34556 13.1494 6.17685 13.366 6.13103 13.6063C6.10084 13.7652 6.1023 14.0793 6.45119 14.3978C6.64309 14.5731 6.925 14.7348 7.28887 14.8787C7.38436 14.9163 7.49768 14.9522 7.61771 14.9902C8.03422 15.1226 8.66462 15.3226 8.82901 15.7095C8.91231 15.9057 8.87646 16.1638 8.72274 16.4758C8.71871 16.4843 8.71469 16.4927 8.71102 16.5014C8.6726 16.5911 8.31421 17.4029 7.57906 18.2591C7.16133 18.746 6.70121 19.1528 6.21224 19.4688C5.61542 19.8545 4.96964 20.1067 4.29302 20.2182C4.02731 20.2618 3.83757 20.4985 3.85237 20.7675C3.85692 20.8451 3.87511 20.9224 3.90664 20.9972C3.90688 20.9976 3.90717 20.9981 3.9074 20.9985C4.01484 21.2498 4.26393 21.4633 4.6689 21.6516C5.16376 21.8814 5.90386 22.0748 6.86846 22.2261C6.91719 22.3187 6.96779 22.5517 7.00282 22.7112C7.03949 22.8807 7.07773 23.055 7.13224 23.2401C7.19106 23.4407 7.34361 23.6804 7.73552 23.6804C7.88406 23.6804 8.05486 23.647 8.25265 23.6086C8.54232 23.5518 8.93842 23.4743 9.43282 23.4743C9.70692 23.4743 9.99098 23.4984 10.2769 23.5459C10.8281 23.6377 11.3032 23.9733 11.853 24.362C12.6577 24.9309 13.5686 25.5747 14.9602 25.5747C14.9982 25.5747 15.0362 25.5735 15.0738 25.5709C15.1198 25.573 15.1768 25.5747 15.237 25.5747C16.6291 25.5747 17.5397 24.9306 18.3435 24.3623L18.3448 24.3611C18.8947 23.9728 19.3693 23.6377 19.9203 23.5459C20.2061 23.4984 20.4901 23.4743 20.7643 23.4743C21.2366 23.4743 21.6106 23.5345 21.9445 23.5996C22.1624 23.6425 22.3317 23.6631 22.4617 23.6631L22.4744 23.6634H22.4876C22.7742 23.6634 22.9848 23.506 23.0652 23.2307C23.1186 23.0495 23.1567 22.8792 23.1943 22.7069C23.2271 22.5574 23.2794 22.3178 23.3282 22.2241C24.2934 22.0726 25.0332 21.8796 25.5281 21.6498C25.9322 21.4624 26.181 21.2492 26.2891 20.9989C26.3215 20.9239 26.3404 20.8461 26.3447 20.767C26.3599 20.4984 26.1698 20.2612 25.904 20.2176C22.8969 19.722 21.5422 16.6321 21.4861 16.5009C21.4825 16.4922 21.4784 16.4837 21.4742 16.4753C21.3205 16.1632 21.285 15.9054 21.3683 15.7089C21.5324 15.3223 22.1623 15.1223 22.5792 14.99C22.6998 14.952 22.8136 14.9159 22.9083 14.8784C23.3186 14.7164 23.6119 14.5406 23.8054 14.3409C24.0364 14.1029 24.0815 13.8748 24.0787 13.7256C24.0716 13.3645 23.7956 13.0437 23.3565 12.8866C23.2082 12.8252 23.0391 12.7929 22.8669 12.7929C22.7497 12.7929 22.5761 12.809 22.4117 12.8857C22.0599 13.0503 21.7448 13.1403 21.4742 13.1532C21.3304 13.1459 21.2295 13.1147 21.1641 13.0849C21.1723 12.9441 21.1814 12.7994 21.1908 12.6485L21.1947 12.5839C21.2911 11.0572 21.4108 9.15714 20.9079 8.02915C20.5632 7.25658 20.1004 6.59214 19.5319 6.05344C19.0552 5.60201 18.5014 5.2361 17.8856 4.96562C16.8139 4.49542 15.8149 4.42517 15.3148 4.42517Z" fill="#020202"/>
</g>
<defs>
<clipPath id="clip0_4723_49471">
<rect width="30" height="30" fill="white" transform="translate(0.101562)"/>
</clipPath>
</defs>
</svg>
