<svg width="27" height="30" viewBox="0 0 27 30" fill="none" xmlns="http://www.w3.org/2000/svg">
<g clip-path="url(#clip0_4723_49464)">
<path d="M19.8449 10.8022C21.7771 12.1827 24.1442 12.995 26.7008 12.995V8.07809C26.2169 8.07828 25.7343 8.0278 25.261 7.92747V11.7978C22.7047 11.7978 20.3379 10.9856 18.4052 9.60519V19.6393C18.4052 24.6589 14.3339 28.7277 9.31214 28.7277C7.43838 28.7277 5.69672 28.1615 4.25 27.1905C5.90124 28.878 8.204 29.9248 10.7515 29.9248C15.7737 29.9248 19.8451 25.856 19.8451 20.8362V10.8022H19.8449ZM21.6211 5.84164C20.6336 4.7634 19.9852 3.36995 19.8449 1.8294V1.19702H18.4806C18.824 3.15499 19.9956 4.82775 21.6211 5.84164ZM7.42628 23.3387C6.87452 22.6158 6.57629 21.7312 6.57769 20.8218C6.57769 18.5261 8.43986 16.6646 10.7373 16.6646C11.1654 16.6644 11.591 16.7301 11.9991 16.8594V11.8325C11.5222 11.7673 11.041 11.7394 10.5599 11.7497V15.6623C10.1516 15.5329 9.72585 15.4673 9.29755 15.4676C7.00017 15.4676 5.1381 17.3288 5.1381 19.6249C5.1381 21.2484 6.06883 22.654 7.42628 23.3387Z" fill="#FF004F"/>
<path d="M18.407 9.60509C20.3397 10.9855 22.7063 11.7977 25.2627 11.7977V7.92737C23.8357 7.62354 22.5725 6.8783 21.6228 5.84164C19.9971 4.82764 18.8257 3.15488 18.4823 1.19702H14.8985V20.836C14.8904 23.1255 13.0314 24.9793 10.7389 24.9793C9.38805 24.9793 8.18785 24.3357 7.42781 23.3386C6.07057 22.654 5.13974 21.2483 5.13974 19.625C5.13974 17.3292 7.00181 15.4677 9.29919 15.4677C9.73936 15.4677 10.1636 15.5362 10.5616 15.6624V11.7498C5.62791 11.8517 1.66016 15.8808 1.66016 20.8361C1.66016 23.3097 2.64819 25.5522 4.25185 27.1907C5.69857 28.1615 7.44012 28.7279 9.31398 28.7279C14.3359 28.7279 18.4071 24.6588 18.4071 19.6393L18.407 9.60509Z" fill="white"/>
<path d="M25.261 7.92724V6.88097C23.9742 6.88283 22.7129 6.52266 21.6211 5.84162C22.5875 6.89908 23.86 7.62831 25.261 7.92745M18.4805 1.1969C18.4478 1.00982 18.4226 0.821491 18.4052 0.632379V0H13.4568V19.6391C13.449 21.9284 11.59 23.7822 9.29737 23.7822C8.64743 23.7832 8.00638 23.6313 7.42599 23.3388C8.18603 24.3357 9.38623 24.9791 10.7371 24.9791C13.0295 24.9791 14.8886 23.1256 14.8967 20.836V1.197L18.4805 1.1969ZM10.5601 11.7497V10.6356C10.1466 10.5792 9.7297 10.5509 9.31237 10.551C4.28996 10.551 0.21875 14.62 0.21875 19.6391C0.21875 22.7859 1.81878 25.5592 4.25023 27.1904C2.64658 25.552 1.65854 23.3095 1.65854 20.8359C1.65854 15.8808 5.6262 11.8516 10.5601 11.7497Z" fill="#00F2EA"/>
</g>
<defs>
<clipPath id="clip0_4723_49464">
<rect width="26.4828" height="30" fill="white" transform="translate(0.21875)"/>
</clipPath>
</defs>
</svg>
