<svg width="40" height="27" viewBox="0 0 40 27" fill="none" xmlns="http://www.w3.org/2000/svg">
<g clip-path="url(#clip0_4723_49468)">
<path d="M38.2551 4.21125C38.0348 3.39728 37.6052 2.65522 37.0089 2.05894C36.4127 1.46267 35.6706 1.03299 34.8567 0.8127C31.8768 0 19.8837 0 19.8837 0C19.8837 0 7.88995 0.0245999 4.91005 0.8373C4.09608 1.05761 3.35402 1.4873 2.75777 2.08361C2.16152 2.67991 1.73189 3.42201 1.51165 4.236C0.610304 9.5307 0.260654 17.5986 1.5364 22.6815C1.75666 23.4955 2.1863 24.2375 2.78255 24.8338C3.3788 25.4301 4.12085 25.8598 4.9348 26.0801C7.9147 26.8928 19.9081 26.8928 19.9081 26.8928C19.9081 26.8928 31.9014 26.8928 34.8811 26.0801C35.6951 25.8598 36.4372 25.4301 37.0334 24.8338C37.6297 24.2376 38.0594 23.4955 38.2797 22.6815C39.2304 17.3793 39.5233 9.31635 38.2551 4.21125Z" fill="#FF0000"/>
<path d="M16.0664 19.209L26.0156 13.4463L16.0664 7.68359V19.209Z" fill="white"/>
</g>
<defs>
<clipPath id="clip0_4723_49468">
<rect width="38.4" height="27" fill="white" transform="translate(0.703125)"/>
</clipPath>
</defs>
</svg>
