<svg width="39" height="36" viewBox="0 0 39 36" fill="none" xmlns="http://www.w3.org/2000/svg">
<path d="M7.23591 12.3969L5.15875 13.0128L0.69043 17.0225L11.2574 35.0539L34.9636 6.34614L28.6718 1.06836L11.8129 20.3316L7.23591 12.3969Z" fill="#FF7D27"/>
<path d="M11.4502 35.0293L34.9632 6.3457L38.5499 6.49063L19.8796 29.1597L14.3123 35.2225L11.4502 35.0293Z" fill="#F76301"/>
<path d="M28.2851 0.63396C22.7178 7.31271 16.8607 13.7861 11.2693 20.4407L11.9093 20.5253C10.3273 17.9528 8.79358 15.3441 7.07872 12.832C6.86134 12.518 6.53527 11.8538 6.06429 11.9745C4.73744 12.8739 3.4891 13.8839 2.33264 14.9939C1.70466 15.6943 0.521156 16.262 0.400391 17.2402C1.29405 19.0398 2.34471 20.7668 3.32291 22.518C5.73822 26.7209 8.15353 30.9721 10.7862 35.0905C11.1968 35.6944 11.6074 35.4528 11.9939 34.9214L16.4984 29.4866C22.6816 21.9625 28.9614 14.5229 34.9755 6.86584C35.6156 6.14121 34.3596 5.65811 33.9732 5.09048C32.367 3.56874 30.7608 2.07116 29.0459 0.730578C28.273 -0.00613666 27.7417 1.38275 28.6836 1.31029C28.6435 1.32723 28.6004 1.33596 28.5568 1.33596C28.5133 1.33596 28.4702 1.32723 28.43 1.31029L28.6716 1.47937C30.5917 3.01319 32.8742 5.10256 34.4079 6.53976C34.3926 6.44375 34.3926 6.34591 34.4079 6.2499C34.4079 6.2499 34.1785 6.56391 34.0577 6.70884C26.6306 16.0084 18.7688 25.4649 11.1123 34.704C11.1123 34.6074 11.4746 34.5953 11.5712 34.6436C11.6316 34.704 11.6678 34.6919 11.5712 34.6436C11.5108 34.5832 11.5712 34.7161 11.5712 34.6436C7.94823 29.0035 4.32526 22.5663 1.29405 17.0229C1.29405 17.0229 1.23367 17.3731 1.29405 17.204C2.89087 15.5626 4.62402 14.0596 6.47489 12.7113C6.39964 12.7307 6.32069 12.7307 6.24543 12.7113C6.1609 12.6267 6.24543 12.7113 6.24543 12.7113C6.81303 13.4117 7.53762 14.6074 8.12937 15.5373C8.85397 17.0591 9.82009 18.6171 10.75 20.1026C11.0277 20.4649 11.3176 21.4794 11.8973 21.0204C16.6313 15.2475 21.6792 9.74024 26.4736 4.0156C27.2707 3.07357 28.0798 2.1557 28.8889 1.21367C29.1909 0.815119 28.6233 0.235409 28.2851 0.63396Z" fill="#F76301"/>
<path d="M34.9027 6.62422C34.794 6.62422 34.963 6.62422 34.9027 6.62422H35.5186H36.7262H37.9339H38.3445C38.4245 6.6363 38.5059 6.6363 38.586 6.62422L38.3324 6.38267C38.3324 6.32228 38.3324 6.29813 38.3324 6.32228L38.2237 6.50344C38.0909 6.69668 37.958 6.88992 37.8131 7.07108C37.3663 7.67494 36.8953 8.2788 36.4364 8.87059C34.1901 11.7329 31.9439 14.6073 29.6252 17.4213C27.5964 19.8368 25.5192 22.2522 23.4299 24.6677C21.1596 27.2522 18.8892 29.8368 16.5705 32.373C15.8821 33.1097 15.2058 33.8585 14.4933 34.5711L14.2276 34.8126C13.4531 34.8872 12.6742 34.9074 11.8969 34.873H11.281C10.9428 34.873 10.9428 35.3803 11.281 35.4044C11.9693 35.4044 12.6698 35.4044 13.3581 35.4044C13.7998 35.4677 14.25 35.3828 14.6382 35.1629C15.242 34.6154 15.8107 34.0305 16.341 33.4117C18.6356 31.0083 20.9301 28.4479 23.1522 25.8633C25.3743 23.2788 27.5843 20.7909 29.7339 18.2063C32.0767 15.4286 34.323 12.5783 36.6296 9.66769C37.1489 9.01552 37.6561 8.35127 38.1633 7.68702C38.4438 7.36692 38.6906 7.01888 38.9 6.64837C38.9314 6.60464 38.95 6.55302 38.9538 6.4993C38.9575 6.44558 38.9462 6.39188 38.9211 6.34422C38.896 6.29657 38.8582 6.25685 38.8118 6.2295C38.7654 6.20216 38.7123 6.18829 38.6585 6.18943C38.4049 6.18943 38.1392 6.18943 37.8856 6.18943C37.0523 6.18943 36.219 6.11697 35.3857 6.18943C35.1489 6.1684 34.9103 6.1972 34.6853 6.27397C34.3834 6.4189 34.6853 6.87784 34.951 6.72083L34.9027 6.62422Z" fill="#F76301"/>
<path d="M6.17285 11.9503L9.68712 11.7087C9.75658 11.701 9.82687 11.7101 9.89204 11.7354C9.95721 11.7606 10.0153 11.8012 10.0615 11.8536L14.4936 17.1073L11.5107 20.9116L6.17285 11.9503Z" fill="#F76301"/>
<path d="M28.418 0.500977C28.418 0.500977 33.0433 0.500977 33.2486 0.657981C33.4539 0.814986 38.7676 6.26185 38.7676 6.26185L34.7219 6.3947L28.418 0.500977Z" fill="#F76301"/>
</svg>
