<svg width="52" height="52" viewBox="0 0 52 52" fill="none" xmlns="http://www.w3.org/2000/svg">
<path d="M10.9481 17.2176L11.832 16.3337L10.9481 17.2176ZM6.82759 13.097L7.71147 12.2131L6.82759 13.097ZM9.09423 43.0999L9.82896 42.0886H9.82896L9.09423 43.0999ZM6.73128 40.7369L5.72001 41.4717L6.73128 40.7369ZM45.3752 40.7369L44.3639 40.0022L45.3752 40.7369ZM43.0122 43.0999L42.2775 42.0886L43.0122 43.0999ZM9.09423 8.72835L8.3595 7.71708L8.3595 7.71708L9.09423 8.72835ZM6.73128 11.0913L5.72001 10.3566L5.72001 10.3566L6.73128 11.0913ZM37.5991 22.4894C38.0975 22.0117 38.1142 21.2204 37.6365 20.722C37.1588 20.2237 36.3675 20.2069 35.8691 20.6846L37.5991 22.4894ZM48.6489 21.5716C48.6403 20.8812 48.0738 20.3286 47.3835 20.3371C46.6932 20.3456 46.1405 20.9122 46.1491 21.6025L48.6489 21.5716ZM32.4468 7.95378C33.1371 7.96206 33.7034 7.40916 33.7117 6.71885C33.7199 6.02855 33.1671 5.46223 32.4767 5.45396L32.4468 7.95378ZM6.01804 12.2875L4.89195 11.7449L6.01804 12.2875ZM11.832 16.3337L7.71147 12.2131L5.9437 13.9809L10.0643 18.1015L11.832 16.3337ZM10.0643 18.1015C13.5996 21.6368 16.3381 24.3791 18.7536 26.222C21.198 28.087 23.4579 29.1485 26.0532 29.1485V26.6485C24.2243 26.6485 22.492 25.9298 20.2701 24.2345C18.0192 22.5172 15.4173 19.919 11.832 16.3337L10.0643 18.1015ZM23.917 7.93848H28.1894V5.43848H23.917V7.93848ZM28.1894 43.8897H23.917V46.3897H28.1894V43.8897ZM23.917 43.8897C19.8841 43.8897 16.9599 43.888 14.6894 43.642C12.4422 43.3986 10.9842 42.9279 9.82896 42.0886L8.3595 44.1112C10.0119 45.3117 11.9602 45.861 14.4201 46.1275C16.8565 46.3915 19.9398 46.3897 23.917 46.3897V43.8897ZM3.44141 25.9141C3.44141 29.8913 3.43969 32.9746 3.70366 35.4111C3.97017 37.8709 4.51945 39.8192 5.72001 41.4717L7.74255 40.0022C6.90323 38.847 6.43258 37.3889 6.18912 35.1418C5.94312 32.8713 5.94141 29.947 5.94141 25.9141H3.44141ZM9.82896 42.0886C9.02833 41.5069 8.32425 40.8028 7.74255 40.0022L5.72001 41.4717C6.4559 42.4845 7.34663 43.3753 8.3595 44.1112L9.82896 42.0886ZM46.165 25.9141C46.165 29.947 46.1633 32.8713 45.9173 35.1418C45.6739 37.3889 45.2032 38.847 44.3639 40.0022L46.3864 41.4716C47.587 39.8192 48.1363 37.8709 48.4028 35.4111C48.6667 32.9746 48.665 29.8913 48.665 25.9141H46.165ZM28.1894 46.3897C32.1666 46.3897 35.2499 46.3915 37.6864 46.1275C40.1462 45.861 42.0945 45.3117 43.7469 44.1112L42.2775 42.0886C41.1223 42.9279 39.6642 43.3986 37.4171 43.642C35.1466 43.888 32.2223 43.8897 28.1894 43.8897V46.3897ZM44.3639 40.0022C43.7822 40.8028 43.0781 41.5069 42.2775 42.0886L43.7469 44.1112C44.7598 43.3753 45.6505 42.4845 46.3864 41.4716L44.3639 40.0022ZM23.917 5.43848C19.9398 5.43848 16.8565 5.43676 14.4201 5.70073C11.9602 5.96724 10.0119 6.51652 8.3595 7.71708L9.82897 9.73962C10.9842 8.9003 12.4422 8.42965 14.6894 8.18619C16.9599 7.94019 19.8841 7.93848 23.917 7.93848V5.43848ZM8.3595 7.71708C7.34663 8.45297 6.4559 9.3437 5.72001 10.3566L7.74255 11.826C8.32424 11.0254 9.02833 10.3213 9.82897 9.73962L8.3595 7.71708ZM35.8691 20.6846C31.441 24.9292 28.8893 26.6485 26.0532 26.6485V29.1485C30.0189 29.1485 33.2481 26.6601 37.5991 22.4894L35.8691 20.6846ZM48.665 25.9141C48.665 24.3227 48.6651 22.8794 48.6489 21.5716L46.1491 21.6025C46.165 22.8918 46.165 24.3185 46.165 25.9141H48.665ZM28.1894 7.93848C29.7625 7.93848 31.1716 7.93849 32.4468 7.95378L32.4767 5.45396C31.1836 5.43846 29.7586 5.43848 28.1894 5.43848V7.93848ZM46.165 10.9608C46.165 12.63 44.8119 13.9832 43.1427 13.9832V16.4832C46.1926 16.4832 48.665 14.0108 48.665 10.9608H46.165ZM43.1427 13.9832C41.4735 13.9832 40.1203 12.63 40.1203 10.9608H37.6203C37.6203 14.0108 40.0928 16.4832 43.1427 16.4832V13.9832ZM40.1203 10.9608C40.1203 9.29163 41.4735 7.93848 43.1427 7.93848V5.43848C40.0928 5.43848 37.6203 7.91092 37.6203 10.9608H40.1203ZM43.1427 7.93848C44.8119 7.93848 46.165 9.29163 46.165 10.9608H48.665C48.665 7.91092 46.1926 5.43848 43.1427 5.43848V7.93848ZM5.94141 25.9141C5.94141 22.4262 5.94222 19.7622 6.10368 17.6249C6.26492 15.4906 6.58032 14.0001 7.14412 12.8301L4.89195 11.7449C4.12912 13.328 3.7812 15.1808 3.61079 17.4366C3.44059 19.6894 3.44141 22.4622 3.44141 25.9141H5.94141ZM7.14412 12.8301C7.31708 12.4711 7.51506 12.1391 7.74255 11.826L5.72001 10.3566C5.40242 10.7937 5.12815 11.2547 4.89195 11.7449L7.14412 12.8301ZM7.71147 12.2131L6.90192 11.4036L5.13415 13.1714L5.9437 13.9809L7.71147 12.2131Z" fill="#D4B139"/>
</svg>
