<svg width="33" height="26" viewBox="0 0 33 26" fill="none" xmlns="http://www.w3.org/2000/svg">
<path d="M0 21.4432C0 22.5191 0.427413 23.551 1.18821 24.3118C1.94902 25.0726 2.98088 25.5 4.05682 25.5H28.3977C29.4737 25.5 30.5055 25.0726 31.2663 24.3118C32.0271 23.551 32.4545 22.5191 32.4545 21.4432V10.2869H0V21.4432ZM4.78125 15.9375C4.78125 15.3611 5.01022 14.8083 5.41779 14.4007C5.82537 13.9932 6.37815 13.7642 6.95455 13.7642H10.4318C11.0082 13.7642 11.561 13.9932 11.9686 14.4007C12.3761 14.8083 12.6051 15.3611 12.6051 15.9375V17.3864C12.6051 17.9628 12.3761 18.5155 11.9686 18.9231C11.561 19.3307 11.0082 19.5597 10.4318 19.5597H6.95455C6.37815 19.5597 5.82537 19.3307 5.41779 18.9231C5.01022 18.5155 4.78125 17.9628 4.78125 17.3864V15.9375ZM28.3977 0H4.05682C2.98088 0 1.94902 0.427414 1.18821 1.18821C0.427413 1.94902 0 2.98088 0 4.05682V5.94034H32.4545V4.05682C32.4545 2.98088 32.0271 1.94902 31.2663 1.18821C30.5055 0.427414 29.4737 0 28.3977 0Z" fill="#FF7D27"/>
</svg>
