<svg width="40" height="40" viewBox="0 0 40 40" fill="none" xmlns="http://www.w3.org/2000/svg">
<path d="M33.4237 2.3366C33.2804 2.25512 33.1546 2.14611 33.0536 2.01582C32.9526 1.88554 32.8784 1.73657 32.8352 1.57748C32.792 1.41839 32.7807 1.25233 32.802 1.08886C32.8232 0.925389 32.8766 0.767734 32.959 0.624974C33.0415 0.482213 33.1513 0.357167 33.2822 0.257033C33.4132 0.1569 33.5627 0.0836565 33.722 0.0415214C33.8814 -0.00061372 34.0475 -0.0108087 34.2109 0.011523C34.3742 0.0338547 34.5315 0.088272 34.6737 0.171642C35.0204 0.371638 35.3512 0.588301 35.6662 0.821629C37.7125 2.33059 39.1499 4.52335 39.7173 7.00175C40.2847 9.48016 39.9446 12.0799 38.7586 14.3289C38.5998 14.6146 38.3354 14.8267 38.022 14.9198C37.7086 15.0129 37.3713 14.9795 37.0822 14.8268C36.7932 14.6741 36.5755 14.4142 36.4757 14.1029C36.376 13.7916 36.4022 13.4536 36.5487 13.1614C37.5282 11.3031 37.7499 9.1376 37.1672 7.11936C36.5846 5.10111 35.2429 3.38696 33.4237 2.3366ZM30.9238 6.66651C30.7805 6.58504 30.6547 6.47602 30.5537 6.34574C30.4527 6.21546 30.3785 6.06648 30.3353 5.90739C30.2921 5.74831 30.2808 5.58225 30.302 5.41878C30.3233 5.2553 30.3766 5.09765 30.4591 4.95489C30.5415 4.81213 30.6513 4.68708 30.7823 4.58695C30.9132 4.48681 31.0627 4.41357 31.2221 4.37144C31.3815 4.3293 31.5476 4.31911 31.7109 4.34144C31.8742 4.36377 32.0315 4.41819 32.1737 4.50156C33.3947 5.20619 34.3065 6.34356 34.7287 7.6885C35.151 9.03344 35.0528 10.4879 34.4537 11.7639C34.3125 12.0639 34.0578 12.2956 33.7458 12.4078C33.4338 12.5201 33.09 12.5039 32.79 12.3627C32.49 12.2214 32.2583 11.9668 32.146 11.6548C32.0338 11.3428 32.05 10.999 32.1912 10.6989C32.5234 9.99018 32.5774 9.18261 32.3427 8.43592C32.108 7.68923 31.6017 7.0578 30.9238 6.66651ZM6.56174 37.6634C6.70504 37.7449 6.83082 37.8539 6.93182 37.9842C7.03282 38.1145 7.10705 38.2634 7.15024 38.4225C7.19343 38.5816 7.20473 38.7477 7.18348 38.9111C7.16223 39.0746 7.10886 39.2323 7.02644 39.375C6.94401 39.5178 6.83416 39.6428 6.70321 39.743C6.57226 39.8431 6.4228 39.9163 6.26343 39.9585C6.10406 40.0006 5.93793 40.0108 5.7746 39.9885C5.61127 39.9661 5.45398 39.9117 5.31176 39.8284C2.93261 38.4545 1.17811 36.2125 0.41647 33.5729C-0.345169 30.9333 -0.0547255 28.1012 1.22684 25.6711C1.30141 25.5224 1.40493 25.39 1.53132 25.2818C1.65772 25.1736 1.80444 25.0917 1.9629 25.0409C2.12136 24.9902 2.28836 24.9715 2.45411 24.9862C2.61986 25.0008 2.78102 25.0483 2.92815 25.1261C3.07527 25.2038 3.2054 25.3101 3.3109 25.4388C3.4164 25.5675 3.49514 25.7159 3.54252 25.8754C3.58989 26.0349 3.60495 26.2023 3.58679 26.3677C3.56864 26.5331 3.51765 26.6932 3.4368 26.8386C2.45728 28.6969 2.23558 30.8624 2.81821 32.8806C3.40085 34.8989 4.74253 36.613 6.56174 37.6634ZM9.06169 33.3335C9.205 33.415 9.33077 33.524 9.43177 33.6543C9.53277 33.7845 9.607 33.9335 9.65019 34.0926C9.69338 34.2517 9.70468 34.4178 9.68343 34.5812C9.66219 34.7447 9.60881 34.9024 9.52639 35.0451C9.44396 35.1879 9.33411 35.3129 9.20316 35.4131C9.07221 35.5132 8.92275 35.5864 8.76338 35.6286C8.60401 35.6707 8.43788 35.6809 8.27455 35.6586C8.11122 35.6362 7.95393 35.5818 7.81172 35.4984C6.5908 34.7938 5.67896 33.6564 5.25673 32.3115C4.83449 30.9666 4.93265 29.5121 5.53176 28.2361C5.67299 27.9361 5.92761 27.7044 6.23962 27.5922C6.55162 27.4799 6.89546 27.4961 7.19548 27.6374C7.4955 27.7786 7.72713 28.0332 7.83942 28.3452C7.9517 28.6572 7.93544 29.001 7.79422 29.3011C7.4621 30.0098 7.40804 30.8174 7.64274 31.5641C7.87744 32.3108 8.38381 32.9422 9.06169 33.3335ZM20.4265 2.67659C21.05 2.50813 21.7008 2.46524 22.341 2.55042C22.9812 2.6356 23.5981 2.84716 24.1559 3.17279C24.7137 3.49843 25.2012 3.93165 25.5901 4.4473C25.979 4.96295 26.2615 5.55074 26.4214 6.17652L32.3337 28.6111C33.0412 31.286 31.4688 34.086 28.7963 34.8135L19.5765 37.3284C18.9531 37.4965 18.3026 37.5391 17.6627 37.4537C17.0227 37.3684 16.4061 37.1567 15.8486 36.8311C15.2912 36.5055 14.8039 36.0724 14.4152 35.557C14.0264 35.0415 13.7439 34.454 13.5841 33.8285L7.67172 11.3914C6.96673 8.71647 8.5392 5.91653 11.2117 5.18654L20.4265 2.67659ZM19.2065 30.946C19.2451 31.1044 19.3152 31.2535 19.4125 31.3843C19.5098 31.5151 19.6323 31.625 19.7729 31.7075C19.9135 31.7901 20.0693 31.8435 20.2309 31.8648C20.3926 31.886 20.5568 31.8745 20.714 31.831L25.1689 30.616C25.4899 30.5268 25.7635 30.3162 25.932 30.0288C26.1004 29.7414 26.1504 29.3997 26.0714 29.0761C26.0327 28.9177 25.9627 28.7687 25.8654 28.6378C25.7681 28.507 25.6455 28.3971 25.5049 28.3146C25.3643 28.232 25.2086 28.1786 25.0469 28.1574C24.8853 28.1361 24.721 28.1476 24.5639 28.1911L20.1115 29.4036C19.7895 29.4922 19.5148 29.703 19.3458 29.991C19.1768 30.2791 19.1268 30.6217 19.2065 30.946Z" fill="#FF7D27"/>
</svg>
