<svg width="34" height="40" viewBox="0 0 34 40" fill="none" xmlns="http://www.w3.org/2000/svg">
<path d="M24.3263 5C25.5456 5 26.6893 5.22659 27.7576 5.67978C28.8258 6.13296 29.7537 6.75879 30.5414 7.55726C31.3291 8.35572 31.9549 9.28907 32.4189 10.3573C32.8829 11.4255 33.1148 12.5693 33.1148 13.7885C33.1148 14.4144 33.0501 15.0348 32.9206 15.6498C32.7911 16.2649 32.5969 16.8583 32.338 17.4302H24.8442L21.7367 14.1932L16.5574 19.3724L9.30647 12.1215L4.12722 17.4302H0.776888C0.517925 16.8583 0.323703 16.2649 0.194222 15.6498C0.0647407 15.0348 0 14.4144 0 13.7885C0 12.5693 0.226592 11.4255 0.679777 10.3573C1.13296 9.28907 1.75879 8.36112 2.55726 7.57344C3.35572 6.78576 4.28907 6.15994 5.35729 5.69596C6.42551 5.23199 7.56926 5 8.78854 5C9.96467 5 11.0868 5.2212 12.1551 5.66359C13.2233 6.10599 14.1782 6.7426 15.0198 7.57344L16.5574 9.12722L18.095 7.57344C18.9258 6.7426 19.8754 6.10599 20.9436 5.66359C22.0118 5.2212 23.1394 5 24.3263 5ZM22.7725 19.5019H31.027L30.8004 19.7609C30.7248 19.8472 30.6439 19.9389 30.5576 20.036L16.5574 34.02L2.55726 20.036C2.47093 19.9497 2.39001 19.8634 2.31448 19.7771C2.23895 19.6907 2.16342 19.599 2.08789 19.5019H6.19892L9.30647 16.5238L16.5574 23.7748L21.7367 18.5955L22.7725 19.5019Z" fill="#FF7D27"/>
</svg>
