<svg width="32" height="32" viewBox="0 0 32 32" fill="none" xmlns="http://www.w3.org/2000/svg">
<mask id="mask0_247_20271" style="mask-type:luminance" maskUnits="userSpaceOnUse" x="0" y="0" width="32" height="32">
<path d="M0 0H32V32H0V0Z" fill="white"/>
<path fill-rule="evenodd" clip-rule="evenodd" d="M5.53809 15.9996C5.53809 18.7742 6.64028 21.4351 8.6022 23.397C10.5641 25.359 13.2251 26.4612 15.9996 26.4612C18.7742 26.4612 21.4351 25.359 23.397 23.397C25.359 21.4351 26.4612 18.7742 26.4612 15.9996C26.4612 13.2251 25.359 10.5641 23.397 8.6022C21.4351 6.64028 18.7742 5.53809 15.9996 5.53809C13.2251 5.53809 10.5641 6.64028 8.6022 8.6022C6.64028 10.5641 5.53809 13.2251 5.53809 15.9996ZM25.2304 15.9996C25.2304 18.4478 24.2579 20.7957 22.5268 22.5268C20.7957 24.2579 18.4478 25.2304 15.9996 25.2304C13.5515 25.2304 11.2036 24.2579 9.47248 22.5268C7.74138 20.7957 6.76886 18.4478 6.76886 15.9996C6.76886 13.5515 7.74138 11.2036 9.47248 9.47248C11.2036 7.74138 13.5515 6.76886 15.9996 6.76886C18.4478 6.76886 20.7957 7.74138 22.5268 9.47248C24.2579 11.2036 25.2304 13.5515 25.2304 15.9996Z" fill="black"/>
<path fill-rule="evenodd" clip-rule="evenodd" d="M11.6914 15.9995C11.6914 21.4087 13.4662 25.8456 15.9991 25.8456C18.532 25.8456 20.3068 21.4087 20.3068 15.9995C20.3068 10.589 18.532 6.15332 15.9991 6.15332C13.4662 6.15332 11.6914 10.589 11.6914 15.9995ZM19.076 15.9995C19.076 20.7859 17.5437 24.6149 15.9991 24.6149C14.4545 24.6149 12.9222 20.7859 12.9222 15.9995C12.9222 11.213 14.4545 7.38409 15.9991 7.38409C17.5437 7.38409 19.076 11.213 19.076 15.9995Z" fill="black"/>
<path d="M8.28871 10.2296L9.11332 9.31641C9.24501 9.43456 9.38532 9.55025 9.53547 9.66225C11.1576 10.8783 13.7176 11.6192 16.5078 11.6192C18.8869 11.6192 21.1072 11.0813 22.7293 10.1546C23.1031 9.94309 23.4562 9.69709 23.7841 9.41979L24.5841 10.3552C24.2173 10.669 23.8013 10.9583 23.341 11.2216C21.5232 12.2616 19.0924 12.8499 16.5078 12.8499C13.4678 12.8499 10.6469 12.0339 8.79701 10.6469C8.62124 10.5153 8.45163 10.3756 8.28871 10.2284M8.28871 21.7841L9.11332 22.6949C9.24501 22.5767 9.38532 22.461 9.53547 22.3503C11.1576 21.1343 13.7176 20.3933 16.5078 20.3933C18.8869 20.3933 21.1072 20.9299 22.7293 21.8579C23.1244 22.0844 23.4776 22.3306 23.7841 22.5915L24.5841 21.6561C24.1977 21.3291 23.7815 21.039 23.341 20.7896C21.5232 19.7509 19.0924 19.1626 16.5078 19.1626C13.4678 19.1626 10.6469 19.9786 8.79701 21.3644C8.61732 21.4998 8.44747 21.6389 8.28871 21.7829M6.15332 16.6149V15.3841H25.8456V16.6149H6.15332Z" fill="black"/>
</mask>
<g mask="url(#mask0_247_20271)">
<path d="M16 32C24.8366 32 32 24.8366 32 16C32 7.16344 24.8366 0 16 0C7.16344 0 0 7.16344 0 16C0 24.8366 7.16344 32 16 32Z" fill="#FF7D27"/>
</g>
</svg>
