<svg width="34" height="40" viewBox="0 0 34 40" fill="none" xmlns="http://www.w3.org/2000/svg">
<path d="M28.0383 18.111C29.6116 17.0343 30.7681 15.4507 31.315 13.6244C31.4817 13.851 31.6383 14.086 31.785 14.3294C32.7917 15.9944 33.3333 18.0027 33.3333 20.396C33.3333 24.0744 31.945 26.646 30.5333 28.2944C29.8904 29.0455 29.1506 29.708 28.3333 30.2644V33.3127C28.3336 33.6959 28.2583 34.0753 28.1118 34.4294C27.9653 34.7834 27.7505 35.1052 27.4797 35.3762C27.2088 35.6472 26.8872 35.8622 26.5332 36.0089C26.1792 36.1555 25.7998 36.231 25.4167 36.231H23.3333C22.6703 36.231 22.0344 35.9676 21.5656 35.4988C21.0967 35.03 20.8333 34.3941 20.8333 33.731H17.5C17.5 34.3941 17.2366 35.03 16.7678 35.4988C16.2989 35.9676 15.663 36.231 15 36.231H12.9167C12.1431 36.231 11.4013 35.9237 10.8543 35.3768C10.3073 34.8298 10 34.0879 10 33.3144V32.176C9.73886 32.088 9.48092 31.9907 9.22667 31.8844C7.94412 31.3552 6.77516 30.5845 5.78333 29.6144C4.73704 28.5553 3.83737 27.3607 3.10833 26.0627C3.05431 25.955 2.97713 25.8606 2.88233 25.7863C2.78753 25.7119 2.67746 25.6595 2.56 25.6327C1.84496 25.5129 1.19549 25.1437 0.726838 24.5905C0.258189 24.0373 0.000675091 23.336 0 22.611V19.6894C0 18.2844 1.01667 17.086 2.4 16.856C2.545 16.831 2.76 16.686 2.86167 16.3827C3.18167 15.421 3.80333 13.9927 4.95 12.846C5.7771 12.0368 6.70601 11.3388 7.71333 10.7694C7.94222 10.6394 8.14889 10.5283 8.33333 10.436V5.68103C8.33333 4.1177 10.2167 3.47603 11.2333 4.4877C11.7833 5.03603 12.5833 5.76603 13.4683 6.3777C14.3533 6.98937 15.1967 7.38937 15.8917 7.4777C15.0675 9.11141 14.8039 10.971 15.1417 12.7694C15.4433 14.3644 16.665 15.3727 17.8117 15.8494L23.9717 18.3994C25.12 18.8744 26.695 19.0244 28.0383 18.1094M10 17.896C10.442 17.896 10.8659 17.7204 11.1785 17.4079C11.4911 17.0953 11.6667 16.6714 11.6667 16.2294C11.6667 15.7873 11.4911 15.3634 11.1785 15.0509C10.8659 14.7383 10.442 14.5627 10 14.5627C9.55797 14.5627 9.13405 14.7383 8.82149 15.0509C8.50893 15.3634 8.33333 15.7873 8.33333 16.2294C8.33333 16.6714 8.50893 17.0953 8.82149 17.4079C9.13405 17.7204 9.55797 17.896 10 17.896ZM27.0983 16.7344C27.872 16.2053 28.5254 15.519 29.0159 14.7204C29.5064 13.9217 29.823 13.0286 29.945 12.0994C30.0692 11.1439 29.9848 10.1729 29.6976 9.25326C29.4105 8.33358 28.9274 7.48706 28.2816 6.77202C27.6359 6.05697 26.8428 5.49039 25.9571 5.11129C25.0714 4.73219 24.114 4.54958 23.1509 4.57604C22.1877 4.6025 21.2418 4.83739 20.3782 5.26455C19.5146 5.69171 18.7539 6.30098 18.1484 7.0504C17.5429 7.79982 17.107 8.67158 16.8707 9.60564C16.6345 10.5397 16.6036 11.5139 16.78 12.461C16.8222 12.6777 16.8944 12.8805 16.9967 13.0694C17.08 13.2249 17.18 13.3694 17.2967 13.5027C17.6 13.8527 18.0067 14.126 18.45 14.311L24.61 16.861C25.4267 17.1994 26.3683 17.2327 27.0983 16.7344Z" fill="#FF7D27"/>
</svg>
