<svg width="33" height="40" viewBox="0 0 33 40" fill="none" xmlns="http://www.w3.org/2000/svg">
<path d="M16.4908 4C7.38378 4 0 11.3618 0 20.44C0 29.5182 7.38378 36.88 16.4908 36.88C25.5993 36.88 32.9817 29.5182 32.9817 20.44C32.9817 11.3618 25.5979 4 16.4908 4ZM15.7474 10.5963C18.3722 10.4177 21.0739 11.1392 23.2122 13.2541C25.1719 15.2289 26.6616 17.9815 26.6313 20.5609H29.5626L23.4555 27.3813L17.347 20.5609H20.5256C20.5242 18.1917 19.9388 16.7928 18.0795 14.9595C16.2586 13.1236 14.4144 12.0599 11.2385 11.7947C12.6542 11.1195 14.1832 10.7122 15.7474 10.5963ZM9.52896 13.5001L15.6374 20.3204H12.4588C12.4588 22.6896 13.0443 24.0886 14.9022 25.9218C16.7245 27.7578 18.5673 28.8242 21.7432 29.0895C18.0547 30.832 13.1954 31.0106 9.77357 27.6273C7.81254 25.6525 6.32149 22.8999 6.3531 20.3204H3.4191L9.52896 13.5001Z" fill="#FF7D27"/>
</svg>
