<svg width="28" height="40" viewBox="0 0 28 40" fill="none" xmlns="http://www.w3.org/2000/svg">
<path d="M27.5344 13.7723C27.5353 11.4022 26.9243 9.07197 25.7605 7.00724C24.5967 4.94251 22.9196 3.2132 20.8915 1.9867C18.8634 0.760205 16.553 0.0780637 14.184 0.00631141C11.815 -0.0654408 9.46754 0.475626 7.36893 1.57714C5.27032 2.67865 3.49163 4.30329 2.20503 6.2938C0.918428 8.28432 0.167499 10.5733 0.0249322 12.9391C-0.117635 15.3049 0.352989 17.6675 1.39125 19.7981C2.42951 21.9287 4.00023 23.7552 5.95138 25.1008L2.17391e-06 35.4065L4.43698 35.5894L6.81281 39.34L13.6296 27.5317L13.7672 27.5395C13.8361 27.5435 13.8577 27.5336 13.9049 27.5317L20.7216 39.34L23.1447 35.6701L27.5344 35.4065L21.5831 25.1008C23.4192 23.8365 24.9204 22.1447 25.9572 20.1712C26.994 18.1977 27.5353 16.0016 27.5344 13.7723ZM3.93349 13.7723C3.93349 11.8274 4.51023 9.92612 5.59078 8.30897C6.67132 6.69182 8.20714 5.43141 10.004 4.68711C11.8009 3.94282 13.7781 3.74808 15.6857 4.12752C17.5932 4.50696 19.3454 5.44353 20.7207 6.8188C22.096 8.19407 23.0326 9.94627 23.412 11.8538C23.7914 13.7614 23.5967 15.7386 22.8524 17.5355C22.1081 19.3324 20.8477 20.8682 19.2306 21.9487C17.6134 23.0293 15.7122 23.606 13.7672 23.606C11.1592 23.606 8.65791 22.57 6.81373 20.7258C4.96954 18.8816 3.93349 16.3804 3.93349 13.7723Z" fill="#141414"/>
<path d="M13.7674 19.6725C17.026 19.6725 19.6677 17.0309 19.6677 13.7723C19.6677 10.5137 17.026 7.87207 13.7674 7.87207C10.5088 7.87207 7.86719 10.5137 7.86719 13.7723C7.86719 17.0309 10.5088 19.6725 13.7674 19.6725Z" fill="white" fill-opacity="0.5"/>
</svg>
