<svg width="47" height="36" viewBox="0 0 47 36" fill="none" xmlns="http://www.w3.org/2000/svg">
<g clip-path="url(#clip0_1268_61209)">
<path fill-rule="evenodd" clip-rule="evenodd" d="M24.4571 0.128176C24.2714 0.0437058 24.0697 0 23.8657 0C23.6617 0 23.46 0.0437058 23.2743 0.128176L15.78 3.5396L23.86 7.2196L31.9457 3.53675L24.4571 0.128176ZM14.4371 14.791V6.06532L22.4371 9.70818V19.351L15.2686 16.091C15.019 15.9775 14.8074 15.7946 14.6589 15.5641C14.5105 15.3336 14.4315 15.0652 14.4314 14.791H14.4371ZM25.2943 33.9682V24.4253L32.8714 27.8767V37.5196L25.7114 34.2596C25.555 34.1885 25.4156 34.0898 25.2943 33.9682ZM35.7286 37.5253V27.8767L43.7371 24.231V32.9596C43.7371 33.2338 43.6581 33.5021 43.5097 33.7327C43.3612 33.9632 43.1496 34.1461 42.9 34.2596L35.7286 37.5253ZM22.4314 24.4253V33.9796C22.3126 34.096 22.1743 34.1908 22.0229 34.2596L14.8514 37.5253V27.8767L22.4314 24.4253ZM11.9943 27.8767V37.5196L4.83714 34.2596C4.58757 34.1461 4.37593 33.9632 4.22749 33.7327C4.07905 33.5021 4.00008 33.2338 4 32.9596V24.2339L12 27.8767H11.9943ZM25.2886 19.3567V9.70532L33.2971 6.0596V14.791C33.2971 15.0652 33.2181 15.3336 33.0697 15.5641C32.9212 15.7946 32.7096 15.9775 32.46 16.091L25.2886 19.3567ZM33.7114 18.2996C33.8972 18.2151 34.0988 18.1714 34.3029 18.1714C34.5069 18.1714 34.7086 18.2151 34.8943 18.2996L42.38 21.7053L34.2943 25.3882L26.2229 21.7053L33.7143 18.2939L33.7114 18.2996ZM12.8371 18.2996C13.0229 18.2151 13.2245 18.1714 13.4286 18.1714C13.6326 18.1714 13.8343 18.2151 14.02 18.2996L21.5057 21.7053L13.4229 25.391L5.34571 21.7053L12.8371 18.2996Z" fill="#141414"/>
</g>
<defs>
<clipPath id="clip0_1268_61209">
<rect width="47" height="35" fill="white" transform="translate(0 0.984375)"/>
</clipPath>
</defs>
</svg>
